<svg xmlns="http://www.w3.org/2000/svg" width="2346" height="1488" viewBox="0 0 2346 1488" version="1.1"><path d="M 1128.750 254.740 C 1132.188 254.936, 1137.813 254.936, 1141.250 254.740 C 1144.688 254.545, 1141.875 254.385, 1135 254.385 C 1128.125 254.385, 1125.313 254.545, 1128.750 254.740 M 1205.750 254.740 C 1209.188 254.936, 1214.813 254.936, 1218.250 254.740 C 1221.688 254.545, 1218.875 254.385, 1212 254.385 C 1205.125 254.385, 1202.313 254.545, 1205.750 254.740 M 2009.500 593 C 2017.185 600.700, 2023.698 607, 2023.973 607 C 2024.248 607, 2018.185 600.700, 2010.500 593 C 2002.815 585.300, 1996.302 579, 1996.027 579 C 1995.752 579, 2001.815 585.300, 2009.500 593 M 2345 1310.500 L 2345 1314 1173.570 1314 L 2.139 1314 1.706 1311.750 C 1.334 1309.821, 1.253 1309.892, 1.136 1312.250 L 1 1315 1173.500 1315 L 2346 1315 2346 1311 C 2346 1308.800, 2345.775 1307, 2345.500 1307 C 2345.225 1307, 2345 1308.575, 2345 1310.500" stroke="none" fill="#1d854d" fill-rule="evenodd"/><path d="M 433.317 0.990 C 421.836 3.413, 410.278 12.783, 405.267 23.728 C 401.699 31.522, 401.094 42.183, 403.748 50.500 C 404.963 54.309, 441.207 118.044, 502.976 225 C 556.499 317.675, 600.476 394.187, 600.703 395.027 C 600.997 396.113, 597.273 398.691, 587.808 403.951 C 551.587 424.084, 503.684 454.884, 469.500 480.020 C 356.916 562.803, 258.388 667.715, 183.675 784.362 C 96.567 920.362, 39.227 1070.096, 12.525 1231.289 C 9.243 1251.104, 4.034 1290.235, 2.479 1306.750 L 1.797 1314 1173.542 1314 L 2345.288 1314 2344.607 1305.750 C 2344.232 1301.213, 2342.601 1287.150, 2340.983 1274.500 C 2304.691 990.825, 2170.975 734.814, 1961.483 547.917 C 1901.421 494.332, 1827.953 442.022, 1759.250 403.923 C 1751.963 399.882, 1746 396.187, 1746 395.711 C 1746 395.235, 1789.952 318.718, 1843.672 225.673 C 1905.761 118.132, 1942.041 54.314, 1943.256 50.500 C 1947.260 37.936, 1943.809 23.228, 1934.497 13.171 C 1919.205 -3.347, 1894.040 -3.937, 1878.701 11.863 C 1875.377 15.287, 1848.230 61.506, 1774.955 188.500 C 1720.372 283.100, 1675.630 360.610, 1675.529 360.744 C 1675.428 360.879, 1663.905 356.090, 1649.922 350.104 C 1540.649 303.320, 1426.062 273.731, 1305 261.036 C 1204.670 250.515, 1096.953 252.439, 997.383 266.530 C 889.224 281.836, 779.668 313.080, 684.055 355.887 C 677.761 358.705, 672.251 360.651, 671.810 360.210 C 671.370 359.770, 626.769 282.705, 572.697 188.955 C 482.632 32.801, 473.843 17.947, 467.942 11.911 C 463.110 6.968, 460.076 4.790, 455.801 3.194 C 449.138 0.706, 439.251 -0.263, 433.317 0.990 M 616 790.445 C 585.601 796.863, 560.100 816.915, 546.559 845.050 C 539.199 860.343, 537.657 867.607, 537.657 887 C 537.657 905.194, 538.896 911.816, 544.973 926.095 C 551.627 941.733, 566.748 959.733, 581.308 969.348 C 609.342 987.862, 646.086 990.648, 676.555 976.570 C 697.210 967.027, 714.571 949.728, 724.474 928.823 C 747.010 881.249, 727.471 824.072, 680.365 799.743 C 665.447 792.038, 656.248 789.793, 638 789.404 C 627.500 789.180, 620.403 789.516, 616 790.445 M 1692 790.553 C 1641.008 801.487, 1606.979 849.564, 1614.082 900.636 C 1619.405 938.907, 1647.888 971.529, 1685 981.861 C 1726.464 993.405, 1769.693 977.179, 1793.904 940.982 C 1800.769 930.719, 1805.453 919.276, 1808.223 906 C 1810.783 893.728, 1810.253 874.598, 1807.016 862.500 C 1804.269 852.231, 1796.589 836.198, 1790.689 828.413 C 1775.917 808.923, 1753.657 794.948, 1730.162 790.416 C 1720.955 788.639, 1700.581 788.713, 1692 790.553" stroke="none" fill="#33db83" fill-rule="evenodd"/></svg>