<?xml version="1.0" encoding="UTF-8"?>
<!DOCTYPE svg PUBLIC "-//W3C//DTD SVG 1.1//EN" "http://www.w3.org/Graphics/SVG/1.1/DTD/svg11.dtd">
<svg xmlns="http://www.w3.org/2000/svg" version="1.1" width="270px" height="254px" style="shape-rendering:geometricPrecision; text-rendering:geometricPrecision; image-rendering:optimizeQuality; fill-rule:evenodd; clip-rule:evenodd" xmlns:xlink="http://www.w3.org/1999/xlink">
<g><path style="opacity:1" fill="#2581fe" d="M 136.5,-0.5 C 138.833,-0.5 141.167,-0.5 143.5,-0.5C 144.167,0.5 144.833,1.5 145.5,2.5C 150.27,14.0422 155.603,25.3755 161.5,36.5C 161.957,37.2975 162.624,37.6309 163.5,37.5C 164.773,39.7128 165.773,42.0462 166.5,44.5C 174.459,63.0855 183.459,81.0855 193.5,98.5C 216.559,143.617 239.392,188.95 262,234.5C 263.378,238.987 262.212,242.487 258.5,245C 228.167,245.667 197.833,245.667 167.5,245C 166.333,243.833 165.167,242.667 164,241.5C 149.14,211.779 134.473,182.446 120,153.5C 100.4,103.107 103.733,54.4408 130,7.5C 131.957,4.54022 134.124,1.87355 136.5,-0.5 Z"/></g>
<g><path style="opacity:0.635" fill="#257bfe" d="M 145.5,2.5 C 151.739,13.9756 157.739,25.6423 163.5,37.5C 162.624,37.6309 161.957,37.2975 161.5,36.5C 155.603,25.3755 150.27,14.0422 145.5,2.5 Z"/></g>
<g><path style="opacity:0.635" fill="#247bfe" d="M 166.5,44.5 C 176.008,62.1824 185.008,80.1824 193.5,98.5C 183.459,81.0855 174.459,63.0855 166.5,44.5 Z"/></g>
<g><path style="opacity:1" fill="#0457d2" d="M 107.5,138.5 C 107.196,139.15 106.863,139.817 106.5,140.5C 107.963,142.729 108.797,145.063 109,147.5C 97.0547,140.447 85.2214,133.281 73.5,126C 74.8346,121.498 76.8346,117.331 79.5,113.5C 79.3764,112.893 79.0431,112.56 78.5,112.5C 81.3964,108.954 84.7297,108.62 88.5,111.5C 96.0829,119.682 102.416,128.682 107.5,138.5 Z"/></g>
<g><path style="opacity:0.993" fill="#065bd7" d="M 78.5,112.5 C 79.0431,112.56 79.3764,112.893 79.5,113.5C 76.8346,117.331 74.8346,121.498 73.5,126C 85.2214,133.281 97.0547,140.447 109,147.5C 108.797,145.063 107.963,142.729 106.5,140.5C 106.863,139.817 107.196,139.15 107.5,138.5C 111.32,144.28 113.987,150.613 115.5,157.5C 102.4,150.911 88.7336,143.411 74.5,135C 72.4299,134.052 70.9299,132.552 70,130.5C 67.8584,134.49 66.025,138.49 64.5,142.5C 63.291,144.941 61.6243,146.941 59.5,148.5C 65.3401,136.149 71.6735,124.149 78.5,112.5 Z"/></g>
<g><path style="opacity:1" fill="#0a5fda" d="M 115.5,157.5 C 118.08,163.142 119.747,169.142 120.5,175.5C 119.833,174.833 119.167,174.167 118.5,173.5C 100.166,163.669 82.1659,153.336 64.5,142.5C 66.025,138.49 67.8584,134.49 70,130.5C 70.9299,132.552 72.4299,134.052 74.5,135C 88.7336,143.411 102.4,150.911 115.5,157.5 Z"/></g>
<g><path style="opacity:1" fill="#0e64df" d="M 64.5,142.5 C 82.1659,153.336 100.166,163.669 118.5,173.5C 119.283,177.146 119.45,180.812 119,184.5C 100.386,173.779 81.8856,162.946 63.5,152C 62.5,151.333 61.5,151.333 60.5,152C 59.2699,154.306 57.9366,156.473 56.5,158.5C 54.9925,160.181 53.9925,162.181 53.5,164.5C 52.6618,164.842 52.3284,165.508 52.5,166.5C 51.8333,166.5 51.1667,166.5 50.5,166.5C 53.5,160.5 56.5,154.5 59.5,148.5C 61.6243,146.941 63.291,144.941 64.5,142.5 Z"/></g>
<g><path style="opacity:1" fill="#1067e2" d="M 118.5,173.5 C 119.167,174.167 119.833,174.833 120.5,175.5C 122.436,184.257 123.436,193.257 123.5,202.5C 122.463,201.07 121.796,199.403 121.5,197.5C 121.666,193.486 121.499,189.486 121,185.5C 120.825,189.211 120.325,192.878 119.5,196.5C 98.9642,184.4 78.2975,172.567 57.5,161C 56.7476,160.329 56.4142,159.496 56.5,158.5C 57.9366,156.473 59.2699,154.306 60.5,152C 61.5,151.333 62.5,151.333 63.5,152C 81.8856,162.946 100.386,173.779 119,184.5C 119.45,180.812 119.283,177.146 118.5,173.5 Z"/></g>
<g><path style="opacity:1" fill="#136be6" d="M 56.5,158.5 C 56.4142,159.496 56.7476,160.329 57.5,161C 78.2975,172.567 98.9642,184.4 119.5,196.5C 120.325,192.878 120.825,189.211 121,185.5C 121.499,189.486 121.666,193.486 121.5,197.5C 120.691,199.292 120.191,201.292 120,203.5C 97.4733,190.953 75.3066,177.953 53.5,164.5C 53.9925,162.181 54.9925,160.181 56.5,158.5 Z"/></g>
<g><path style="opacity:1" fill="#1770eb" d="M 53.5,164.5 C 75.3066,177.953 97.4733,190.953 120,203.5C 120.191,201.292 120.691,199.292 121.5,197.5C 121.796,199.403 122.463,201.07 123.5,202.5C 123.16,207.89 122.493,213.223 121.5,218.5C 96.8752,205.166 72.2085,191.166 47.5,176.5C 49.1667,173.167 50.8333,169.833 52.5,166.5C 52.3284,165.508 52.6618,164.842 53.5,164.5 Z"/></g>
<g><path style="opacity:1" fill="#1a74ef" d="M 47.5,176.5 C 72.2085,191.166 96.8752,205.166 121.5,218.5C 121.3,221.63 120.634,224.63 119.5,227.5C 118.293,226.811 116.959,226.645 115.5,227C 91.5322,213.014 67.5322,199.014 43.5,185C 44.7645,182.042 46.0978,179.209 47.5,176.5 Z"/></g>
<g><path style="opacity:1" fill="#1d79f4" d="M 50.5,166.5 C 51.1667,166.5 51.8333,166.5 52.5,166.5C 50.8333,169.833 49.1667,173.167 47.5,176.5C 46.0978,179.209 44.7645,182.042 43.5,185C 67.5322,199.014 91.5322,213.014 115.5,227C 116.959,226.645 118.293,226.811 119.5,227.5C 118.918,231.532 117.584,235.199 115.5,238.5C 111.638,237.572 107.971,236.072 104.5,234C 82.9328,220.717 60.9328,208.217 38.5,196.5C 38.4431,195.391 38.1098,194.391 37.5,193.5C 41.2633,184.201 45.5967,175.201 50.5,166.5 Z"/></g>
<g><path style="opacity:1" fill="#207df8" d="M 38.5,196.5 C 60.9328,208.217 82.9328,220.717 104.5,234C 107.971,236.072 111.638,237.572 115.5,238.5C 114.99,241.674 113.323,244.008 110.5,245.5C 109.817,243.824 108.483,243.157 106.5,243.5C 82.7964,229.805 59.1297,215.805 35.5,201.5C 36.2745,199.604 37.2745,197.937 38.5,196.5 Z"/></g>
<g><path style="opacity:0.998" fill="#2380fb" d="M 37.5,193.5 C 38.1098,194.391 38.4431,195.391 38.5,196.5C 37.2745,197.937 36.2745,199.604 35.5,201.5C 59.1297,215.805 82.7964,229.805 106.5,243.5C 98.4931,243.666 90.4931,243.5 82.5,243C 64.8073,233.158 47.4739,222.825 30.5,212C 31.0294,210.441 31.696,208.941 32.5,207.5C 32.0302,206.537 31.3635,206.537 30.5,207.5C 32.3255,202.516 34.6589,197.849 37.5,193.5 Z"/></g>
<g><path style="opacity:1" fill="#2584fe" d="M 106.5,243.5 C 108.483,243.157 109.817,243.824 110.5,245.5C 80.1648,245.667 49.8315,245.5 19.5,245C 17.0696,242.805 15.4029,240.138 14.5,237C 19.9888,227.185 25.3222,217.351 30.5,207.5C 31.3635,206.537 32.0302,206.537 32.5,207.5C 31.696,208.941 31.0294,210.441 30.5,212C 47.4739,222.825 64.8073,233.158 82.5,243C 90.4931,243.5 98.4931,243.666 106.5,243.5 Z"/></g>
</svg>
