<?xml version="1.0" encoding="utf-8"?>
<!-- Generator: Adobe Illustrator 27.3.1, SVG Export Plug-In . SVG Version: 6.00 Build 0)  -->
<svg version="1.1" id="Camada_1" xmlns="http://www.w3.org/2000/svg" xmlns:xlink="http://www.w3.org/1999/xlink" x="0px" y="0px"
	 viewBox="0 0 2560 1533" style="enable-background:new 0 0 2560 1533;" xml:space="preserve">
<style type="text/css">
	.st0{display:none;fill-rule:evenodd;clip-rule:evenodd;fill:#242C3C;}
	.st1{fill-rule:evenodd;clip-rule:evenodd;fill:#FC9C04;}
	.st2{fill-rule:evenodd;clip-rule:evenodd;fill:#FFFFFF;}
</style>
<rect class="st0" width="2560" height="1533"/>
<path class="st1" d="M2332.5,954.1c-73.4,4.4-139.9,20.3-195.1,46.9c-35,16.8-58,32.7-63.8,43.8c-5.8,11.2-0.8,21.4,11.5,23.7
	c2,0.4,14.6-0.6,29.5-2.4c79.6-9.4,129.9-13.1,180.4-13.1c43.3,0,66.3,2,87.8,7.6c24.6,6.4,36,14.8,41.3,30.4
	c3.1,9.2,3.8,31.7,1.5,50.1c-6.5,51.2-27.8,120.1-70.6,228.4c-10.2,25.9-12.3,31.9-12.3,36.5c-0.2,16.9,17.4,20.3,35.2,6.9
	c7.9-5.9,31.7-29.3,42.1-41.4c42.2-48.8,77.8-115.6,100.7-188.8c16.6-53,25.4-103.4,25.4-145.2c0-28.1-3.4-43.6-11-51.3
	C2512.6,963.8,2418.7,949,2332.5,954.1 M28.1,1004.5c-8.3,2.6-14.1,10.5-14.1,19.3c0,11.1,3.4,16,24.2,34.4
	c185.1,164.4,403,290.3,639.3,369.4c248,83,520.6,113.6,779,87.4c260.7-26.4,519.2-106.4,722.9-223.6c52.1-30,118.4-74.1,131.7-87.6
	c9.7-9.8,14.3-22.5,12.1-32.9c-3.3-15.3-15.3-26.2-32-29.1c-10.1-1.7-18.1-0.1-35.9,7.3c-259.7,108-536.1,171.8-815.6,188.3
	c-50.9,3-90,3.8-156.5,3.2c-64-0.6-81.1-1.1-131-4.2c-381.8-23.9-755.3-133.6-1079-316.9C43.9,1003,38.6,1001.2,28.1,1004.5"/>
<path class="st0" d="M2161.9,42c-26.4,2.2-44.8,4.9-63.3,9.4c-70.9,17.4-125.8,55.2-159.8,110.1c-29.8,48-35.5,113.1-14.8,168.7
	c10.4,27.9,30.5,58.9,50.5,77.7c21.6,20.4,49.5,37.7,82,51.1c16,6.5,17.5,7.1,92.9,30.5c73.5,22.9,87.7,27.8,107.7,37.4
	c29.2,14,44,27,53.3,47c6.2,13.2,7.4,19.7,7.4,38c-0.1,18.7-1.7,26.4-8.7,41c-20.8,43.1-75,65.5-158.1,65.5
	c-65.7,0-127.7-12.7-190.2-38.8c-23.6-9.9-27.8-11.1-36.8-11.1c-9.3,0-13.9,2.5-17.5,9.5l-2.6,5v32.5c0,31,0.1,32.9,2.3,39.7
	c1.4,4.4,3.8,9.1,6.2,12.1c13.3,16.8,50,33.6,104.6,47.8c33.5,8.7,64.7,14,99.5,17c26.8,2.3,76.6,1.6,98.7-1.5
	c46.3-6.3,89.1-19.2,122.3-36.8c60.9-32.3,103.3-86,116.4-147.3c10.2-47.8,5.3-95.8-13.9-135.6c-11-22.9-29.4-46.3-48.3-61.6
	c-19.2-15.5-46.1-30.6-74.3-41.6c-8.6-3.4-48.2-16.5-88-29.1c-74.1-23.6-87-28-106.7-36.9c-33.5-15.1-53.5-32.1-63.3-53.6
	c-5.4-12-6.4-17.6-6.3-35.6c0.1-19,1.7-26.9,8.3-40.4c13.6-28,45.2-46,93.1-53c15.7-2.3,45.6-3.7,62.5-3
	c58.2,2.4,105,12.9,150.8,33.9c31.3,14.3,45.8,10.7,48.7-12c1.2-9.2,1.2-42.8,0-53.3c-2.8-24.8-22.4-41.3-66.9-56.4
	c-37.5-12.7-84.9-22.3-126.5-25.6C2211.3,41.4,2171.7,41.2,2161.9,42 M415.4,43.9c-1.9,0.2-9.1,0.9-16,1.5
	c-58.6,5.1-133.4,25.8-182,50.5c-21.6,11-28.7,18.6-31,33.4c-1.7,10.7-1.3,61.5,0.5,68.4c2.7,10.5,7.3,14.2,17.5,14
	c7.7-0.1,16.2-2.7,42-12.9c20.7-8.1,39.2-14.5,59.8-20.4c47.6-13.8,82-19.1,123.1-19.1c61.6,0,104.5,11.3,132,34.8
	c16.1,13.8,29.3,38.1,36.2,67c5.5,22.7,6.2,31.6,6.6,83.4c0.4,40.4,0.2,48.7-0.9,48.3c-8.6-3-78.3-16.1-101.6-19
	c-38.5-4.9-87.2-6.9-115.8-4.6c-65.4,5.2-114.4,21.4-157.2,52c-46.7,33.4-77,79.4-87.7,133.2c-3.9,19.3-4.9,30.7-4.9,53.9
	c0,56.7,13.8,101,43.6,140.5c7.8,10.3,25.9,28.4,36.3,36.3c42.2,31.9,95.9,46.8,161.3,44.9c40.8-1.2,75.9-8.3,110.5-22.2
	c42.4-17.1,76.3-40.6,112.8-78.5c7.6-7.9,13.9-14.1,14.1-13.9c0.2,0.2,3.8,7.4,8.1,15.9c16.6,33.2,30.2,53.6,46.5,70.1
	c10,10.1,16.6,13.4,27,13.3c10.3,0,13-1.4,48.3-24.9c38.3-25.5,42.2-29.6,42.2-44.5c0-7.5,0-7.5-10.2-28
	c-23-46.4-29.1-68.2-31-110.4c-0.4-8.6-1-15.6-1.5-15.6c-0.4,0-1-70.1-1.2-155.7c-0.4-164-0.3-160-5.2-189.8
	c-13.8-83.2-53.1-140.4-118-171.4c-30.3-14.5-64.4-23.5-108.7-28.7C498.7,44.2,424.9,42.9,415.4,43.9 M833.7,65.4
	c-5,2.5-7.8,6.6-9.3,13.8c-1.6,7.3,0.9,18.8,11.6,54.2c62,204.9,195.2,642,197.2,646.9c5.6,14.2,12,22.2,21.3,26.4
	c9.2,4.2,18.7,4.8,67.2,4.4c48.4-0.4,51.3-0.8,60.8-6.6c6.6-4,12.2-13,16.3-26c1.9-5.9,32.4-132.1,67.8-280.4
	c35.4-148.3,64.5-269.6,64.6-269.4c0.1,0.1,30.2,124.8,66.7,277.1c72.5,301.6,68.4,286.3,78,295.9c6,6,12.7,8.4,26.8,9.6
	c13.9,1.2,74.9,1.3,87.5,0.1c19.7-1.9,29-7.6,36.3-22.4c3-6,31.5-96.3,108.1-341.7c57.2-183.4,104.9-336.6,105.9-340.4
	c5.3-19.4,4.8-31.6-1.7-38.1c-1.9-1.9-5.1-3.9-7.2-4.4c-6.1-1.7-95.1-1.4-103.4,0.4c-8.6,1.8-15.7,5.5-19.9,10.2
	c-4.5,5.1-10.2,17.7-13.9,30.3c-1.6,5.8-34.8,133.8-73.7,284.5s-71,274.5-71.3,275.2c-0.4,0.6-12.3-48.2-26.5-108.5
	c-14.2-60.3-44.5-188.9-67.3-285.7c-27.8-117.9-42.5-178.4-44.5-183.3c-3.7-9-10.8-17.1-17.6-20c-9.1-3.9-15.5-4.3-64.2-4
	c-45.7,0.3-46.6,0.4-53,2.6c-12.4,4.4-17.4,9.7-22.9,24.1c-1.7,4.4-30.8,126.2-69.1,288.6C1148,533.4,1118.1,659.9,1118,660
	c-0.1,0.1-31.8-124.8-70.6-277.5c-43.1-169.9-71.9-281.8-74.3-288.2c-6.8-18.6-14.1-26.3-27.8-29.4c-5.8-1.3-15-1.6-57.3-1.6
	C839.2,63.3,837.8,63.4,833.7,65.4 M421.9,469.9c-52.2,5.2-83.6,17.7-107.3,42.8c-21.1,22.3-30.2,48.5-30.2,86.9
	c0,25.9,3.2,43.6,11,60.3c10.3,22.2,28.4,39.8,50.5,49.1c33.5,14.1,83.8,13.3,135-2.3c32.3-9.8,56.4-24.2,80.1-47.9
	c21.8-21.8,33.3-43.2,39.4-72.9c4.2-20.6,5.2-31.5,5.7-64.8l0.5-32.7l-3.9-1c-21.6-5.7-64.2-12.6-99.4-16.2
	C493,470.2,429.6,469.1,421.9,469.9"/>
<path class="st2" d="M2161.9,41c-26.4,2.2-44.8,4.9-63.3,9.4c-70.9,17.4-125.8,55.2-159.8,110.1c-29.8,48-35.5,113.1-14.8,168.7
	c10.4,27.9,30.5,58.9,50.5,77.7c21.6,20.4,49.5,37.7,82,51.1c16,6.5,17.5,7.1,92.9,30.5c73.5,22.9,87.7,27.8,107.7,37.4
	c29.2,14,44,27,53.3,47c6.2,13.2,7.4,19.7,7.4,38c-0.1,18.7-1.7,26.4-8.7,41c-20.8,43.1-75,65.5-158.1,65.5
	c-65.7,0-127.7-12.7-190.2-38.8c-23.6-9.9-27.8-11.1-36.8-11.1c-9.3,0-13.9,2.5-17.5,9.5l-2.6,5v32.5c0,31,0.1,32.9,2.3,39.7
	c1.4,4.4,3.8,9.1,6.2,12.1c13.3,16.8,50,33.6,104.6,47.8c33.5,8.7,64.7,14,99.5,17c26.8,2.3,76.6,1.6,98.7-1.5
	c46.3-6.3,89.1-19.2,122.3-36.8c60.9-32.3,103.3-86,116.4-147.3c10.2-47.8,5.3-95.8-13.9-135.6c-11-22.9-29.4-46.3-48.3-61.6
	c-19.2-15.5-46.1-30.6-74.3-41.6c-8.6-3.4-48.2-16.5-88-29.1c-74.1-23.6-87-28-106.7-36.9c-33.5-15.1-53.5-32.1-63.3-53.6
	c-5.4-12-6.4-17.6-6.3-35.6c0.1-19,1.7-26.9,8.3-40.4c13.6-28,45.2-46,93.1-53c15.7-2.3,45.6-3.7,62.5-3
	c58.2,2.4,105,12.9,150.8,33.9c31.3,14.3,45.8,10.7,48.7-12c1.2-9.2,1.2-42.8,0-53.3c-2.8-24.8-22.4-41.3-66.9-56.4
	c-37.5-12.7-84.9-22.3-126.5-25.6C2211.3,40.4,2171.7,40.2,2161.9,41 M415.4,42.9c-1.9,0.2-9.1,0.9-16,1.5
	c-58.6,5.1-133.4,25.8-182,50.5c-21.6,11-28.7,18.6-31,33.4c-1.7,10.7-1.3,61.5,0.5,68.4c2.7,10.5,7.3,14.2,17.5,14
	c7.7-0.1,16.2-2.7,42-12.9c20.7-8.1,39.2-14.5,59.8-20.4c47.6-13.8,82-19.1,123.1-19.1c61.6,0,104.5,11.3,132,34.8
	c16.1,13.8,29.3,38.1,36.2,67c5.5,22.7,6.2,31.6,6.6,83.4c0.4,40.4,0.2,48.7-0.9,48.3c-8.6-3-78.3-16.1-101.6-19
	c-38.5-4.9-87.2-6.9-115.8-4.6c-65.4,5.2-114.4,21.4-157.2,52c-46.7,33.4-77,79.4-87.7,133.2c-3.9,19.3-4.9,30.7-4.9,53.9
	c0,56.7,13.8,101,43.6,140.5c7.8,10.3,25.9,28.4,36.3,36.3c42.2,31.9,95.9,46.8,161.3,44.9c40.8-1.2,75.9-8.3,110.5-22.2
	c42.4-17.1,76.3-40.6,112.8-78.5c7.6-7.9,13.9-14.1,14.1-13.9c0.2,0.2,3.8,7.4,8.1,15.9c16.6,33.2,30.2,53.6,46.5,70.1
	c10,10.1,16.6,13.4,27,13.3c10.3,0,13-1.4,48.3-24.9c38.3-25.5,42.2-29.6,42.2-44.5c0-7.5,0-7.5-10.2-28
	c-23-46.4-29.1-68.2-31-110.4c-0.4-8.6-1-15.6-1.5-15.6c-0.4,0-1-70.1-1.2-155.7c-0.4-164-0.3-160-5.2-189.8
	c-13.8-83.2-53.1-140.4-118-171.4c-30.3-14.5-64.4-23.5-108.7-28.7C498.7,43.2,424.9,41.9,415.4,42.9 M833.7,64.4
	c-5,2.5-7.8,6.6-9.3,13.8c-1.6,7.3,0.9,18.8,11.6,54.2c62,204.9,195.2,642,197.2,646.9c5.6,14.2,12,22.2,21.3,26.4
	c9.2,4.2,18.7,4.8,67.2,4.4c48.4-0.4,51.3-0.8,60.8-6.6c6.6-4,12.2-13,16.3-26c1.9-5.9,32.4-132.1,67.8-280.4
	c35.4-148.3,64.5-269.6,64.6-269.4c0.1,0.1,30.2,124.8,66.7,277.1c72.5,301.6,68.4,286.3,78,295.9c6,6,12.7,8.4,26.8,9.6
	c13.9,1.2,74.9,1.3,87.5,0.1c19.7-1.9,29-7.6,36.3-22.4c3-6,31.5-96.3,108.1-341.7c57.2-183.4,104.9-336.6,105.9-340.4
	c5.3-19.4,4.8-31.6-1.7-38.1c-1.9-1.9-5.1-3.9-7.2-4.4c-6.1-1.7-95.1-1.4-103.4,0.4c-8.6,1.8-15.7,5.5-19.9,10.2
	c-4.5,5.1-10.2,17.7-13.9,30.3c-1.6,5.8-34.8,133.8-73.7,284.5s-71,274.5-71.3,275.2c-0.4,0.6-12.3-48.2-26.5-108.5
	c-14.2-60.3-44.5-188.9-67.3-285.7c-27.8-117.9-42.5-178.4-44.5-183.3c-3.7-9-10.8-17.1-17.6-20c-9.1-3.9-15.5-4.3-64.2-4
	c-45.7,0.3-46.6,0.4-53,2.6c-12.4,4.4-17.4,9.7-22.9,24.1c-1.7,4.4-30.8,126.2-69.1,288.6C1148,532.4,1118.1,658.9,1118,659
	c-0.1,0.1-31.8-124.8-70.6-277.5c-43.1-169.9-71.9-281.8-74.3-288.2c-6.8-18.6-14.1-26.3-27.8-29.4c-5.8-1.3-15-1.6-57.3-1.6
	C839.2,62.3,837.8,62.4,833.7,64.4 M421.9,468.9c-52.2,5.2-83.6,17.7-107.3,42.8c-21.1,22.3-30.2,48.5-30.2,86.9
	c0,25.9,3.2,43.6,11,60.3c10.3,22.2,28.4,39.8,50.5,49.1c33.5,14.1,83.8,13.3,135-2.3c32.3-9.8,56.4-24.2,80.1-47.9
	c21.8-21.8,33.3-43.2,39.4-72.9c4.2-20.6,5.2-31.5,5.7-64.8l0.5-32.7l-3.9-1c-21.6-5.7-64.2-12.6-99.4-16.2
	C493,469.2,429.6,468.1,421.9,468.9"/>
</svg>
