<?xml version="1.0" encoding="UTF-8"?>
<!DOCTYPE svg PUBLIC "-//W3C//DTD SVG 1.1//EN" "http://www.w3.org/Graphics/SVG/1.1/DTD/svg11.dtd">
<svg xmlns="http://www.w3.org/2000/svg" version="1.1" width="1200px" height="1170px" style="shape-rendering:geometricPrecision; text-rendering:geometricPrecision; image-rendering:optimizeQuality; fill-rule:evenodd; clip-rule:evenodd" xmlns:xlink="http://www.w3.org/1999/xlink">
<g><path style="opacity:1" fill="#470137" d="M 191.5,-0.5 C 463.5,-0.5 735.5,-0.5 1007.5,-0.5C 1088.2,10.3808 1146.37,52.3808 1182,125.5C 1190.99,146.799 1196.82,168.799 1199.5,191.5C 1199.5,453.5 1199.5,715.5 1199.5,977.5C 1188.61,1058.21 1146.61,1116.38 1073.5,1152C 1052.2,1160.99 1030.2,1166.82 1007.5,1169.5C 735.5,1169.5 463.5,1169.5 191.5,1169.5C 110.789,1158.61 52.6221,1116.61 17,1043.5C 8.01041,1022.2 2.17708,1000.2 -0.5,977.5C -0.5,715.5 -0.5,453.5 -0.5,191.5C 10.3909,110.789 52.3909,52.6221 125.5,17C 146.799,8.01041 168.799,2.17708 191.5,-0.5 Z"/></g>
<g><path style="opacity:1" fill="#fe60f5" d="M 211.5,300.5 C 239.169,300.333 266.835,300.5 294.5,301C 338.406,303.06 380.073,313.726 419.5,333C 486.508,371.094 525.675,428.594 537,505.5C 546.982,569.738 538.649,631.405 512,690.5C 476.757,756.055 423.257,799.222 351.5,820C 328.241,826.252 304.574,829.918 280.5,831C 227.826,831.774 175.159,831.441 122.5,830C 119.062,830.135 116.228,828.968 114,826.5C 113.333,653.167 113.333,479.833 114,306.5C 114.833,305 116,303.833 117.5,303C 148.998,302.228 180.331,301.394 211.5,300.5 Z"/></g>
<g><path style="opacity:1" fill="#470137" d="M 230.5,731.5 C 227.038,730.518 223.371,730.185 219.5,730.5C 219.5,619.5 219.5,508.5 219.5,397.5C 246.838,396.05 274.172,396.216 301.5,398C 378.84,410.342 421.674,455.509 430,533.5C 432.977,568.015 428.977,601.682 418,634.5C 394.347,693.272 350.847,725.772 287.5,732C 268.488,732.708 249.488,732.541 230.5,731.5 Z"/></g>
<g><path style="opacity:1" fill="#a23095" d="M 219.5,397.5 C 219.5,508.5 219.5,619.5 219.5,730.5C 223.371,730.185 227.038,730.518 230.5,731.5C 226.5,731.5 222.5,731.5 218.5,731.5C 218.167,619.999 218.501,508.665 219.5,397.5 Z"/></g>
<g><path style="opacity:1" fill="#fe60f5" d="M 1009.5,423.5 C 1040.5,423.333 1071.5,423.5 1102.5,424C 1104.65,424.479 1105.65,425.812 1105.5,428C 1069.08,558.186 1032.58,688.353 996,818.5C 995,820.167 994,821.833 993,823.5C 959.572,824.662 926.072,824.829 892.5,824C 891.069,823.535 889.903,822.701 889,821.5C 865.907,728.295 846.24,634.295 830,539.5C 819.836,582.308 810.17,625.308 801,668.5C 788.782,719.704 775.782,770.704 762,821.5C 761.097,822.701 759.931,823.535 758.5,824C 724.082,824.986 689.748,824.653 655.5,823C 653.348,820.531 651.848,817.698 651,814.5C 618.905,685.952 586.738,557.452 554.5,429C 554.833,427.833 555.167,426.667 555.5,425.5C 589.792,424.34 624.125,424.174 658.5,425C 659.931,425.465 661.097,426.299 662,427.5C 684.583,522.417 703.583,618.083 719,714.5C 731.974,645.631 745.974,576.965 761,508.5C 767.399,480.567 774.566,452.901 782.5,425.5C 817.829,424.333 853.162,424.167 888.5,425C 890.604,427.042 891.771,429.542 892,432.5C 914.355,526.736 932.855,621.736 947.5,717.5C 948.192,716.975 948.692,716.308 949,715.5C 964.368,618.328 983.701,521.994 1007,426.5C 1008.04,425.627 1008.88,424.627 1009.5,423.5 Z"/></g>
</svg>
