<?xml version="1.0" encoding="UTF-8"?>
<!DOCTYPE svg PUBLIC "-//W3C//DTD SVG 1.1//EN" "http://www.w3.org/Graphics/SVG/1.1/DTD/svg11.dtd">
<svg xmlns="http://www.w3.org/2000/svg" version="1.1" width="512px" height="512px" style="shape-rendering:geometricPrecision; text-rendering:geometricPrecision; image-rendering:optimizeQuality; fill-rule:evenodd; clip-rule:evenodd" xmlns:xlink="http://www.w3.org/1999/xlink">
<g><path style="opacity:1" fill="#fe9346" d="M 124.5,49.5 C 123.689,146.164 123.355,242.831 123.5,339.5C 114.167,345.167 104.833,350.833 95.5,356.5C 84.2783,363.029 73.1116,369.696 62,376.5C 61.3333,279.833 61.3333,183.167 62,86.5C 82.504,73.4711 103.337,61.1378 124.5,49.5 Z"/></g>
<g><path style="opacity:1" fill="#fe6b00" d="M 124.5,49.5 C 218.834,49.3333 313.167,49.5 407.5,50C 415.286,52.7885 419.786,58.2885 421,66.5C 421.5,82.1631 421.667,97.8298 421.5,113.5C 421.5,188.833 421.5,264.167 421.5,339.5C 322.167,339.5 222.833,339.5 123.5,339.5C 123.355,242.831 123.689,146.164 124.5,49.5 Z"/></g>
<g><path style="opacity:1" fill="#fffefd" d="M 229.5,113.5 C 263.833,113.5 298.167,113.5 332.5,113.5C 332.5,123.167 332.5,132.833 332.5,142.5C 311.5,142.5 290.5,142.5 269.5,142.5C 269.5,155.167 269.5,167.833 269.5,180.5C 287.167,180.5 304.833,180.5 322.5,180.5C 322.5,190.167 322.5,199.833 322.5,209.5C 304.833,209.5 287.167,209.5 269.5,209.5C 269.5,231.167 269.5,252.833 269.5,274.5C 256.167,274.5 242.833,274.5 229.5,274.5C 229.5,220.833 229.5,167.167 229.5,113.5 Z"/></g>
<g><path style="opacity:1" fill="#923b00" d="M 421.5,113.5 C 430.833,113.5 440.167,113.5 449.5,113.5C 449.5,229.5 449.5,345.5 449.5,461.5C 335.833,461.667 222.166,461.5 108.5,461C 102.18,458.014 98.0133,453.181 96,446.5C 95.5,416.502 95.3334,386.502 95.5,356.5C 104.833,350.833 114.167,345.167 123.5,339.5C 222.833,339.5 322.167,339.5 421.5,339.5C 421.5,264.167 421.5,188.833 421.5,113.5 Z"/></g>
<g><path style="opacity:1" fill="#fcf9f7" d="M 209.5,367.5 C 218.547,366.347 226.881,368.18 234.5,373C 241.689,383.865 239.356,391.865 227.5,397C 239.902,399.968 243.735,407.468 239,419.5C 235.242,425.635 229.742,429.135 222.5,430C 212.078,431.86 203.244,429.027 196,421.5C 194.451,418.688 193.618,415.688 193.5,412.5C 198.214,412.173 202.88,412.507 207.5,413.5C 208.301,416.133 209.967,417.967 212.5,419C 223.842,420.503 227.509,416.003 223.5,405.5C 222.335,404.416 221.002,403.583 219.5,403C 216.183,402.502 212.85,402.335 209.5,402.5C 209.5,399.167 209.5,395.833 209.5,392.5C 214.765,393.429 219.265,392.096 223,388.5C 224.113,379.459 220.28,376.459 211.5,379.5C 209.585,381.071 208.585,383.071 208.5,385.5C 203.833,385.5 199.167,385.5 194.5,385.5C 195.853,376.479 200.853,370.479 209.5,367.5 Z"/></g>
<g><path style="opacity:1" fill="#fdfbfa" d="M 264.5,367.5 C 271.821,366.859 278.821,368.025 285.5,371C 290.332,374.155 292.998,378.655 293.5,384.5C 288.833,384.5 284.167,384.5 279.5,384.5C 279.548,381.708 278.215,379.875 275.5,379C 263.975,377.805 259.808,382.971 263,394.5C 270.721,388.414 278.888,387.914 287.5,393C 294.139,399.456 296.306,407.29 294,416.5C 289.102,426.704 280.935,431.37 269.5,430.5C 258.848,430.329 251.681,425.329 248,415.5C 247.333,404.833 247.333,394.167 248,383.5C 250.786,375.211 256.286,369.878 264.5,367.5 Z"/></g>
<g><path style="opacity:1" fill="#fdfcfb" d="M 318.5,367.5 C 328.391,366.18 337.224,368.513 345,374.5C 346.861,376.888 348.194,379.554 349,382.5C 349.912,394.225 349.579,405.892 348,417.5C 345.221,425.151 339.721,429.317 331.5,430C 319.574,432.585 310.408,428.751 304,418.5C 302.443,406.549 302.109,394.549 303,382.5C 306.081,375.251 311.247,370.251 318.5,367.5 Z"/></g>
<g><path style="opacity:1" fill="#943e04" d="M 322.5,378.5 C 327.635,377.426 331.468,379.093 334,383.5C 334.667,393.833 334.667,404.167 334,414.5C 328.715,421.156 323.382,421.156 318,414.5C 317.333,404.167 317.333,393.833 318,383.5C 319.025,381.313 320.525,379.646 322.5,378.5 Z"/></g>
<g><path style="opacity:1" fill="#954008" d="M 267.5,400.5 C 278.115,399.351 281.949,404.018 279,414.5C 274.76,420.296 269.76,420.963 264,416.5C 262.566,412.594 262.233,408.594 263,404.5C 264.397,402.93 265.897,401.596 267.5,400.5 Z"/></g>
</svg>
