<?xml version="1.0" encoding="UTF-8"?>
<!DOCTYPE svg PUBLIC "-//W3C//DTD SVG 1.1//EN" "http://www.w3.org/Graphics/SVG/1.1/DTD/svg11.dtd">
<svg xmlns="http://www.w3.org/2000/svg" version="1.1" width="346px" height="338px" style="shape-rendering:geometricPrecision; text-rendering:geometricPrecision; image-rendering:optimizeQuality; fill-rule:evenodd; clip-rule:evenodd" xmlns:xlink="http://www.w3.org/1999/xlink">
<g><path style="opacity:0.596" fill="#6c6f71" d="M 160.5,1.5 C 158.393,2.46822 156.059,2.80155 153.5,2.5C 155.556,1.78389 157.723,1.11722 160,0.5C 160.399,0.728446 160.565,1.06178 160.5,1.5 Z"/></g>
<g><path style="opacity:1" fill="#fafbfb" d="M 160.5,1.5 C 168.5,1.5 176.5,1.5 184.5,1.5C 186.948,2.47307 189.615,2.8064 192.5,2.5C 230.674,6.59254 263.341,21.9259 290.5,48.5C 290.833,49.5 291.5,50.1667 292.5,50.5C 293.5,50.8333 294.167,51.5 294.5,52.5C 294.833,53.5 295.5,54.1667 296.5,54.5C 331.737,91.9918 347.237,136.658 343,188.5C 335.865,246.712 307.032,291.212 256.5,322C 247.679,326.241 238.679,330.241 229.5,334C 226.167,334.667 222.833,334.667 219.5,334C 216.898,333.065 215.398,331.232 215,328.5C 215.026,308.817 214.86,289.151 214.5,269.5C 214.784,267.585 214.451,265.919 213.5,264.5C 211.558,258.109 208.225,252.609 203.5,248C 217.319,246.172 230.653,242.506 243.5,237C 265.699,224.803 278.032,205.97 280.5,180.5C 281.461,178.735 281.795,176.735 281.5,174.5C 283.968,152.67 277.968,133.67 263.5,117.5C 268.97,102.726 268.636,88.0591 262.5,73.5C 257.142,72.3042 251.809,72.4709 246.5,74C 235.524,78.7039 224.857,83.8706 214.5,89.5C 186.843,82.8339 159.176,82.8339 131.5,89.5C 122.691,84.7232 113.691,80.2232 104.5,76C 97.7799,72.9654 90.7799,71.9654 83.5,73C 80.4017,80.8418 78.735,89.0085 78.5,97.5C 79.2036,104.581 80.0369,111.581 81,118.5C 66.9623,135.637 61.6289,155.304 65,177.5C 67.4922,207.38 82.3255,228.214 109.5,240C 120.073,243.312 130.74,245.979 141.5,248C 135.69,254.622 132.023,262.288 130.5,271C 117.644,277.255 104.978,276.921 92.5,270C 84.5983,261.521 76.9316,252.855 69.5,244C 66.4734,242.487 63.4734,240.987 60.5,239.5C 56.8333,238.167 53.1667,238.167 49.5,239.5C 48.7109,239.783 48.0442,240.283 47.5,241C 47.1321,242.473 47.6321,243.973 49,245.5C 54.5274,248.022 59.1941,251.689 63,256.5C 68.3647,263.893 72.698,271.893 76,280.5C 82.2206,288.53 90.3873,293.364 100.5,295C 110.514,295.59 120.514,295.424 130.5,294.5C 130.667,306.171 130.5,317.838 130,329.5C 129.215,331.286 128.049,332.786 126.5,334C 119.821,335.151 113.488,334.151 107.5,331C 54.3323,307.08 20.6656,267.58 6.5,212.5C 6.76781,210.901 6.43448,209.568 5.5,208.5C 4.69929,206.958 4.36596,205.292 4.5,203.5C 4.76781,201.901 4.43448,200.568 3.5,199.5C 2.79287,196.214 2.45954,192.881 2.5,189.5C 2.81277,185.958 2.47944,182.625 1.5,179.5C 1.5,173.833 1.5,168.167 1.5,162.5C 2.47307,160.052 2.8064,157.385 2.5,154.5C 2.50795,151.455 2.84128,148.455 3.5,145.5C 4.43448,144.432 4.76781,143.099 4.5,141.5C 15.4745,85.2124 46.4745,44.2124 97.5,18.5C 99.0269,18.573 100.027,17.9063 100.5,16.5C 102.421,15.6373 104.421,14.9707 106.5,14.5C 108.403,14.2041 110.07,13.5375 111.5,12.5C 120.685,8.21793 130.352,5.55126 140.5,4.5C 142.099,4.76781 143.432,4.43448 144.5,3.5C 147.43,2.70105 150.43,2.36772 153.5,2.5C 156.059,2.80155 158.393,2.46822 160.5,1.5 Z"/></g>
<g><path style="opacity:0.29" fill="#575a5b" d="M 192.5,2.5 C 189.615,2.8064 186.948,2.47307 184.5,1.5C 184.435,1.06178 184.601,0.728446 185,0.5C 187.607,1.12329 190.107,1.78996 192.5,2.5 Z"/></g>
<g><path style="opacity:0.627" fill="#6c6e6f" d="M 144.5,3.5 C 143.432,4.43448 142.099,4.76781 140.5,4.5C 141.531,3.75147 142.698,3.0848 144,2.5C 144.399,2.72845 144.565,3.06178 144.5,3.5 Z"/></g>
<g><path style="opacity:0.576" fill="#606264" d="M 111.5,12.5 C 110.07,13.5375 108.403,14.2041 106.5,14.5C 107.635,12.7868 109.302,12.1201 111.5,12.5 Z"/></g>
<g><path style="opacity:0.525" fill="#4c4e4f" d="M 100.5,16.5 C 100.027,17.9063 99.0269,18.573 97.5,18.5C 97.9731,17.0937 98.9731,16.427 100.5,16.5 Z"/></g>
<g><path style="opacity:0.004" fill="#343537" d="M 290.5,48.5 C 291.833,48.5 292.5,49.1667 292.5,50.5C 291.5,50.1667 290.833,49.5 290.5,48.5 Z"/></g>
<g><path style="opacity:0.004" fill="#343536" d="M 294.5,52.5 C 295.833,52.5 296.5,53.1667 296.5,54.5C 295.5,54.1667 294.833,53.5 294.5,52.5 Z"/></g>
<g><path style="opacity:0.573" fill="#616365" d="M 4.5,141.5 C 4.76781,143.099 4.43448,144.432 3.5,145.5C 3.06178,145.565 2.72845,145.399 2.5,145C 3.0848,143.698 3.75147,142.531 4.5,141.5 Z"/></g>
<g><path style="opacity:0.471" fill="#515354" d="M 2.5,154.5 C 2.8064,157.385 2.47307,160.052 1.5,162.5C 0.956913,162.44 0.62358,162.107 0.5,161.5C 1.06706,159.018 1.73373,156.684 2.5,154.5 Z"/></g>
<g><path style="opacity:0.294" fill="#515455" d="M 281.5,174.5 C 281.795,176.735 281.461,178.735 280.5,180.5C 280.062,180.565 279.728,180.399 279.5,180C 280.109,178.052 280.776,176.218 281.5,174.5 Z"/></g>
<g><path style="opacity:0.451" fill="#565759" d="M 1.5,179.5 C 2.47944,182.625 2.81277,185.958 2.5,189.5C 0.565626,186.394 0.232293,183.061 1.5,179.5 Z"/></g>
<g><path style="opacity:0.475" fill="#536060" d="M 3.5,199.5 C 4.43448,200.568 4.76781,201.901 4.5,203.5C 3.75147,202.469 3.0848,201.302 2.5,200C 2.72845,199.601 3.06178,199.435 3.5,199.5 Z"/></g>
<g><path style="opacity:0.506" fill="#687273" d="M 5.5,208.5 C 6.43448,209.568 6.76781,210.901 6.5,212.5C 4.89059,211.335 4.55725,210.001 5.5,208.5 Z"/></g>
<g><path style="opacity:0.263" fill="#6e7072" d="M 49.5,239.5 C 53.1667,238.167 56.8333,238.167 60.5,239.5C 57.0444,239.695 53.3778,239.695 49.5,239.5 Z"/></g>
<g><path style="opacity:0.51" fill="#606162" d="M 213.5,264.5 C 214.451,265.919 214.784,267.585 214.5,269.5C 213.072,267.926 212.739,266.259 213.5,264.5 Z"/></g>
</svg>
