<?xml version="1.0" encoding="UTF-8"?>
<!DOCTYPE svg PUBLIC "-//W3C//DTD SVG 1.1//EN" "http://www.w3.org/Graphics/SVG/1.1/DTD/svg11.dtd">
<svg xmlns="http://www.w3.org/2000/svg" version="1.1" width="144px" height="135px" style="shape-rendering:geometricPrecision; text-rendering:geometricPrecision; image-rendering:optimizeQuality; fill-rule:evenodd; clip-rule:evenodd" xmlns:xlink="http://www.w3.org/1999/xlink">
<g><path style="opacity:0.953" fill="#a18df0" d="M 74.5,21.5 C 74.6662,15.4908 74.4995,9.49076 74,3.5C 73.0197,4.98138 71.853,6.31471 70.5,7.5C 71.0549,5.60682 70.3882,3.94015 68.5,2.5C 70.54,-0.133923 72.7067,-0.133923 75,2.5C 75.82,9.01374 75.6533,15.3471 74.5,21.5 Z"/></g>
<g><path style="opacity:0.868" fill="#a18dfa" d="M 68.5,2.5 C 70.3882,3.94015 71.0549,5.60682 70.5,7.5C 71.853,6.31471 73.0197,4.98138 74,3.5C 74.4995,9.49076 74.6662,15.4908 74.5,21.5C 72.4662,24.1057 70.2995,24.1057 68,21.5C 67.18,14.9863 67.3467,8.65293 68.5,2.5 Z"/></g>
<g><path style="opacity:0.964" fill="#8576eb" d="M 37.5,15.5 C 36.5041,15.5858 35.6708,15.2524 35,14.5C 34.4169,16.0016 33.5836,17.3349 32.5,18.5C 31.3507,16.0752 30.684,16.0752 30.5,18.5C 27.9327,16.0388 27.9327,13.5388 30.5,11C 34.1055,10.4717 36.4388,11.9717 37.5,15.5 Z"/></g>
<g><path style="opacity:0.999" fill="#837ff9" d="M 37.5,15.5 C 39.4203,18.3388 41.0869,21.3388 42.5,24.5C 41.3172,24.1558 40.4839,24.8225 40,26.5C 39.5814,25.3279 38.9147,24.3279 38,23.5C 37.8784,25.437 37.045,26.7703 35.5,27.5C 33.5797,24.6612 31.9131,21.6612 30.5,18.5C 30.684,16.0752 31.3507,16.0752 32.5,18.5C 33.5836,17.3349 34.4169,16.0016 35,14.5C 35.6708,15.2524 36.5041,15.5858 37.5,15.5 Z"/></g>
<g><path style="opacity:0.951" fill="#ac90f2" d="M 108.5,25.5 C 105.656,24.4489 102.656,24.4489 99.5,25.5C 101.988,21.1941 104.488,16.8608 107,12.5C 110.582,9.41827 113.082,10.0849 114.5,14.5C 112.743,18.3517 110.743,22.0184 108.5,25.5 Z"/></g>
<g><path style="opacity:0.776" fill="#a290ed" d="M 108.5,25.5 C 107.674,30.8546 104.84,32.5212 100,30.5C 99.5065,28.8659 99.3398,27.1992 99.5,25.5C 102.656,24.4489 105.656,24.4489 108.5,25.5 Z"/></g>
<g><path style="opacity:0.861" fill="#7b7aec" d="M 42.5,24.5 C 45.0371,26.6319 45.0371,28.7985 42.5,31C 38.8336,32.3144 36.5002,31.1477 35.5,27.5C 37.045,26.7703 37.8784,25.437 38,23.5C 38.9147,24.3279 39.5814,25.3279 40,26.5C 40.4839,24.8225 41.3172,24.1558 42.5,24.5 Z"/></g>
<g><path style="opacity:0.5" fill="#8578f2" d="M 81.5,32.5 C 79.081,34.8624 76.081,35.8624 72.5,35.5C 70.396,35.7989 68.396,35.4656 66.5,34.5C 67.1272,33.5832 67.4606,32.5832 67.5,31.5C 72.2308,30.3392 76.8975,30.6725 81.5,32.5 Z"/></g>
<g><path style="opacity:0.416" fill="#7f7ff6" d="M 67.5,31.5 C 67.4606,32.5832 67.1272,33.5832 66.5,34.5C 68.396,35.4656 70.396,35.7989 72.5,35.5C 72.4431,36.609 72.1098,37.609 71.5,38.5C 66.9903,38.271 62.6569,38.9376 58.5,40.5C 57.7023,38.0337 56.369,36.0337 54.5,34.5C 58.4742,32.4249 62.8075,31.4249 67.5,31.5 Z"/></g>
<g><path style="opacity:0.885" fill="#9685fb" d="M 87.5,33.5 C 91.0826,34.7968 94.4159,36.4634 97.5,38.5C 97.4257,40.4109 96.4257,41.5776 94.5,42C 92.1902,42.4966 89.8568,42.6633 87.5,42.5C 87.5,42.1667 87.5,41.8333 87.5,41.5C 87.2137,39.7231 86.5471,38.0564 85.5,36.5C 85.9424,35.2613 86.6091,34.2613 87.5,33.5 Z"/></g>
<g><path style="opacity:0.945" fill="#9087f0" d="M 81.5,32.5 C 83.5648,32.5172 85.5648,32.8505 87.5,33.5C 86.6091,34.2613 85.9424,35.2613 85.5,36.5C 86.5471,38.0564 87.2137,39.7231 87.5,41.5C 86.325,41.719 85.325,41.3857 84.5,40.5C 83.4619,33.0388 81.4619,32.7054 78.5,39.5C 76.3926,38.5318 74.0593,38.1984 71.5,38.5C 72.1098,37.609 72.4431,36.609 72.5,35.5C 76.081,35.8624 79.081,34.8624 81.5,32.5 Z"/></g>
<g><path style="opacity:0.316" fill="#797bf7" d="M 54.5,34.5 C 56.369,36.0337 57.7023,38.0337 58.5,40.5C 57.1667,40.8333 55.8333,41.1667 54.5,41.5C 54.189,40.5222 53.5223,39.8555 52.5,39.5C 50.1891,40.961 47.8558,41.2943 45.5,40.5C 47.9248,39.3507 47.9248,38.684 45.5,38.5C 48.0884,36.4082 51.0884,35.0749 54.5,34.5 Z"/></g>
<g><path style="opacity:0.879" fill="#8783fa" d="M 87.5,41.5 C 87.5,41.8333 87.5,42.1667 87.5,42.5C 85.5168,42.1568 84.1834,42.8235 83.5,44.5C 82.1667,45.1667 80.8333,45.8333 79.5,46.5C 78.335,43.4098 76.0017,42.0764 72.5,42.5C 73.911,40.461 75.911,39.461 78.5,39.5C 81.4619,32.7054 83.4619,33.0388 84.5,40.5C 85.325,41.3857 86.325,41.719 87.5,41.5 Z"/></g>
<g><path style="opacity:0.998" fill="#928af7" d="M 97.5,38.5 C 102.401,40.7328 106.401,44.0661 109.5,48.5C 108.761,48.369 108.094,48.5357 107.5,49C 108.576,50.7261 108.743,52.5594 108,54.5C 107.5,53.3333 106.667,52.5 105.5,52C 105.833,51.6667 106.167,51.3333 106.5,51C 105.552,50.5172 104.552,50.3505 103.5,50.5C 103.48,48.857 104.147,47.5237 105.5,46.5C 105.192,45.6919 104.692,45.0253 104,44.5C 102.981,45.6872 101.814,46.6872 100.5,47.5C 98.677,46.2528 96.677,45.5861 94.5,45.5C 94.3893,44.8826 94.056,44.3826 93.5,44C 90.0764,43.2534 86.7431,43.42 83.5,44.5C 84.1834,42.8235 85.5168,42.1568 87.5,42.5C 89.8568,42.6633 92.1902,42.4966 94.5,42C 96.4257,41.5776 97.4257,40.4109 97.5,38.5 Z"/></g>
<g><path style="opacity:0.987" fill="#a08fef" d="M 143.5,42.5 C 143.5,43.1667 143.5,43.8333 143.5,44.5C 140.709,46.7349 137.709,48.7349 134.5,50.5C 132.74,46.1761 130.574,45.8428 128,49.5C 127.292,48.6195 126.458,47.9528 125.5,47.5C 129.917,44.2055 134.75,41.5388 140,39.5C 141.599,40.0707 142.766,41.0707 143.5,42.5 Z"/></g>
<g><path style="opacity:0.371" fill="#6975fa" d="M 45.5,38.5 C 47.9248,38.684 47.9248,39.3507 45.5,40.5C 47.8558,41.2943 50.1891,40.961 52.5,39.5C 53.5223,39.8555 54.189,40.5222 54.5,41.5C 53.8333,41.5 53.5,41.8333 53.5,42.5C 51.3763,43.0312 49.8763,44.3645 49,46.5C 48.51,47.7932 48.3433,49.1266 48.5,50.5C 46.8828,51.038 45.2161,51.3713 43.5,51.5C 42.7703,49.955 41.437,49.1216 39.5,49C 40.3567,48.3109 41.0233,47.4776 41.5,46.5C 40.0065,45.8589 39.0065,44.8589 38.5,43.5C 40.5313,41.4776 42.8646,39.8109 45.5,38.5 Z"/></g>
<g><path style="opacity:0.242" fill="#6c77fa" d="M 53.5,42.5 C 54.1667,42.5 54.8333,42.5 55.5,42.5C 56.968,43.7791 57.6347,45.4458 57.5,47.5C 58.8734,47.3433 60.2068,47.51 61.5,48C 60.5842,48.2784 59.9175,48.7784 59.5,49.5C 55.7852,49.423 52.1185,49.7564 48.5,50.5C 48.3433,49.1266 48.51,47.7932 49,46.5C 49.8763,44.3645 51.3763,43.0312 53.5,42.5 Z"/></g>
<g><path style="opacity:1" fill="#596bf1" d="M 9.5,42.5 C 8.79105,43.404 7.79105,43.7373 6.5,43.5C 6.42082,44.9305 6.75415,46.2638 7.5,47.5C 7.04311,48.2975 6.37644,48.6309 5.5,48.5C 3.11843,47.6493 1.11843,46.316 -0.5,44.5C -0.5,43.5 -0.5,42.5 -0.5,41.5C 3.06528,38.8845 6.39861,39.2178 9.5,42.5 Z"/></g>
<g><path style="opacity:0.825" fill="#807efe" d="M 72.5,42.5 C 76.0017,42.0764 78.335,43.4098 79.5,46.5C 78.8826,46.6107 78.3826,46.944 78,47.5C 76.951,45.8934 75.451,45.2267 73.5,45.5C 73.0077,49.2896 73.841,49.9563 76,47.5C 76.5743,49.492 77.741,50.992 79.5,52C 78.9341,52.9947 78.2674,53.828 77.5,54.5C 76.1561,52.9652 74.4894,51.6319 72.5,50.5C 71.7255,48.6036 70.7255,46.937 69.5,45.5C 69.8333,44.8333 70.1667,44.1667 70.5,43.5C 71.1667,43.1667 71.8333,42.8333 72.5,42.5 Z"/></g>
<g><path style="opacity:0.822" fill="#727ffd" d="M 69.5,45.5 C 70.7255,46.937 71.7255,48.6036 72.5,50.5C 74.4894,51.6319 76.1561,52.9652 77.5,54.5C 74.8333,54.8333 74.8333,55.1667 77.5,55.5C 76.4324,56.4345 75.099,56.7678 73.5,56.5C 72.5,56.5 71.5,56.5 70.5,56.5C 70.6495,55.448 70.4828,54.448 70,53.5C 68.6329,54.5243 67.7995,54.0243 67.5,52C 68.7585,49.8151 68.7585,47.6484 67.5,45.5C 67.9698,44.537 68.6365,44.537 69.5,45.5 Z"/></g>
<g><path style="opacity:0.734" fill="#7e7ff5" d="M 79.5,46.5 C 79.5,47.1667 79.8333,47.5 80.5,47.5C 80.5858,48.4959 80.2524,49.3292 79.5,50C 82.0193,50.5864 84.0193,51.7531 85.5,53.5C 85.0825,54.2216 84.4158,54.7216 83.5,55C 84.056,55.3826 84.3893,55.8826 84.5,56.5C 82.2362,55.7814 79.9029,55.448 77.5,55.5C 74.8333,55.1667 74.8333,54.8333 77.5,54.5C 78.2674,53.828 78.9341,52.9947 79.5,52C 77.741,50.992 76.5743,49.492 76,47.5C 73.841,49.9563 73.0077,49.2896 73.5,45.5C 75.451,45.2267 76.951,45.8934 78,47.5C 78.3826,46.944 78.8826,46.6107 79.5,46.5 Z"/></g>
<g><path style="opacity:0.959" fill="#8084fe" d="M 80.5,47.5 C 81.1667,47.5 81.8333,47.5 82.5,47.5C 84.5914,47.3184 86.5914,47.6518 88.5,48.5C 90.0398,50.4372 92.0398,51.6039 94.5,52C 93.944,52.3826 93.6107,52.8826 93.5,53.5C 92.8333,53.5 92.1667,53.5 91.5,53.5C 89.5,53.5 87.5,53.5 85.5,53.5C 84.0193,51.7531 82.0193,50.5864 79.5,50C 80.2524,49.3292 80.5858,48.4959 80.5,47.5 Z"/></g>
<g><path style="opacity:1" fill="#576ef1" d="M 9.5,42.5 C 12.9667,44.0672 16.3001,45.9005 19.5,48C 22.1667,50 22.1667,52 19.5,54C 14.3516,53.5998 9.68491,51.7664 5.5,48.5C 6.37644,48.6309 7.04311,48.2975 7.5,47.5C 6.75415,46.2638 6.42082,44.9305 6.5,43.5C 7.79105,43.7373 8.79105,43.404 9.5,42.5 Z"/></g>
<g><path style="opacity:0.936" fill="#727df4" d="M 55.5,42.5 C 60.5275,42.5029 65.5275,42.8363 70.5,43.5C 70.1667,44.1667 69.8333,44.8333 69.5,45.5C 68.6365,44.537 67.9698,44.537 67.5,45.5C 68.7585,47.6484 68.7585,49.8151 67.5,52C 67.7995,54.0243 68.6329,54.5243 70,53.5C 70.4828,54.448 70.6495,55.448 70.5,56.5C 71.5,56.5 72.5,56.5 73.5,56.5C 72.0697,57.5375 70.403,58.2041 68.5,58.5C 65.8432,55.1682 62.5098,54.1682 58.5,55.5C 59.8098,53.8523 61.1431,52.1856 62.5,50.5C 61.675,49.6143 60.675,49.281 59.5,49.5C 59.9175,48.7784 60.5842,48.2784 61.5,48C 60.2068,47.51 58.8734,47.3433 57.5,47.5C 57.6347,45.4458 56.968,43.7791 55.5,42.5 Z"/></g>
<g><path style="opacity:0.956" fill="#9889f6" d="M 134.5,50.5 C 132.364,51.4026 130.364,52.5693 128.5,54C 125.132,55.2052 122.798,54.2052 121.5,51C 122.072,48.9264 123.405,47.7598 125.5,47.5C 126.458,47.9528 127.292,48.6195 128,49.5C 130.574,45.8428 132.74,46.1761 134.5,50.5 Z"/></g>
<g><path style="opacity:0.987" fill="#8a86fc" d="M 109.5,48.5 C 111.633,50.0905 113.299,52.0905 114.5,54.5C 111.253,55.2515 107.919,55.7515 104.5,56C 103.402,56.7697 103.402,57.603 104.5,58.5C 101.66,57.7589 99.66,56.0922 98.5,53.5C 96.8333,53.5 95.1667,53.5 93.5,53.5C 93.6107,52.8826 93.944,52.3826 94.5,52C 92.0398,51.6039 90.0398,50.4372 88.5,48.5C 86.5914,47.6518 84.5914,47.3184 82.5,47.5C 86.2949,46.3833 90.2949,45.7167 94.5,45.5C 96.677,45.5861 98.677,46.2528 100.5,47.5C 101.814,46.6872 102.981,45.6872 104,44.5C 104.692,45.0253 105.192,45.6919 105.5,46.5C 104.147,47.5237 103.48,48.857 103.5,50.5C 104.552,50.3505 105.552,50.5172 106.5,51C 106.167,51.3333 105.833,51.6667 105.5,52C 106.667,52.5 107.5,53.3333 108,54.5C 108.743,52.5594 108.576,50.7261 107.5,49C 108.094,48.5357 108.761,48.369 109.5,48.5 Z"/></g>
<g><path style="opacity:0.067" fill="#6d73ee" d="M 85.5,53.5 C 87.5,53.5 89.5,53.5 91.5,53.5C 93.0764,54.1429 94.4097,55.1429 95.5,56.5C 93.0532,56.615 91.0532,57.615 89.5,59.5C 87.5659,58.8897 85.8993,57.8897 84.5,56.5C 84.3893,55.8826 84.056,55.3826 83.5,55C 84.4158,54.7216 85.0825,54.2216 85.5,53.5 Z"/></g>
<g><path style="opacity:0.62" fill="#5572ed" d="M 38.5,43.5 C 39.0065,44.8589 40.0065,45.8589 41.5,46.5C 41.0233,47.4776 40.3567,48.3109 39.5,49C 41.437,49.1216 42.7703,49.955 43.5,51.5C 40.2382,53.4203 37.2382,55.7537 34.5,58.5C 34.0919,57.3569 33.4252,56.3569 32.5,55.5C 31.0562,57.6079 30.3896,59.9412 30.5,62.5C 29.1779,62.67 28.0113,62.3366 27,61.5C 26.5831,62.756 25.7498,63.4226 24.5,63.5C 27.1871,55.4744 31.8538,48.8077 38.5,43.5 Z"/></g>
<g><path style="opacity:0.727" fill="#697af8" d="M 68.5,58.5 C 65.8695,60.1526 63.2028,61.8193 60.5,63.5C 58.8564,61.5193 57.1897,59.5193 55.5,57.5C 56.5,56.8333 57.5,56.1667 58.5,55.5C 62.5098,54.1682 65.8432,55.1682 68.5,58.5 Z"/></g>
<g><path style="opacity:0.968" fill="#7f7af3" d="M 114.5,54.5 C 117.29,58.4156 119.29,62.749 120.5,67.5C 119.504,67.4142 118.671,67.7476 118,68.5C 116.865,65.2927 114.865,63.9594 112,64.5C 112.38,66.3953 112.547,68.062 112.5,69.5C 112.833,70.1667 113.167,70.8333 113.5,71.5C 112.5,71.5 111.5,71.5 110.5,71.5C 110.665,68.4816 110.498,65.4816 110,62.5C 109.303,60.4156 108.136,58.7489 106.5,57.5C 106.565,57.0618 106.399,56.7284 106,56.5C 105.722,57.4158 105.222,58.0825 104.5,58.5C 103.402,57.603 103.402,56.7697 104.5,56C 107.919,55.7515 111.253,55.2515 114.5,54.5 Z"/></g>
<g><path style="opacity:0.964" fill="#6175fa" d="M 55.5,57.5 C 57.1897,59.5193 58.8564,61.5193 60.5,63.5C 60.0248,65.7837 59.0248,67.7837 57.5,69.5C 56.6236,69.6309 55.9569,69.2975 55.5,68.5C 56.9501,67.1502 57.6168,65.4835 57.5,63.5C 54.4752,63.8769 51.4752,64.0435 48.5,64C 49.2524,63.3292 49.5858,62.4959 49.5,61.5C 51.5,60.1667 53.5,58.8333 55.5,57.5 Z"/></g>
<g><path style="opacity:0.039" fill="#5852d5" d="M 95.5,56.5 C 96.391,57.1098 97.391,57.4431 98.5,57.5C 98.5,58.1667 98.8333,58.5 99.5,58.5C 99.4226,59.7498 98.756,60.5831 97.5,61C 100.07,62.3493 100.07,63.516 97.5,64.5C 94.2957,63.6167 91.6291,61.9501 89.5,59.5C 91.0532,57.615 93.0532,56.615 95.5,56.5 Z"/></g>
<g><path style="opacity:0.186" fill="#6d74e5" d="M 98.5,53.5 C 99.66,56.0922 101.66,57.7589 104.5,58.5C 105.222,58.0825 105.722,57.4158 106,56.5C 106.399,56.7284 106.565,57.0618 106.5,57.5C 106.656,60.0661 106.322,62.5661 105.5,65C 106.544,66.1739 107.544,67.3406 108.5,68.5C 106.859,69.147 105.526,70.147 104.5,71.5C 104.539,70.2438 104.039,69.2438 103,68.5C 101.301,69.4061 99.4672,69.7394 97.5,69.5C 98.0715,67.64 98.0715,65.9733 97.5,64.5C 100.07,63.516 100.07,62.3493 97.5,61C 98.756,60.5831 99.4226,59.7498 99.5,58.5C 98.8333,58.5 98.5,58.1667 98.5,57.5C 98.5,56.1667 98.5,54.8333 98.5,53.5 Z"/></g>
<g><path style="opacity:0.84" fill="#5076f2" d="M 49.5,61.5 C 49.5858,62.4959 49.2524,63.3292 48.5,64C 51.4752,64.0435 54.4752,63.8769 57.5,63.5C 57.6168,65.4835 56.9501,67.1502 55.5,68.5C 55.9569,69.2975 56.6236,69.6309 57.5,69.5C 57.0679,70.7095 56.4013,71.7095 55.5,72.5C 52.8008,69.6126 50.4675,69.9459 48.5,73.5C 47.4373,69.5699 46.4373,69.5699 45.5,73.5C 43.9468,71.615 41.9468,70.615 39.5,70.5C 42.2109,66.7881 45.5442,63.7881 49.5,61.5 Z"/></g>
<g><path style="opacity:0.88" fill="#8080fa" d="M 120.5,67.5 C 121.458,69.3024 122.125,71.3024 122.5,73.5C 119.431,71.6366 116.098,70.3032 112.5,69.5C 112.547,68.062 112.38,66.3953 112,64.5C 114.865,63.9594 116.865,65.2927 118,68.5C 118.671,67.7476 119.504,67.4142 120.5,67.5 Z"/></g>
<g><path style="opacity:0.743" fill="#4770fc" d="M 34.5,58.5 C 33.5592,60.0495 32.8925,61.7162 32.5,63.5C 30.8793,63.7869 29.8793,64.7869 29.5,66.5C 30.2483,68.4159 30.2483,70.4159 29.5,72.5C 27.7162,72.1075 26.0495,71.4408 24.5,70.5C 24.7947,68.2646 24.4614,66.2646 23.5,64.5C 23.5,63.8333 23.8333,63.5 24.5,63.5C 25.7498,63.4226 26.5831,62.756 27,61.5C 28.0113,62.3366 29.1779,62.67 30.5,62.5C 30.3896,59.9412 31.0562,57.6079 32.5,55.5C 33.4252,56.3569 34.0919,57.3569 34.5,58.5 Z"/></g>
<g><path style="opacity:0.875" fill="#767ffb" d="M 112.5,69.5 C 116.098,70.3032 119.431,71.6366 122.5,73.5C 122.5,77.8333 122.5,82.1667 122.5,86.5C 121.1,85.9002 120.1,84.9002 119.5,83.5C 119.593,78.3521 117.593,74.3521 113.5,71.5C 113.167,70.8333 112.833,70.1667 112.5,69.5 Z"/></g>
<g><path style="opacity:0.008" fill="#3c2cc7" d="M 108.5,68.5 C 108.932,69.7095 109.599,70.7095 110.5,71.5C 109.492,73.5439 108.492,75.5439 107.5,77.5C 106.248,75.9991 105.248,74.3325 104.5,72.5C 104.5,72.1667 104.5,71.8333 104.5,71.5C 105.526,70.147 106.859,69.147 108.5,68.5 Z"/></g>
<g><path style="opacity:0.137" fill="#6370ef" d="M 104.5,71.5 C 104.5,71.8333 104.5,72.1667 104.5,72.5C 102.802,77.2871 100.802,81.9538 98.5,86.5C 97.469,85.7515 96.3024,85.0848 95,84.5C 94.6667,84.8333 94.3333,85.1667 94,85.5C 93.5172,84.552 93.3505,83.552 93.5,82.5C 94.9893,78.2081 96.3226,73.8747 97.5,69.5C 99.4672,69.7394 101.301,69.4061 103,68.5C 104.039,69.2438 104.539,70.2438 104.5,71.5 Z"/></g>
<g><path style="opacity:0.558" fill="#6d70f0" d="M 110.5,71.5 C 111.5,71.5 112.5,71.5 113.5,71.5C 117.593,74.3521 119.593,78.3521 119.5,83.5C 119.895,86.5225 118.895,87.5225 116.5,86.5C 115.638,87.7658 114.971,89.0992 114.5,90.5C 113.833,90.8333 113.167,91.1667 112.5,91.5C 111.698,90.0484 111.198,88.3817 111,86.5C 110.617,87.056 110.117,87.3893 109.5,87.5C 107.879,87.2131 106.879,86.2131 106.5,84.5C 108.004,81.4944 107.337,80.8277 104.5,82.5C 105.752,80.9991 106.752,79.3325 107.5,77.5C 108.492,75.5439 109.492,73.5439 110.5,71.5 Z"/></g>
<g><path style="opacity:0.729" fill="#3c6efd" d="M 24.5,70.5 C 26.0495,71.4408 27.7162,72.1075 29.5,72.5C 30.3686,74.717 30.702,77.0504 30.5,79.5C 30.189,80.4778 29.5223,81.1445 28.5,81.5C 27.1585,79.9951 25.4918,79.3285 23.5,79.5C 23.5394,78.4168 23.8728,77.4168 24.5,76.5C 23.8333,75.5 23.1667,74.5 22.5,73.5C 23.6119,72.7348 24.2786,71.7348 24.5,70.5 Z"/></g>
<g><path style="opacity:0.179" fill="#4666fb" d="M 39.5,70.5 C 41.9468,70.615 43.9468,71.615 45.5,73.5C 45.5,73.8333 45.5,74.1667 45.5,74.5C 44.8333,74.5 44.5,74.8333 44.5,75.5C 43.1667,76.5 41.8333,77.5 40.5,78.5C 39.3403,77.3886 38.007,76.3886 36.5,75.5C 37.1272,74.5832 37.4606,73.5832 37.5,72.5C 37.8333,71.5 38.5,70.8333 39.5,70.5 Z"/></g>
<g><path style="opacity:0.147" fill="#385ae3" d="M 32.5,63.5 C 31.0628,68.203 31.2295,72.8696 33,77.5C 33.9959,75.3395 35.4959,73.6728 37.5,72.5C 37.4606,73.5832 37.1272,74.5832 36.5,75.5C 38.007,76.3886 39.3403,77.3886 40.5,78.5C 39.8763,80.754 38.543,82.4206 36.5,83.5C 35.8876,80.3027 33.8876,78.9694 30.5,79.5C 30.702,77.0504 30.3686,74.717 29.5,72.5C 30.2483,70.4159 30.2483,68.4159 29.5,66.5C 29.8793,64.7869 30.8793,63.7869 32.5,63.5 Z"/></g>
<g><path style="opacity:1" fill="#4c6efc" d="M 55.5,72.5 C 54.8333,73.8333 54.1667,75.1667 53.5,76.5C 51.0771,76.4236 49.2438,77.4236 48,79.5C 47.5,79.1667 47,78.8333 46.5,78.5C 47.7053,77.0052 47.7053,75.6719 46.5,74.5C 46.5,73.8333 46.1667,73.5 45.5,73.5C 46.4373,69.5699 47.4373,69.5699 48.5,73.5C 50.4675,69.9459 52.8008,69.6126 55.5,72.5 Z"/></g>
<g><path style="opacity:0.703" fill="#336af6" d="M 23.5,79.5 C 25.4918,79.3285 27.1585,79.9951 28.5,81.5C 29.5223,81.1445 30.189,80.4778 30.5,79.5C 33.8876,78.9694 35.8876,80.3027 36.5,83.5C 35.5946,84.9643 35.5946,86.2976 36.5,87.5C 35.2719,88.3065 34.2719,89.3065 33.5,90.5C 31.3692,89.3413 30.0359,87.5079 29.5,85C 26.8608,84.3471 24.5274,83.1804 22.5,81.5C 22.3284,80.5084 22.6618,79.8417 23.5,79.5 Z"/></g>
<g><path style="opacity:1" fill="#3b6be8" d="M 45.5,74.5 C 45.8333,74.5 46.1667,74.5 46.5,74.5C 47.7053,75.6719 47.7053,77.0052 46.5,78.5C 47,78.8333 47.5,79.1667 48,79.5C 49.2438,77.4236 51.0771,76.4236 53.5,76.5C 52.2032,80.0826 50.5366,83.4159 48.5,86.5C 48.0291,85.0992 47.3624,83.7658 46.5,82.5C 45.135,83.8069 43.8016,83.8069 42.5,82.5C 42.8782,80.079 43.5448,77.7457 44.5,75.5C 45.1667,75.5 45.5,75.1667 45.5,74.5 Z"/></g>
<g><path style="opacity:0.271" fill="#3c68f2" d="M 23.5,64.5 C 24.4614,66.2646 24.7947,68.2646 24.5,70.5C 24.2786,71.7348 23.6119,72.7348 22.5,73.5C 23.1667,74.5 23.8333,75.5 24.5,76.5C 23.8728,77.4168 23.5394,78.4168 23.5,79.5C 22.6618,79.8417 22.3284,80.5084 22.5,81.5C 21.2799,83.6633 21.2799,85.83 22.5,88C 22.1639,89.0299 21.4972,89.5299 20.5,89.5C 19.8876,80.9009 20.8876,72.5676 23.5,64.5 Z"/></g>
<g><path style="opacity:0.798" fill="#3563f9" d="M 22.5,81.5 C 24.5274,83.1804 26.8608,84.3471 29.5,85C 30.0359,87.5079 31.3692,89.3413 33.5,90.5C 34.8264,92.1951 34.4931,93.5284 32.5,94.5C 32.1667,94.5 31.8333,94.5 31.5,94.5C 31.6068,92.6214 31.1068,92.2881 30,93.5C 28.3117,92.6753 28.1451,91.6753 29.5,90.5C 28.1691,89.4078 27.3357,88.0745 27,86.5C 26.5658,89.9683 27.0658,93.3016 28.5,96.5C 27.2652,96.2786 26.2652,95.6119 25.5,94.5C 24.8503,96.1836 23.8503,97.5169 22.5,98.5C 21.3664,95.6296 20.6997,92.6296 20.5,89.5C 21.4972,89.5299 22.1639,89.0299 22.5,88C 21.2799,85.83 21.2799,83.6633 22.5,81.5 Z"/></g>
<g><path style="opacity:0.252" fill="#606efa" d="M 109.5,87.5 C 108.581,90.0892 106.914,92.0892 104.5,93.5C 102.662,90.5635 102.662,87.7302 104.5,85C 104.272,84.6012 103.938,84.4346 103.5,84.5C 103.833,83.8333 104.167,83.1667 104.5,82.5C 107.337,80.8277 108.004,81.4944 106.5,84.5C 106.879,86.2131 107.879,87.2131 109.5,87.5 Z"/></g>
<g><path style="opacity:0.967" fill="#677af8" d="M 119.5,83.5 C 120.1,84.9002 121.1,85.9002 122.5,86.5C 122.5,88.5 122.5,90.5 122.5,92.5C 120.61,92.2965 119.11,92.9632 118,94.5C 117.943,92.0898 116.776,90.7565 114.5,90.5C 114.971,89.0992 115.638,87.7658 116.5,86.5C 118.895,87.5225 119.895,86.5225 119.5,83.5 Z"/></g>
<g><path style="opacity:0.992" fill="#3768f1" d="M 42.5,82.5 C 43.8016,83.8069 45.135,83.8069 46.5,82.5C 47.3624,83.7658 48.0291,85.0992 48.5,86.5C 47.8876,90.45 46.8876,94.2834 45.5,98C 47.0632,99.736 48.7299,101.236 50.5,102.5C 49.5269,104.948 49.1936,107.615 49.5,110.5C 47.7697,109.974 46.4363,108.974 45.5,107.5C 47.5924,106.714 47.2591,105.714 44.5,104.5C 43.1861,105.313 42.0195,106.313 41,107.5C 39.8118,106.437 39.3118,105.103 39.5,103.5C 40.9778,103.762 42.3112,103.429 43.5,102.5C 42.9653,100.899 41.9653,100.399 40.5,101C 38.5313,102.5 37.198,104.333 36.5,106.5C 36.5,104.833 36.5,103.167 36.5,101.5C 37.0082,99.1578 38.0082,96.9912 39.5,95C 38.5868,93.5861 38.5868,92.0861 39.5,90.5C 39.9028,87.5145 40.9028,84.8478 42.5,82.5 Z"/></g>
<g><path style="opacity:0.034" fill="#494de8" d="M 93.5,82.5 C 93.3505,83.552 93.5172,84.552 94,85.5C 94.3333,85.1667 94.6667,84.8333 95,84.5C 96.3024,85.0848 97.469,85.7515 98.5,86.5C 98.1667,87.8333 97.8333,89.1667 97.5,90.5C 96.1667,90.8333 96.1667,91.1667 97.5,91.5C 96.6935,92.7281 95.6935,93.7281 94.5,94.5C 93.6255,92.31 91.9589,91.31 89.5,91.5C 90.5969,88.3135 91.9303,85.3135 93.5,82.5 Z"/></g>
<g><path style="opacity:0.917" fill="#5c72f2" d="M 114.5,90.5 C 116.776,90.7565 117.943,92.0898 118,94.5C 119.11,92.9632 120.61,92.2965 122.5,92.5C 120.902,99.0257 118.235,105.026 114.5,110.5C 113.821,108.186 112.488,107.853 110.5,109.5C 109.269,108.349 109.269,107.183 110.5,106C 109.906,105.536 109.239,105.369 108.5,105.5C 111.248,101.255 112.581,96.5885 112.5,91.5C 113.167,91.1667 113.833,90.8333 114.5,90.5 Z"/></g>
<g><path style="opacity:1" fill="#3a66f8" d="M 36.5,87.5 C 37.2719,88.6935 38.2719,89.6935 39.5,90.5C 38.5868,92.0861 38.5868,93.5861 39.5,95C 38.0082,96.9912 37.0082,99.1578 36.5,101.5C 35.4314,99.0313 34.0981,96.6979 32.5,94.5C 34.4931,93.5284 34.8264,92.1951 33.5,90.5C 34.2719,89.3065 35.2719,88.3065 36.5,87.5 Z"/></g>
<g><path style="opacity:0.141" fill="#506dee" d="M 103.5,84.5 C 103.938,84.4346 104.272,84.6012 104.5,85C 102.662,87.7302 102.662,90.5635 104.5,93.5C 102.761,96.2427 100.427,98.2427 97.5,99.5C 96.9717,98.2794 96.305,97.1127 95.5,96C 96.7119,94.8932 96.3786,94.3932 94.5,94.5C 95.6935,93.7281 96.6935,92.7281 97.5,91.5C 97.5,91.1667 97.5,90.8333 97.5,90.5C 99.8606,88.8061 101.861,86.8061 103.5,84.5 Z"/></g>
<g><path style="opacity:0.086" fill="#4666f6" d="M 89.5,91.5 C 91.9589,91.31 93.6255,92.31 94.5,94.5C 96.3786,94.3932 96.7119,94.8932 95.5,96C 96.305,97.1127 96.9717,98.2794 97.5,99.5C 97.1667,100.5 96.5,101.167 95.5,101.5C 93.549,101.773 92.049,101.107 91,99.5C 90.2825,100.451 89.4491,100.617 88.5,100C 89.614,98.4301 90.9474,97.0968 92.5,96C 90.9751,94.9914 89.3084,94.4914 87.5,94.5C 87.427,92.9731 88.0937,91.9731 89.5,91.5 Z"/></g>
<g><path style="opacity:0.081" fill="#3e59ec" d="M 87.5,94.5 C 89.3084,94.4914 90.9751,94.9914 92.5,96C 90.9474,97.0968 89.614,98.4301 88.5,100C 89.4491,100.617 90.2825,100.451 91,99.5C 92.049,101.107 93.549,101.773 95.5,101.5C 91.8811,104.65 87.8811,107.316 83.5,109.5C 83.762,108.022 83.4287,106.689 82.5,105.5C 80.8716,106.535 79.205,106.535 77.5,105.5C 81.5053,102.525 84.8386,98.8584 87.5,94.5 Z"/></g>
<g><path style="opacity:0.776" fill="#3866f7" d="M 28.5,96.5 C 28.4852,100.342 29.4852,104.176 31.5,108C 31.4753,109.876 30.8086,111.376 29.5,112.5C 26.6417,108.117 24.3084,103.45 22.5,98.5C 23.8503,97.5169 24.8503,96.1836 25.5,94.5C 26.2652,95.6119 27.2652,96.2786 28.5,96.5 Z"/></g>
<g><path style="opacity:0.87" fill="#3465fa" d="M 50.5,102.5 C 53.5229,104.533 56.5229,106.533 59.5,108.5C 60.4859,110.516 62.1526,111.849 64.5,112.5C 64,112.833 63.5,113.167 63,113.5C 59.3337,111.06 55.8337,111.06 52.5,113.5C 52.5,112.833 52.1667,112.5 51.5,112.5C 51.1583,111.662 50.4916,111.328 49.5,111.5C 49.5,111.167 49.5,110.833 49.5,110.5C 49.1936,107.615 49.5269,104.948 50.5,102.5 Z"/></g>
<g><path style="opacity:0.901" fill="#3767fd" d="M 45.5,107.5 C 45.1667,107.5 44.8333,107.5 44.5,107.5C 42.6614,108.508 41.3281,110.008 40.5,112C 38.6476,112.773 37.3143,112.273 36.5,110.5C 37.8333,109.5 37.8333,108.5 36.5,107.5C 36.5,107.167 36.5,106.833 36.5,106.5C 37.198,104.333 38.5313,102.5 40.5,101C 41.9653,100.399 42.9653,100.899 43.5,102.5C 42.3112,103.429 40.9778,103.762 39.5,103.5C 39.3118,105.103 39.8118,106.437 41,107.5C 42.0195,106.313 43.1861,105.313 44.5,104.5C 47.2591,105.714 47.5924,106.714 45.5,107.5 Z"/></g>
<g><path style="opacity:0.871" fill="#3255f2" d="M 31.5,94.5 C 30.6993,99.8819 32.366,104.215 36.5,107.5C 37.8333,108.5 37.8333,109.5 36.5,110.5C 35.6851,109.571 34.8518,108.571 34,107.5C 33.9918,110.345 32.8251,112.345 30.5,113.5C 29.8333,113.5 29.5,113.167 29.5,112.5C 30.8086,111.376 31.4753,109.876 31.5,108C 29.4852,104.176 28.4852,100.342 28.5,96.5C 27.0658,93.3016 26.5658,89.9683 27,86.5C 27.3357,88.0745 28.1691,89.4078 29.5,90.5C 28.1451,91.6753 28.3117,92.6753 30,93.5C 31.1068,92.2881 31.6068,92.6214 31.5,94.5 Z"/></g>
<g><path style="opacity:0.027" fill="#2f47da" d="M 75.5,106.5 C 76.2389,106.369 76.9056,106.536 77.5,107C 78.0606,108.566 77.3939,109.899 75.5,111C 76.9423,111.377 77.9423,112.21 78.5,113.5C 77.209,113.263 76.209,113.596 75.5,114.5C 74.209,114.737 73.209,114.404 72.5,113.5C 73.2806,111.337 72.4472,111.004 70,112.5C 69.6667,111.833 69.3333,111.167 69,110.5C 68.6012,110.728 68.4346,111.062 68.5,111.5C 68.1667,111.5 67.8333,111.5 67.5,111.5C 67.1667,111.5 66.8333,111.5 66.5,111.5C 66.5,110.833 66.1667,110.5 65.5,110.5C 68.5507,108.648 71.884,107.314 75.5,106.5 Z"/></g>
<g><path style="opacity:0.043" fill="#2b5ae3" d="M 75.5,106.5 C 75.8417,105.662 76.5084,105.328 77.5,105.5C 79.205,106.535 80.8716,106.535 82.5,105.5C 83.4287,106.689 83.762,108.022 83.5,109.5C 82.1667,111.5 80.8333,113.5 79.5,115.5C 78.8333,115.5 78.5,115.167 78.5,114.5C 78.5,114.167 78.5,113.833 78.5,113.5C 77.9423,112.21 76.9423,111.377 75.5,111C 77.3939,109.899 78.0606,108.566 77.5,107C 76.9056,106.536 76.2389,106.369 75.5,106.5 Z"/></g>
<g><path style="opacity:1" fill="#496bf6" d="M 108.5,105.5 C 109.239,105.369 109.906,105.536 110.5,106C 109.269,107.183 109.269,108.349 110.5,109.5C 112.488,107.853 113.821,108.186 114.5,110.5C 112.883,113.784 110.55,116.451 107.5,118.5C 104.906,116.271 105.24,114.105 108.5,112C 107.177,111.184 106.511,110.017 106.5,108.5C 107.167,107.5 107.833,106.5 108.5,105.5 Z"/></g>
<g><path style="opacity:0.97" fill="#3365f6" d="M 36.5,110.5 C 37.3143,112.273 38.6476,112.773 40.5,112C 41.3281,110.008 42.6614,108.508 44.5,107.5C 44.5,108.167 44.5,108.833 44.5,109.5C 43.5655,110.568 43.2322,111.901 43.5,113.5C 39.0736,113.72 37.0736,116.054 37.5,120.5C 34.8605,118.527 32.5272,116.194 30.5,113.5C 32.8251,112.345 33.9918,110.345 34,107.5C 34.8518,108.571 35.6851,109.571 36.5,110.5 Z"/></g>
<g><path style="opacity:0.008" fill="#17677a" d="M 44.5,110.5 C 45.391,111.11 46.391,111.443 47.5,111.5C 47.5,111.833 47.5,112.167 47.5,112.5C 45.8212,112.715 44.8212,112.048 44.5,110.5 Z"/></g>
<g><path style="opacity:0.937" fill="#3369ea" d="M 59.5,108.5 C 61.2972,109.73 63.2972,110.396 65.5,110.5C 66.1667,110.5 66.5,110.833 66.5,111.5C 66.8333,111.5 67.1667,111.5 67.5,111.5C 67.8333,112.833 68.1667,112.833 68.5,111.5C 68.4346,111.062 68.6012,110.728 69,110.5C 69.3333,111.167 69.6667,111.833 70,112.5C 72.4472,111.004 73.2806,111.337 72.5,113.5C 70.857,113.48 69.5237,114.147 68.5,115.5C 67.914,115.291 67.414,114.957 67,114.5C 64.3927,115.123 61.8927,115.79 59.5,116.5C 59.1667,116.5 58.8333,116.5 58.5,116.5C 58.5,115.833 58.1667,115.5 57.5,115.5C 55.4471,115.598 53.7804,114.931 52.5,113.5C 55.8337,111.06 59.3337,111.06 63,113.5C 63.5,113.167 64,112.833 64.5,112.5C 62.1526,111.849 60.4859,110.516 59.5,108.5 Z"/></g>
<g><path style="opacity:0.027" fill="#2644ca" d="M 47.5,112.5 C 47.5,112.167 47.5,111.833 47.5,111.5C 48.1667,111.5 48.8333,111.5 49.5,111.5C 49.8417,112.338 50.5084,112.672 51.5,112.5C 52.1667,112.5 52.5,112.833 52.5,113.5C 53.7804,114.931 55.4471,115.598 57.5,115.5C 58.1667,115.5 58.5,115.833 58.5,116.5C 58.8333,116.5 59.1667,116.5 59.5,116.5C 59.3893,117.117 59.056,117.617 58.5,118C 54.8484,118.499 51.1817,118.665 47.5,118.5C 45.6558,117.796 45.1558,116.463 46,114.5C 46.6667,115.833 47.3333,115.833 48,114.5C 48.6917,113.563 48.525,112.897 47.5,112.5 Z"/></g>
<g><path style="opacity:1" fill="#3361ec" d="M 72.5,113.5 C 73.209,114.404 74.209,114.737 75.5,114.5C 76.1667,114.5 76.8333,114.5 77.5,114.5C 76.2347,115.479 74.9014,116.479 73.5,117.5C 75.6309,118.169 77.6309,118.835 79.5,119.5C 77.2362,120.219 74.9029,120.552 72.5,120.5C 70.0219,121.195 68.0219,122.695 66.5,125C 65.552,125.483 64.552,125.649 63.5,125.5C 63.9371,123.926 64.9371,122.759 66.5,122C 65.0953,120.731 63.4286,120.231 61.5,120.5C 62.2625,119.732 63.2625,119.232 64.5,119C 62.8068,118.153 61.1401,117.32 59.5,116.5C 61.8927,115.79 64.3927,115.123 67,114.5C 67.414,114.957 67.914,115.291 68.5,115.5C 69.5237,114.147 70.857,113.48 72.5,113.5 Z"/></g>
<g><path style="opacity:0.999" fill="#3c6ef6" d="M 106.5,108.5 C 106.511,110.017 107.177,111.184 108.5,112C 105.24,114.105 104.906,116.271 107.5,118.5C 105.761,121.243 103.427,123.243 100.5,124.5C 100.423,123.25 99.756,122.417 98.5,122C 98.8333,121.667 99.1667,121.333 99.5,121C 94.7546,118.358 94.7546,116.358 99.5,115C 98.552,114.517 97.552,114.351 96.5,114.5C 100.096,113.031 103.43,111.031 106.5,108.5 Z"/></g>
<g><path style="opacity:1" fill="#3864f7" d="M 44.5,109.5 C 44.5,109.833 44.5,110.167 44.5,110.5C 44.8212,112.048 45.8212,112.715 47.5,112.5C 48.525,112.897 48.6917,113.563 48,114.5C 47.3333,115.833 46.6667,115.833 46,114.5C 45.1558,116.463 45.6558,117.796 47.5,118.5C 47.5,118.833 47.5,119.167 47.5,119.5C 47.9481,122.233 49.2814,124.399 51.5,126C 50.6195,126.708 49.9528,127.542 49.5,128.5C 44.8033,126.822 40.8033,124.156 37.5,120.5C 37.0736,116.054 39.0736,113.72 43.5,113.5C 43.2322,111.901 43.5655,110.568 44.5,109.5 Z"/></g>
<g><path style="opacity:1" fill="#3769fb" d="M 77.5,114.5 C 77.8333,114.5 78.1667,114.5 78.5,114.5C 78.5,115.167 78.8333,115.5 79.5,115.5C 85.2031,115.625 90.8698,115.292 96.5,114.5C 97.552,114.351 98.552,114.517 99.5,115C 94.7546,116.358 94.7546,118.358 99.5,121C 99.1667,121.333 98.8333,121.667 98.5,122C 99.756,122.417 100.423,123.25 100.5,124.5C 99.7095,125.401 98.7095,126.068 97.5,126.5C 96.448,126.649 95.448,126.483 94.5,126C 96.0368,124.89 96.7035,123.39 96.5,121.5C 93.9009,121.451 91.7342,120.451 90,118.5C 86.5942,121.952 83.0942,122.286 79.5,119.5C 77.6309,118.835 75.6309,118.169 73.5,117.5C 74.9014,116.479 76.2347,115.479 77.5,114.5 Z"/></g>
<g><path style="opacity:0.93" fill="#346ef2" d="M 97.5,126.5 C 96.4863,127.674 95.153,128.34 93.5,128.5C 90.3099,127.328 86.9766,126.328 83.5,125.5C 85.2774,124.4 87.2774,123.566 89.5,123C 83.5858,122.877 77.9191,122.044 72.5,120.5C 74.9029,120.552 77.2362,120.219 79.5,119.5C 83.0942,122.286 86.5942,121.952 90,118.5C 91.7342,120.451 93.9009,121.451 96.5,121.5C 96.7035,123.39 96.0368,124.89 94.5,126C 95.448,126.483 96.448,126.649 97.5,126.5 Z"/></g>
<g><path style="opacity:0.938" fill="#385df8" d="M 47.5,119.5 C 49.4734,120.487 51.4734,121.487 53.5,122.5C 56.0956,121.518 58.7623,120.851 61.5,120.5C 63.4286,120.231 65.0953,120.731 66.5,122C 64.9371,122.759 63.9371,123.926 63.5,125.5C 63.5,126.167 63.8333,126.5 64.5,126.5C 64.5792,127.93 64.2458,129.264 63.5,130.5C 64.9492,131.172 66.2825,131.839 67.5,132.5C 67.5,133.167 67.1667,133.5 66.5,133.5C 60.3365,133.22 54.6698,131.554 49.5,128.5C 49.9528,127.542 50.6195,126.708 51.5,126C 49.2814,124.399 47.9481,122.233 47.5,119.5 Z"/></g>
<g><path style="opacity:0.139" fill="#3564ee" d="M 83.5,125.5 C 86.9766,126.328 90.3099,127.328 93.5,128.5C 88.0903,131.303 82.4237,133.303 76.5,134.5C 73.1667,134.5 69.8333,134.5 66.5,134.5C 66.5,134.167 66.5,133.833 66.5,133.5C 67.1667,133.5 67.5,133.167 67.5,132.5C 69.8333,132.5 72.1667,132.5 74.5,132.5C 74.2267,130.549 74.8934,129.049 76.5,128C 73.9783,128.499 71.4783,128.332 69,127.5C 66.8158,130.457 65.6492,130.123 65.5,126.5C 71.5362,126.64 77.5362,126.307 83.5,125.5 Z"/></g>
<g><path style="opacity:1" fill="#3763fd" d="M 64.5,126.5 C 64.8333,126.5 65.1667,126.5 65.5,126.5C 65.6492,130.123 66.8158,130.457 69,127.5C 71.4783,128.332 73.9783,128.499 76.5,128C 74.8934,129.049 74.2267,130.549 74.5,132.5C 72.1667,132.5 69.8333,132.5 67.5,132.5C 66.2825,131.839 64.9492,131.172 63.5,130.5C 64.2458,129.264 64.5792,127.93 64.5,126.5 Z"/></g>
</svg>
