<?xml version="1.0" encoding="utf-8"?>
<!-- Generator: Adobe Illustrator 27.3.1, SVG Export Plug-In . SVG Version: 6.00 Build 0)  -->
<svg version="1.1" id="katman_1" xmlns="http://www.w3.org/2000/svg" xmlns:xlink="http://www.w3.org/1999/xlink" x="0px" y="0px"
	 viewBox="0 0 205 205" style="enable-background:new 0 0 205 205;" xml:space="preserve">
<style type="text/css">
	.st0{fill:#333333;}
	.st1{fill:#FFFFFF;}
</style>
<rect x="39.9" y="42.8" class="st0" width="136.7" height="120.4"/>
<g id="Light">
	<g id="Mac">
		<path id="macOS_Finder" class="st1" d="M112.8,68v-1.7l-5.2,0.4c-1.5,0.1-2.6,0.4-3.3,0.9c-0.8,0.5-1.1,1.3-1.1,2.2
			s0.4,1.7,1.1,2.2c0.7,0.6,1.7,0.8,3,0.8c0.8,0,1.5-0.1,2.2-0.4s1.3-0.6,1.8-1c0.5-0.4,0.9-0.9,1.2-1.5
			C112.7,69.4,112.8,68.7,112.8,68L112.8,68z M102.5,0C45.3,0,0,45.3,0,102.5S45.3,205,102.5,205S205,159.7,205,102.5
			S159.7,0,102.5,0z M122.4,60.8c0.5-1.4,1.2-2.5,2-3.5s2-1.7,3.2-2.2c1.2-0.5,2.6-0.8,4.2-0.8c1.4,0,2.6,0.2,3.7,0.6s2.1,1,2.9,1.7
			s1.4,1.5,1.9,2.4s0.7,1.9,0.8,2.9H137c-0.1-0.6-0.3-1.1-0.6-1.6s-0.6-0.9-1-1.3c-0.4-0.4-1-0.6-1.5-0.8c-0.6-0.2-1.2-0.3-2-0.3
			c-0.9,0-1.7,0.2-2.4,0.5s-1.3,0.8-1.8,1.5s-0.9,1.4-1.2,2.3c-0.3,0.9-0.4,1.9-0.4,3.1s0.1,2.2,0.4,3.1c0.3,0.9,0.7,1.7,1.2,2.3
			c0.5,0.6,1.1,1.1,1.8,1.5c0.7,0.3,1.5,0.5,2.4,0.5c1.4,0,2.5-0.3,3.4-1s1.5-1.6,1.7-2.9h4.1c-0.1,1.1-0.4,2.2-0.9,3.1
			s-1.2,1.7-2,2.4c-0.8,0.7-1.8,1.2-2.8,1.5s-2.3,0.5-3.6,0.5c-1.5,0-2.9-0.3-4.2-0.8c-1.2-0.5-2.3-1.2-3.2-2.2
			c-0.9-0.9-1.6-2.1-2.1-3.5s-0.7-2.9-0.7-4.6C121.7,63.7,121.9,62.1,122.4,60.8L122.4,60.8z M63.9,54.5H68v3.7h0.1
			c0.2-0.6,0.6-1.2,1-1.6c0.4-0.5,0.9-0.9,1.4-1.2c0.5-0.3,1.1-0.6,1.8-0.8c0.6-0.2,1.3-0.3,2-0.3c1.5,0,2.8,0.4,3.8,1.1
			c1,0.7,1.8,1.8,2.2,3.1h0.1c0.3-0.7,0.6-1.2,1.1-1.8s1-1,1.5-1.3s1.2-0.6,1.9-0.8c0.7-0.2,1.4-0.3,2.2-0.3c1.1,0,2,0.2,2.9,0.5
			s1.6,0.8,2.2,1.4s1.1,1.4,1.4,2.2s0.5,1.9,0.5,2.9v14.7h-4.3V62.4c0-1.4-0.4-2.5-1.1-3.3S87,58,85.6,58c-0.7,0-1.3,0.1-1.8,0.3
			s-1,0.6-1.4,1c-0.4,0.4-0.7,0.9-0.9,1.5c-0.2,0.6-0.3,1.2-0.3,1.9v13.4h-4.2v-14c0-0.6-0.1-1.2-0.3-1.7s-0.5-0.9-0.8-1.3
			c-0.4-0.4-0.8-0.6-1.3-0.8C74,58.1,73.4,58,72.8,58s-1.3,0.1-1.8,0.4c-0.6,0.2-1,0.6-1.5,1c-0.4,0.4-0.7,1-0.9,1.5
			c-0.2,0.6-0.6,1.2-0.6,2v13.3h-4.1L63.9,54.5L63.9,54.5z M73.2,158c-18.9,0-30.8-13.1-30.8-34.1s11.8-34.1,30.8-34.1
			s30.7,13.2,30.7,34.1S92.1,158,73.2,158z M108.2,76.1c-0.7,0.2-1.4,0.3-2.1,0.3c-1.1,0-2.1-0.2-3-0.5c-0.9-0.3-1.7-0.7-2.3-1.3
			c-0.6-0.6-1.2-1.2-1.5-2c-0.4-0.8-0.5-1.7-0.5-2.6c0-1.9,0.7-3.4,2.1-4.4s3.5-1.7,6.1-1.9l5.8-0.3v-1.7c0-1.2-0.4-2.2-1.2-2.8
			s-1.9-1-3.3-1c-0.6,0-1.1,0.1-1.6,0.2c-0.5,0.2-1,0.4-1.3,0.6c-0.4,0.3-0.7,0.6-1,1c-0.2,0.4-0.4,0.8-0.5,1.3h-4
			c0-1,0.3-1.8,0.7-2.7s1-1.5,1.8-2.1s1.7-1.1,2.7-1.4s2.2-0.5,3.4-0.5c1.3,0,2.5,0.2,3.6,0.5s2,0.8,2.7,1.4
			c0.8,0.6,1.3,1.4,1.8,2.2s0.6,1.8,0.6,2.9v14.8H113v-3.6h-0.1c-0.3,0.6-0.7,1.1-1.2,1.6s-1,0.9-1.6,1.2
			C109.5,75.7,108.9,75.9,108.2,76.1L108.2,76.1z M135.4,158c-14.4,0-24.2-7.6-24.9-19.4h9.4c0.7,6.8,7.3,11.3,16.2,11.3
			s14.8-4.5,14.8-10.6c0-5.3-3.8-8.5-12.4-10.7l-8.5-2.1c-12.2-3-17.7-8.6-17.7-17.7c0-11.2,9.8-19,23.8-19s23.2,7.8,23.5,19.1h-9.3
			c-0.6-6.8-6.2-10.9-14.4-10.9s-13.9,4.2-13.9,10.3c0,4.8,3.6,7.6,12.3,9.8l7.1,1.8c13.6,3.3,19.2,8.6,19.2,18.3
			C160.5,150.3,150.8,158,135.4,158L135.4,158z M73.2,98.2c-13,0-21,9.9-21,25.7s8.1,25.7,21,25.7s21-9.9,21-25.7
			C94.3,108.1,86.1,98.2,73.2,98.2z"/>
	</g>
</g>
</svg>
