<?xml version="1.0" encoding="UTF-8"?>
<!DOCTYPE svg PUBLIC "-//W3C//DTD SVG 1.1//EN" "http://www.w3.org/Graphics/SVG/1.1/DTD/svg11.dtd">
<svg xmlns="http://www.w3.org/2000/svg" version="1.1" width="300px" height="153px" style="shape-rendering:geometricPrecision; text-rendering:geometricPrecision; image-rendering:optimizeQuality; fill-rule:evenodd; clip-rule:evenodd" xmlns:xlink="http://www.w3.org/1999/xlink">
<g><path style="opacity:1" fill="#eb7077" d="M 76.5,-0.5 C 91.5,-0.5 106.5,-0.5 121.5,-0.5C 115.994,6.15858 112.494,13.8252 111,22.5C 106.566,37.5637 103.732,52.897 102.5,68.5C 98.1521,93.7194 92.3188,118.719 85,143.5C 83.3382,146.649 81.5048,149.649 79.5,152.5C 64.5,152.5 49.5,152.5 34.5,152.5C 40.3147,142.236 44.4814,131.236 47,119.5C 49.4914,108.216 51.6581,96.883 53.5,85.5C 57.183,58.2502 63.3497,31.5835 72,5.5C 73.332,3.34004 74.832,1.34004 76.5,-0.5 Z"/></g>
<g><path style="opacity:1" fill="#eb7077" d="M 170.5,-0.5 C 185.5,-0.5 200.5,-0.5 215.5,-0.5C 210.92,5.03993 207.753,11.3733 206,18.5C 201.092,35.2052 197.925,52.2052 196.5,69.5C 192.276,94.4315 186.443,119.098 179,143.5C 177.657,146.862 175.824,149.862 173.5,152.5C 158.5,152.5 143.5,152.5 128.5,152.5C 132.999,145.826 136.166,138.493 138,130.5C 142.726,112.703 146.226,94.7033 148.5,76.5C 152.715,53.6368 158.215,30.9702 165,8.5C 166.343,5.13813 168.176,2.13813 170.5,-0.5 Z"/></g>
<g><path style="opacity:1" fill="#f6a2ad" d="M 121.5,-0.5 C 123.167,-0.5 124.833,-0.5 126.5,-0.5C 131.244,4.48466 134.411,10.4847 136,17.5C 141.255,36.9443 145.422,56.611 148.5,76.5C 146.226,94.7033 142.726,112.703 138,130.5C 136.166,138.493 132.999,145.826 128.5,152.5C 127.5,152.5 126.5,152.5 125.5,152.5C 124.542,151.038 123.376,149.705 122,148.5C 118.503,141.488 116.003,134.488 114.5,127.5C 109.475,108.041 105.475,88.374 102.5,68.5C 103.732,52.897 106.566,37.5637 111,22.5C 112.494,13.8252 115.994,6.15858 121.5,-0.5 Z"/></g>
<g><path style="opacity:1" fill="#f6a2ad" d="M 215.5,-0.5 C 217.5,-0.5 219.5,-0.5 221.5,-0.5C 226.972,8.06217 230.805,17.3955 233,27.5C 237.513,47.9015 241.68,68.2349 245.5,88.5C 244.243,91.096 243.076,93.7627 242,96.5C 239.202,110.958 235.868,125.291 232,139.5C 230.277,144.97 227.11,149.304 222.5,152.5C 221.5,152.5 220.5,152.5 219.5,152.5C 213.656,144.829 209.822,136.162 208,126.5C 203.46,107.632 199.626,88.6317 196.5,69.5C 197.925,52.2052 201.092,35.2052 206,18.5C 207.753,11.3733 210.92,5.03993 215.5,-0.5 Z"/></g>
<g><path style="opacity:1" fill="#f6a2ad" d="M -0.5,80.5 C 14.837,80.3334 30.1703,80.5001 45.5,81C 48.6485,81.7384 51.3152,83.2384 53.5,85.5C 51.6581,96.883 49.4914,108.216 47,119.5C 44.4814,131.236 40.3147,142.236 34.5,152.5C 33.5,152.5 32.5,152.5 31.5,152.5C 28.2925,148.752 26.1258,144.418 25,139.5C 22.5552,125.607 19.2218,111.94 15,98.5C 12.3214,90.6561 7.15476,85.3228 -0.5,82.5C -0.5,81.8333 -0.5,81.1667 -0.5,80.5 Z"/></g>
<g><path style="opacity:1" fill="#eb7077" d="M 299.5,80.5 C 299.5,81.1667 299.5,81.8333 299.5,82.5C 291.646,84.8516 286.146,89.8516 283,97.5C 279.682,111.375 277.016,125.375 275,139.5C 273.007,144.155 270.507,148.489 267.5,152.5C 252.5,152.5 237.5,152.5 222.5,152.5C 227.11,149.304 230.277,144.97 232,139.5C 235.868,125.291 239.202,110.958 242,96.5C 243.076,93.7627 244.243,91.096 245.5,88.5C 247.113,84.3915 250.113,81.8915 254.5,81C 269.496,80.5001 284.496,80.3334 299.5,80.5 Z"/></g>
</svg>
