<?xml version="1.0" encoding="UTF-8"?>
<!DOCTYPE svg PUBLIC "-//W3C//DTD SVG 1.1//EN" "http://www.w3.org/Graphics/SVG/1.1/DTD/svg11.dtd">
<svg xmlns="http://www.w3.org/2000/svg" version="1.1" width="1776px" height="2048px" style="shape-rendering:geometricPrecision; text-rendering:geometricPrecision; image-rendering:optimizeQuality; fill-rule:evenodd; clip-rule:evenodd" xmlns:xlink="http://www.w3.org/1999/xlink">
<g><path style="opacity:0.999" fill="#a1c535" d="M 885.5,-0.5 C 886.167,-0.5 886.833,-0.5 887.5,-0.5C 887.5,131.5 887.5,263.5 887.5,395.5C 706.301,500.596 525.301,605.929 344.5,711.5C 344.167,711.5 343.833,711.5 343.5,711.5C 229.092,644.434 114.426,577.768 -0.5,511.5C -0.5,511.167 -0.5,510.833 -0.5,510.5C 295.195,340.657 590.529,170.324 885.5,-0.5 Z"/></g>
<g><path style="opacity:0.999" fill="#add339" d="M 887.5,-0.5 C 888.167,-0.5 888.833,-0.5 889.5,-0.5C 1184.47,170.324 1479.8,340.657 1775.5,510.5C 1775.5,510.833 1775.5,511.167 1775.5,511.5C 1660.83,578.167 1546.17,644.833 1431.5,711.5C 1431.17,711.5 1430.83,711.5 1430.5,711.5C 1249.7,605.929 1068.7,500.596 887.5,395.5C 887.5,263.5 887.5,131.5 887.5,-0.5 Z"/></g>
<g><path style="opacity:1" fill="#f0f5e1" d="M 887.5,395.5 C 1068.7,500.596 1249.7,605.929 1430.5,711.5C 1249.7,815.738 1068.7,919.738 887.5,1023.5C 706.302,919.738 525.302,815.738 344.5,711.5C 525.301,605.929 706.301,500.596 887.5,395.5 Z"/></g>
<g><path style="opacity:1" fill="#a5073e" d="M -0.5,511.5 C 114.426,577.768 229.092,644.434 343.5,711.5C 343.5,919.5 343.5,1127.5 343.5,1335.5C 228.833,1402.17 114.167,1468.83 -0.5,1535.5C -0.5,1194.17 -0.5,852.833 -0.5,511.5 Z"/></g>
<g><path style="opacity:1" fill="#1b6ac5" d="M 1775.5,511.5 C 1775.5,852.833 1775.5,1194.17 1775.5,1535.5C 1660.83,1468.83 1546.17,1402.17 1431.5,1335.5C 1431.5,1127.5 1431.5,919.5 1431.5,711.5C 1546.17,644.833 1660.83,578.167 1775.5,511.5 Z"/></g>
<g><path style="opacity:1" fill="#fefefe" d="M 343.5,711.5 C 343.833,711.5 344.167,711.5 344.5,711.5C 525.302,815.738 706.302,919.738 887.5,1023.5C 887.5,1232.83 887.5,1442.17 887.5,1651.5C 706.167,1546.17 524.833,1440.83 343.5,1335.5C 343.5,1127.5 343.5,919.5 343.5,711.5 Z"/></g>
<g><path style="opacity:1" fill="#cddae5" d="M 1430.5,711.5 C 1430.83,711.5 1431.17,711.5 1431.5,711.5C 1431.5,919.5 1431.5,1127.5 1431.5,1335.5C 1250.17,1440.83 1068.83,1546.17 887.5,1651.5C 887.5,1442.17 887.5,1232.83 887.5,1023.5C 1068.7,919.738 1249.7,815.738 1430.5,711.5 Z"/></g>
<g><path style="opacity:0.999" fill="#ea205e" d="M 343.5,1335.5 C 524.833,1440.83 706.167,1546.17 887.5,1651.5C 887.5,1783.5 887.5,1915.5 887.5,2047.5C 886.833,2047.5 886.167,2047.5 885.5,2047.5C 590.529,1876.68 295.195,1706.34 -0.5,1536.5C -0.5,1536.17 -0.5,1535.83 -0.5,1535.5C 114.167,1468.83 228.833,1402.17 343.5,1335.5 Z"/></g>
<g><path style="opacity:0.999" fill="#2e90e7" d="M 1431.5,1335.5 C 1546.17,1402.17 1660.83,1468.83 1775.5,1535.5C 1775.5,1535.83 1775.5,1536.17 1775.5,1536.5C 1479.8,1706.34 1184.47,1876.68 889.5,2047.5C 888.833,2047.5 888.167,2047.5 887.5,2047.5C 887.5,1915.5 887.5,1783.5 887.5,1651.5C 1068.83,1546.17 1250.17,1440.83 1431.5,1335.5 Z"/></g>
</svg>
