<?xml version="1.0" encoding="UTF-8"?>
<!DOCTYPE svg PUBLIC "-//W3C//DTD SVG 1.1//EN" "http://www.w3.org/Graphics/SVG/1.1/DTD/svg11.dtd">
<svg xmlns="http://www.w3.org/2000/svg" version="1.1" width="2048px" height="2048px" style="shape-rendering:geometricPrecision; text-rendering:geometricPrecision; image-rendering:optimizeQuality; fill-rule:evenodd; clip-rule:evenodd" xmlns:xlink="http://www.w3.org/1999/xlink">
<g><path style="opacity:0.998" fill="#fe308c" d="M 346.5,-0.5 C 348.5,-0.5 350.5,-0.5 352.5,-0.5C 588.635,50.2955 824.969,100.796 1061.5,151C 1074.87,189.273 1087.54,227.773 1099.5,266.5C 1099.49,268.017 1098.82,269.184 1097.5,270C 1051.64,310.365 1005.97,350.865 960.5,391.5C 882.833,391.5 805.167,391.5 727.5,391.5C 582.5,281.5 437.5,171.5 292.5,61.5C 310.5,40.8333 328.5,20.1667 346.5,-0.5 Z"/></g>
<g><path style="opacity:1" fill="#fb3191" d="M 292.5,61.5 C 437.5,171.5 582.5,281.5 727.5,391.5C 653.5,391.5 579.5,391.5 505.5,391.5C 407.351,316.863 309.018,242.363 210.5,168C 208.101,166.02 206.101,163.853 204.5,161.5C 233.49,127.845 262.823,94.5113 292.5,61.5 Z"/></g>
<g><path style="opacity:0.999" fill="#b245f1" d="M 1920.5,562.5 C 1920.53,563.497 1920.03,564.164 1919,564.5C 1831.2,601.653 1743.37,638.653 1655.5,675.5C 1655.5,580.833 1655.5,486.167 1655.5,391.5C 1423.83,391.5 1192.17,391.5 960.5,391.5C 1005.97,350.865 1051.64,310.365 1097.5,270C 1098.82,269.184 1099.49,268.017 1099.5,266.5C 1154.15,218.189 1208.81,169.856 1263.5,121.5C 1436.18,152.892 1608.85,184.392 1781.5,216C 1828.25,331.337 1874.59,446.837 1920.5,562.5 Z"/></g>
<g><path style="opacity:0.999" fill="#f83294" d="M 204.5,161.5 C 206.101,163.853 208.101,166.02 210.5,168C 309.018,242.363 407.351,316.863 505.5,391.5C 499.833,391.5 494.167,391.5 488.5,391.5C 392.081,318.111 295.414,244.944 198.5,172C 197.748,171.329 197.414,170.496 197.5,169.5C 199.372,166.418 201.705,163.751 204.5,161.5 Z"/></g>
<g><path style="opacity:0.999" fill="#f53398" d="M 197.5,169.5 C 197.414,170.496 197.748,171.329 198.5,172C 295.414,244.944 392.081,318.111 488.5,391.5C 469.167,391.5 449.833,391.5 430.5,391.5C 346.081,327.111 261.414,262.944 176.5,199C 175.177,198.184 174.511,197.017 174.5,195.5C 181.706,186.417 189.373,177.75 197.5,169.5 Z"/></g>
<g><path style="opacity:1" fill="#f3339b" d="M 174.5,195.5 C 174.511,197.017 175.177,198.184 176.5,199C 261.414,262.944 346.081,327.111 430.5,391.5C 427.833,391.5 425.167,391.5 422.5,391.5C 338.192,327.852 254.192,263.852 170.5,199.5C 171.5,197.833 172.833,196.5 174.5,195.5 Z"/></g>
<g><path style="opacity:0.999" fill="#f0349f" d="M 170.5,199.5 C 254.192,263.852 338.192,327.852 422.5,391.5C 412.167,391.5 401.833,391.5 391.5,391.5C 391.5,397.833 391.5,404.167 391.5,410.5C 316.327,353.499 240.994,296.665 165.5,240C 159.318,235.605 153.652,230.771 148.5,225.5C 155.435,216.559 162.768,207.893 170.5,199.5 Z"/></g>
<g><path style="opacity:0.999" fill="#ee35a3" d="M 148.5,225.5 C 153.652,230.771 159.318,235.605 165.5,240C 240.994,296.665 316.327,353.499 391.5,410.5C 391.5,412.833 391.5,415.167 391.5,417.5C 309.729,356.241 228.062,294.741 146.5,233C 145.177,232.184 144.511,231.017 144.5,229.5C 145.5,227.833 146.833,226.5 148.5,225.5 Z"/></g>
<g><path style="opacity:0.999" fill="#eb35a6" d="M 144.5,229.5 C 144.511,231.017 145.177,232.184 146.5,233C 228.062,294.741 309.729,356.241 391.5,417.5C 391.5,429.5 391.5,441.5 391.5,453.5C 302.525,386.519 213.859,319.186 125.5,251.5C 131.092,243.571 137.426,236.238 144.5,229.5 Z"/></g>
<g><path style="opacity:0.999" fill="#e836aa" d="M 125.5,251.5 C 213.859,319.186 302.525,386.519 391.5,453.5C 391.5,460.5 391.5,467.5 391.5,474.5C 299.017,405.085 206.684,335.419 114.5,265.5C 113.583,266.127 112.583,266.461 111.5,266.5C 115.944,261.268 120.61,256.268 125.5,251.5 Z"/></g>
<g><path style="opacity:0.999" fill="#e637ad" d="M 391.5,474.5 C 391.5,481.5 391.5,488.5 391.5,495.5C 294.62,423.56 198.287,350.893 102.5,277.5C 105.152,273.518 108.152,269.851 111.5,266.5C 112.583,266.461 113.583,266.127 114.5,265.5C 206.684,335.419 299.017,405.085 391.5,474.5 Z"/></g>
<g><path style="opacity:0.999" fill="#e337b0" d="M 102.5,277.5 C 198.287,350.893 294.62,423.56 391.5,495.5C 391.5,506.167 391.5,516.833 391.5,527.5C 361.957,505.136 331.957,483.303 301.5,462C 230.167,408 158.833,354 87.5,300C 86.1772,299.184 85.5106,298.017 85.5,296.5C 90.8246,289.843 96.4913,283.51 102.5,277.5 Z"/></g>
<g><path style="opacity:0.999" fill="#e039b4" d="M 85.5,296.5 C 85.5106,298.017 86.1772,299.184 87.5,300C 158.833,354 230.167,408 301.5,462C 331.957,483.303 361.957,505.136 391.5,527.5C 391.5,533.167 391.5,538.833 391.5,544.5C 359.093,520.934 327.093,496.767 295.5,472C 292.853,470.701 290.186,469.368 287.5,468C 217.784,414.616 147.784,361.616 77.5,309C 76.7476,308.329 76.4142,307.496 76.5,306.5C 79.5095,303.126 82.5095,299.792 85.5,296.5 Z"/></g>
<g><path style="opacity:0.999" fill="#dd39b8" d="M 76.5,306.5 C 76.4142,307.496 76.7476,308.329 77.5,309C 147.784,361.616 217.784,414.616 287.5,468C 290.186,469.368 292.853,470.701 295.5,472C 327.093,496.767 359.093,520.934 391.5,544.5C 391.5,558.833 391.5,573.167 391.5,587.5C 330.377,541.55 269.377,495.383 208.5,449C 205.623,448.044 202.956,446.711 200.5,445C 151.071,407.965 102.071,370.465 53.5,332.5C 61.1955,323.808 68.8621,315.141 76.5,306.5 Z"/></g>
<g><path style="opacity:0.999" fill="#d93abe" d="M 53.5,332.5 C 102.071,370.465 151.071,407.965 200.5,445C 202.956,446.711 205.623,448.044 208.5,449C 269.377,495.383 330.377,541.55 391.5,587.5C 391.5,601.833 391.5,616.167 391.5,630.5C 301.094,562.54 210.927,494.207 121,425.5C 120.667,425.833 120.333,426.167 120,426.5C 90.8975,405.031 62.0642,383.198 33.5,361C 32.255,360.209 30.9217,359.709 29.5,359.5C 37.5287,350.474 45.5287,341.474 53.5,332.5 Z"/></g>
<g><path style="opacity:1" fill="#d53bc3" d="M 29.5,359.5 C 30.9217,359.709 32.255,360.209 33.5,361C 62.0642,383.198 90.8975,405.031 120,426.5C 120.333,426.167 120.667,425.833 121,425.5C 210.927,494.207 301.094,562.54 391.5,630.5C 391.5,637.833 391.5,645.167 391.5,652.5C 287.062,573.907 182.729,495.074 78.5,416C 75.8333,414.667 73.1667,413.333 70.5,412C 53.2901,398.617 35.9568,385.451 18.5,372.5C 21.7912,367.873 25.4579,363.54 29.5,359.5 Z"/></g>
<g><path style="opacity:0.999" fill="#d33cc6" d="M 18.5,372.5 C 35.9568,385.451 53.2901,398.617 70.5,412C 73.1667,413.333 75.8333,414.667 78.5,416C 182.729,495.074 287.062,573.907 391.5,652.5C 391.5,659.5 391.5,666.5 391.5,673.5C 263.721,576.687 136.055,480.02 8.5,383.5C 11.8617,379.808 15.1951,376.141 18.5,372.5 Z"/></g>
<g><path style="opacity:0.999" fill="#d03dca" d="M 8.5,383.5 C 136.055,480.02 263.721,576.687 391.5,673.5C 391.5,685.5 391.5,697.5 391.5,709.5C 261.833,611.5 132.167,513.5 2.5,415.5C 1.80657,410.316 0.806573,405.316 -0.5,400.5C -0.5,397.833 -0.5,395.167 -0.5,392.5C 2.86047,389.806 5.86047,386.806 8.5,383.5 Z"/></g>
<g><path style="opacity:1" fill="#000000" d="M 567.5,1655.5 C 508.833,1655.5 450.167,1655.5 391.5,1655.5C 391.5,1625.83 391.5,1596.17 391.5,1566.5C 391.5,1566.17 391.5,1565.83 391.5,1565.5C 392.5,1174.67 392.833,783.667 392.5,392.5C 813.167,392.5 1233.83,392.5 1654.5,392.5C 1654.5,813.167 1654.5,1233.83 1654.5,1654.5C 1292,1654.17 929.666,1654.5 567.5,1655.5 Z"/></g>
<g><path style="opacity:1" fill="#070209" d="M 422.5,391.5 C 425.167,391.5 427.833,391.5 430.5,391.5C 449.833,391.5 469.167,391.5 488.5,391.5C 494.167,391.5 499.833,391.5 505.5,391.5C 579.5,391.5 653.5,391.5 727.5,391.5C 805.167,391.5 882.833,391.5 960.5,391.5C 1192.17,391.5 1423.83,391.5 1655.5,391.5C 1655.5,486.167 1655.5,580.833 1655.5,675.5C 1655.5,695.167 1655.5,714.833 1655.5,734.5C 1655.5,749.167 1655.5,763.833 1655.5,778.5C 1655.5,796.5 1655.5,814.5 1655.5,832.5C 1655.5,840.833 1655.5,849.167 1655.5,857.5C 1655.5,938.5 1655.5,1019.5 1655.5,1100.5C 1655.5,1128.5 1655.5,1156.5 1655.5,1184.5C 1655.5,1210.17 1655.5,1235.83 1655.5,1261.5C 1655.5,1291.83 1655.5,1322.17 1655.5,1352.5C 1655.5,1385.17 1655.5,1417.83 1655.5,1450.5C 1655.5,1482.17 1655.5,1513.83 1655.5,1545.5C 1655.5,1569.83 1655.5,1594.17 1655.5,1618.5C 1655.5,1630.83 1655.5,1643.17 1655.5,1655.5C 1645.83,1655.5 1636.17,1655.5 1626.5,1655.5C 1607.83,1655.5 1589.17,1655.5 1570.5,1655.5C 1545.83,1655.5 1521.17,1655.5 1496.5,1655.5C 1471.5,1655.5 1446.5,1655.5 1421.5,1655.5C 1397.83,1655.5 1374.17,1655.5 1350.5,1655.5C 1330.83,1655.5 1311.17,1655.5 1291.5,1655.5C 1269.83,1655.5 1248.17,1655.5 1226.5,1655.5C 1006.83,1655.5 787.167,1655.5 567.5,1655.5C 929.666,1654.5 1292,1654.17 1654.5,1654.5C 1654.5,1233.83 1654.5,813.167 1654.5,392.5C 1233.83,392.5 813.167,392.5 392.5,392.5C 392.833,783.667 392.5,1174.67 391.5,1565.5C 391.5,1558.5 391.5,1551.5 391.5,1544.5C 391.5,1522.17 391.5,1499.83 391.5,1477.5C 391.5,1456.17 391.5,1434.83 391.5,1413.5C 391.5,1394.83 391.5,1376.17 391.5,1357.5C 391.5,1333.17 391.5,1308.83 391.5,1284.5C 391.5,1259.83 391.5,1235.17 391.5,1210.5C 391.5,1187.17 391.5,1163.83 391.5,1140.5C 391.5,1120.83 391.5,1101.17 391.5,1081.5C 391.5,1060.17 391.5,1038.83 391.5,1017.5C 391.5,993.167 391.5,968.833 391.5,944.5C 391.5,930.167 391.5,915.833 391.5,901.5C 391.5,897.167 391.5,892.833 391.5,888.5C 391.5,876.167 391.5,863.833 391.5,851.5C 391.5,845.167 391.5,838.833 391.5,832.5C 391.5,824.5 391.5,816.5 391.5,808.5C 391.5,797.5 391.5,786.5 391.5,775.5C 391.5,772.167 391.5,768.833 391.5,765.5C 391.5,756.833 391.5,748.167 391.5,739.5C 391.5,729.5 391.5,719.5 391.5,709.5C 391.5,697.5 391.5,685.5 391.5,673.5C 391.5,666.5 391.5,659.5 391.5,652.5C 391.5,645.167 391.5,637.833 391.5,630.5C 391.5,616.167 391.5,601.833 391.5,587.5C 391.5,573.167 391.5,558.833 391.5,544.5C 391.5,538.833 391.5,533.167 391.5,527.5C 391.5,516.833 391.5,506.167 391.5,495.5C 391.5,488.5 391.5,481.5 391.5,474.5C 391.5,467.5 391.5,460.5 391.5,453.5C 391.5,441.5 391.5,429.5 391.5,417.5C 391.5,415.167 391.5,412.833 391.5,410.5C 391.5,404.167 391.5,397.833 391.5,391.5C 401.833,391.5 412.167,391.5 422.5,391.5 Z"/></g>
<g><path style="opacity:0.999" fill="#cc3dcf" d="M 2.5,415.5 C 132.167,513.5 261.833,611.5 391.5,709.5C 391.5,719.5 391.5,729.5 391.5,739.5C 265.043,644.216 138.71,548.716 12.5,453C 11.255,452.209 9.92167,451.709 8.5,451.5C 6.5,439.5 4.5,427.5 2.5,415.5 Z"/></g>
<g><path style="opacity:1" fill="#c93ed2" d="M 8.5,451.5 C 9.92167,451.709 11.255,452.209 12.5,453C 138.71,548.716 265.043,644.216 391.5,739.5C 391.5,748.167 391.5,756.833 391.5,765.5C 265.519,670.524 139.519,575.524 13.5,480.5C 11.7265,470.859 10.0598,461.193 8.5,451.5 Z"/></g>
<g><path style="opacity:1" fill="#c83fd5" d="M 13.5,480.5 C 139.519,575.524 265.519,670.524 391.5,765.5C 391.5,768.833 391.5,772.167 391.5,775.5C 266.786,681.054 141.953,586.721 17,492.5C 16.6174,493.056 16.1174,493.389 15.5,493.5C 14.7255,489.186 14.0588,484.853 13.5,480.5 Z"/></g>
<g><path style="opacity:0.999" fill="#c540d8" d="M 391.5,775.5 C 391.5,786.5 391.5,797.5 391.5,808.5C 267.859,715.52 144.526,622.186 21.5,528.5C 19.3932,516.859 17.3932,505.193 15.5,493.5C 16.1174,493.389 16.6174,493.056 17,492.5C 141.953,586.721 266.786,681.054 391.5,775.5 Z"/></g>
<g><path style="opacity:0.999" fill="#c240dc" d="M 21.5,528.5 C 144.526,622.186 267.859,715.52 391.5,808.5C 391.5,816.5 391.5,824.5 391.5,832.5C 269.833,740.5 148.167,648.5 26.5,556.5C 24.4209,547.368 22.7543,538.034 21.5,528.5 Z"/></g>
<g><path style="opacity:1" fill="#fefefe" d="M 1134.5,546.5 C 1191.96,543.701 1246.62,554.535 1298.5,579C 1317.24,588.695 1334.58,600.362 1350.5,614C 1330.77,643.57 1310.43,672.737 1289.5,701.5C 1259.67,680.086 1227,664.253 1191.5,654C 1172.72,649.758 1153.72,648.425 1134.5,650C 1117.42,652.12 1103.26,659.62 1092,672.5C 1089.73,676.714 1087.73,681.047 1086,685.5C 1085.15,694.886 1085.48,704.219 1087,713.5C 1089.51,722.003 1094.34,728.836 1101.5,734C 1112.46,740.98 1124.13,746.647 1136.5,751C 1160.91,758.935 1185.57,765.935 1210.5,772C 1239.27,780.255 1266.93,791.255 1293.5,805C 1349.36,836.897 1373.2,885.064 1365,949.5C 1357.39,1012.25 1324.23,1055.08 1265.5,1078C 1212.89,1095.87 1159.56,1098.2 1105.5,1085C 1047.23,1071.04 995.567,1044.7 950.5,1006C 972.485,978.518 994.819,951.351 1017.5,924.5C 1038.64,941.246 1061.31,955.746 1085.5,968C 1126.83,987.756 1169.83,992.756 1214.5,983C 1243.2,974.452 1255.37,955.285 1251,925.5C 1247.2,912.702 1239.37,903.202 1227.5,897C 1204.64,886.159 1180.98,877.492 1156.5,871C 1124.04,863.968 1092.37,854.301 1061.5,842C 1036.95,831.977 1015.79,817.144 998,797.5C 978.545,769.871 969.378,739.038 970.5,705C 972.461,638.721 1003.46,591.721 1063.5,564C 1086.38,554.529 1110.05,548.695 1134.5,546.5 Z"/></g>
<g><path style="opacity:1" fill="#fefefe" d="M 719.5,923.5 C 686.167,923.5 652.833,923.5 619.5,923.5C 619.5,976.167 619.5,1028.83 619.5,1081.5C 581.67,1082.5 543.67,1082.83 505.5,1082.5C 505.5,906.833 505.5,731.167 505.5,555.5C 582.167,555.333 658.834,555.5 735.5,556C 776.764,557.313 814.764,568.98 849.5,591C 897.673,627.35 921.673,676.017 921.5,737C 920.914,823.209 880.247,880.876 799.5,910C 773.468,918.254 746.801,922.754 719.5,923.5 Z"/></g>
<g><path style="opacity:0.999" fill="#c041df" d="M 26.5,556.5 C 148.167,648.5 269.833,740.5 391.5,832.5C 391.5,838.833 391.5,845.167 391.5,851.5C 270.55,760.551 149.883,669.217 29.5,577.5C 28.1751,570.55 27.1751,563.55 26.5,556.5 Z"/></g>
<g><path style="opacity:0.999" fill="#ab47f2" d="M 1920.5,562.5 C 1927.68,578.874 1934.35,595.54 1940.5,612.5C 1940.5,613.5 1940.5,614.5 1940.5,615.5C 1845.43,654.968 1750.43,694.635 1655.5,734.5C 1655.5,714.833 1655.5,695.167 1655.5,675.5C 1743.37,638.653 1831.2,601.653 1919,564.5C 1920.03,564.164 1920.53,563.497 1920.5,562.5 Z"/></g>
<g><path style="opacity:0.999" fill="#bd42e3" d="M 29.5,577.5 C 149.883,669.217 270.55,760.551 391.5,851.5C 391.5,863.833 391.5,876.167 391.5,888.5C 277.112,802.958 163.112,716.791 49.5,630C 45.2664,626.918 40.9331,624.084 36.5,621.5C 34.3828,606.797 32.0494,592.13 29.5,577.5 Z"/></g>
<g><path style="opacity:0.999" fill="#a549f2" d="M 1940.5,612.5 C 1946.02,624.886 1951.02,637.552 1955.5,650.5C 1955.59,651.496 1955.25,652.329 1954.5,653C 1855.01,695.327 1755.35,737.16 1655.5,778.5C 1655.5,763.833 1655.5,749.167 1655.5,734.5C 1750.43,694.635 1845.43,654.968 1940.5,615.5C 1940.5,614.5 1940.5,613.5 1940.5,612.5 Z"/></g>
<g><path style="opacity:0.999" fill="#ba43e6" d="M 36.5,621.5 C 40.9331,624.084 45.2664,626.918 49.5,630C 163.112,716.791 277.112,802.958 391.5,888.5C 391.5,892.833 391.5,897.167 391.5,901.5C 274.167,812.833 156.833,724.167 39.5,635.5C 38.5,630.833 37.5,626.167 36.5,621.5 Z"/></g>
<g><path style="opacity:0.999" fill="#b743ea" d="M 39.5,635.5 C 156.833,724.167 274.167,812.833 391.5,901.5C 391.5,915.833 391.5,930.167 391.5,944.5C 276.397,857.963 161.731,770.963 47.5,683.5C 44.4066,667.606 41.7399,651.606 39.5,635.5 Z"/></g>
<g><path style="opacity:1" fill="#343434" d="M 722.5,658.5 C 689.5,658.5 656.5,658.5 623.5,658.5C 623.5,711.833 623.5,765.167 623.5,818.5C 622.501,765.003 622.168,711.336 622.5,657.5C 656.004,657.168 689.338,657.502 722.5,658.5 Z"/></g>
<g><path style="opacity:1" fill="#000000" d="M 722.5,658.5 C 786.199,664.049 812.366,698.383 801,761.5C 792.143,790.355 772.977,808.188 743.5,815C 736.898,816.434 730.232,817.434 723.5,818C 690.168,818.5 656.835,818.667 623.5,818.5C 623.5,765.167 623.5,711.833 623.5,658.5C 656.5,658.5 689.5,658.5 722.5,658.5 Z"/></g>
<g><path style="opacity:0.999" fill="#a04bf3" d="M 1955.5,650.5 C 1962.34,666.348 1969.01,682.348 1975.5,698.5C 1868.9,743.365 1762.24,788.031 1655.5,832.5C 1655.5,814.5 1655.5,796.5 1655.5,778.5C 1755.35,737.16 1855.01,695.327 1954.5,653C 1955.25,652.329 1955.59,651.496 1955.5,650.5 Z"/></g>
<g><path style="opacity:0.999" fill="#b245f0" d="M 47.5,683.5 C 161.731,770.963 276.397,857.963 391.5,944.5C 391.5,968.833 391.5,993.167 391.5,1017.5C 282.53,935.009 173.53,852.509 64.5,770C 63.552,769.517 62.552,769.351 61.5,769.5C 56.8331,740.832 52.1664,712.165 47.5,683.5 Z"/></g>
<g><path style="opacity:0.999" fill="#984ef3" d="M 1975.5,698.5 C 1979.83,709.833 1984.17,721.167 1988.5,732.5C 1880.35,778.739 1772.01,824.739 1663.5,870.5C 1660.58,866.334 1657.92,862.001 1655.5,857.5C 1655.5,849.167 1655.5,840.833 1655.5,832.5C 1762.24,788.031 1868.9,743.365 1975.5,698.5 Z"/></g>
<g><path style="opacity:0.999" fill="#9250f4" d="M 1988.5,732.5 C 1993.01,742.681 1997.34,753.014 2001.5,763.5C 1994.17,764.495 1987.17,766.662 1980.5,770C 1883.25,811.195 1785.91,852.195 1688.5,893C 1685.51,895.492 1682.18,897.325 1678.5,898.5C 1672.99,889.492 1667.99,880.159 1663.5,870.5C 1772.01,824.739 1880.35,778.739 1988.5,732.5 Z"/></g>
<g><path style="opacity:1" fill="#8c52f5" d="M 2001.5,763.5 C 2005.03,772.083 2008.36,780.75 2011.5,789.5C 2011.76,792.48 2010.43,794.313 2007.5,795C 1902.63,838.943 1797.96,883.11 1693.5,927.5C 1688.1,918.086 1683.1,908.42 1678.5,898.5C 1682.18,897.325 1685.51,895.492 1688.5,893C 1785.91,852.195 1883.25,811.195 1980.5,770C 1987.17,766.662 1994.17,764.495 2001.5,763.5 Z"/></g>
<g><path style="opacity:0.999" fill="#ab47f2" d="M 61.5,769.5 C 62.552,769.351 63.552,769.517 64.5,770C 173.53,852.509 282.53,935.009 391.5,1017.5C 391.5,1038.83 391.5,1060.17 391.5,1081.5C 286.119,1001.72 180.619,922.054 75,842.5C 74.6012,842.728 74.4346,843.062 74.5,843.5C 69.969,818.987 65.6357,794.32 61.5,769.5 Z"/></g>
<g><path style="opacity:0.999" fill="#8654f6" d="M 2011.5,789.5 C 2016.01,799.681 2020.34,810.014 2024.5,820.5C 1918.52,864.264 1812.86,908.598 1707.5,953.5C 1702.34,945.187 1697.67,936.52 1693.5,927.5C 1797.96,883.11 1902.63,838.943 2007.5,795C 2010.43,794.313 2011.76,792.48 2011.5,789.5 Z"/></g>
<g><path style="opacity:0.999" fill="#8056f6" d="M 2024.5,820.5 C 2027.37,827.769 2030.03,835.102 2032.5,842.5C 1928.52,886.154 1824.52,929.821 1720.5,973.5C 1719.7,973.957 1719.37,974.624 1719.5,975.5C 1715,968.495 1711,961.161 1707.5,953.5C 1812.86,908.598 1918.52,864.264 2024.5,820.5 Z"/></g>
<g><path style="opacity:0.999" fill="#a549f2" d="M 391.5,1081.5 C 391.5,1101.17 391.5,1120.83 391.5,1140.5C 289.5,1063.5 187.5,986.5 85.5,909.5C 81.2053,887.732 77.5387,865.732 74.5,843.5C 74.4346,843.062 74.6012,842.728 75,842.5C 180.619,922.054 286.119,1001.72 391.5,1081.5 Z"/></g>
<g><path style="opacity:0.999" fill="#7a58f7" d="M 2032.5,842.5 C 2037.07,852.197 2041.07,862.197 2044.5,872.5C 1940.87,915.655 1837.53,959.321 1734.5,1003.5C 1733.83,1002.83 1733.17,1002.17 1732.5,1001.5C 1728.15,992.807 1723.82,984.14 1719.5,975.5C 1719.37,974.624 1719.7,973.957 1720.5,973.5C 1824.52,929.821 1928.52,886.154 2032.5,842.5 Z"/></g>
<g><path style="opacity:1" fill="#b145f1" d="M 1655.5,857.5 C 1657.92,862.001 1660.58,866.334 1663.5,870.5C 1667.99,880.159 1672.99,889.492 1678.5,898.5C 1683.1,908.42 1688.1,918.086 1693.5,927.5C 1697.67,936.52 1702.34,945.187 1707.5,953.5C 1711,961.161 1715,968.495 1719.5,975.5C 1723.82,984.14 1728.15,992.807 1732.5,1001.5C 1707.18,1034.81 1681.52,1067.81 1655.5,1100.5C 1655.5,1019.5 1655.5,938.5 1655.5,857.5 Z"/></g>
<g><path style="opacity:0.996" fill="#7659f8" d="M 2044.5,872.5 C 2045.69,874.072 2046.69,875.739 2047.5,877.5C 2047.5,878.833 2047.5,880.167 2047.5,881.5C 1966.37,961.465 1885.37,1041.63 1804.5,1122C 1802.68,1123 1801.01,1124.16 1799.5,1125.5C 1793.83,1115.5 1788.17,1105.5 1782.5,1095.5C 1774.75,1080.33 1766.75,1065.33 1758.5,1050.5C 1750.24,1034.99 1742.24,1019.32 1734.5,1003.5C 1837.53,959.321 1940.87,915.655 2044.5,872.5 Z"/></g>
<g><path style="opacity:0.999" fill="#9f4bf3" d="M 85.5,909.5 C 187.5,986.5 289.5,1063.5 391.5,1140.5C 391.5,1163.83 391.5,1187.17 391.5,1210.5C 294.21,1137.05 197.043,1063.38 100,989.5C 99.6174,990.056 99.1174,990.389 98.5,990.5C 93.8421,963.553 89.5088,936.553 85.5,909.5 Z"/></g>
<g><path style="opacity:1" fill="#525252" d="M 719.5,923.5 C 686.671,924.498 653.671,924.832 620.5,924.5C 620.832,977.003 620.499,1029.34 619.5,1081.5C 619.5,1028.83 619.5,976.167 619.5,923.5C 652.833,923.5 686.167,923.5 719.5,923.5 Z"/></g>
<g><path style="opacity:0.999" fill="#994df4" d="M 391.5,1210.5 C 391.5,1235.17 391.5,1259.83 391.5,1284.5C 298.518,1214.52 205.518,1144.52 112.5,1074.5C 107.833,1046.5 103.167,1018.5 98.5,990.5C 99.1174,990.389 99.6174,990.056 100,989.5C 197.043,1063.38 294.21,1137.05 391.5,1210.5 Z"/></g>
<g><path style="opacity:1" fill="#ab47f2" d="M 1732.5,1001.5 C 1733.17,1002.17 1733.83,1002.83 1734.5,1003.5C 1742.24,1019.32 1750.24,1034.99 1758.5,1050.5C 1724.93,1095.74 1690.59,1140.41 1655.5,1184.5C 1655.5,1156.5 1655.5,1128.5 1655.5,1100.5C 1681.52,1067.81 1707.18,1034.81 1732.5,1001.5 Z"/></g>
<g><path style="opacity:1" fill="#a549f2" d="M 1758.5,1050.5 C 1766.75,1065.33 1774.75,1080.33 1782.5,1095.5C 1782.05,1098.14 1780.88,1100.47 1779,1102.5C 1737.81,1155.57 1696.65,1208.57 1655.5,1261.5C 1655.5,1235.83 1655.5,1210.17 1655.5,1184.5C 1690.59,1140.41 1724.93,1095.74 1758.5,1050.5 Z"/></g>
<g><path style="opacity:0.999" fill="#9250f4" d="M 112.5,1074.5 C 205.518,1144.52 298.518,1214.52 391.5,1284.5C 391.5,1308.83 391.5,1333.17 391.5,1357.5C 304.445,1292.62 217.778,1227.12 131.5,1161C 129.922,1159.91 128.255,1159.07 126.5,1158.5C 121.833,1130.5 117.166,1102.5 112.5,1074.5 Z"/></g>
<g><path style="opacity:1" fill="#9f4bf3" d="M 1782.5,1095.5 C 1788.17,1105.5 1793.83,1115.5 1799.5,1125.5C 1803.77,1133.04 1807.77,1140.7 1811.5,1148.5C 1811.07,1152.02 1809.57,1155.02 1807,1157.5C 1756.64,1222.69 1706.14,1287.69 1655.5,1352.5C 1655.5,1322.17 1655.5,1291.83 1655.5,1261.5C 1696.65,1208.57 1737.81,1155.57 1779,1102.5C 1780.88,1100.47 1782.05,1098.14 1782.5,1095.5 Z"/></g>
<g><path style="opacity:0.999" fill="#984ef4" d="M 1811.5,1148.5 C 1822.4,1167.97 1833.07,1187.64 1843.5,1207.5C 1781.08,1288.68 1718.41,1369.68 1655.5,1450.5C 1655.5,1417.83 1655.5,1385.17 1655.5,1352.5C 1706.14,1287.69 1756.64,1222.69 1807,1157.5C 1809.57,1155.02 1811.07,1152.02 1811.5,1148.5 Z"/></g>
<g><path style="opacity:0.999" fill="#8c52f5" d="M 126.5,1158.5 C 128.255,1159.07 129.922,1159.91 131.5,1161C 217.778,1227.12 304.445,1292.62 391.5,1357.5C 391.5,1376.17 391.5,1394.83 391.5,1413.5C 306.833,1349.5 222.167,1285.5 137.5,1221.5C 133.729,1200.54 130.063,1179.54 126.5,1158.5 Z"/></g>
<g><path style="opacity:0.999" fill="#9250f4" d="M 1843.5,1207.5 C 1853.77,1226.37 1863.77,1245.37 1873.5,1264.5C 1800.83,1358.17 1728.17,1451.83 1655.5,1545.5C 1655.5,1513.83 1655.5,1482.17 1655.5,1450.5C 1718.41,1369.68 1781.08,1288.68 1843.5,1207.5 Z"/></g>
<g><path style="opacity:0.998" fill="#8654f6" d="M 137.5,1221.5 C 222.167,1285.5 306.833,1349.5 391.5,1413.5C 391.5,1434.83 391.5,1456.17 391.5,1477.5C 311.21,1417.05 231.043,1356.38 151,1295.5C 150.517,1296.45 150.351,1297.45 150.5,1298.5C 145.647,1273.05 141.314,1247.38 137.5,1221.5 Z"/></g>
<g><path style="opacity:0.999" fill="#8c52f5" d="M 1873.5,1264.5 C 1881.42,1278.67 1889.08,1293 1896.5,1307.5C 1815.92,1410.99 1735.59,1514.65 1655.5,1618.5C 1655.5,1594.17 1655.5,1569.83 1655.5,1545.5C 1728.17,1451.83 1800.83,1358.17 1873.5,1264.5 Z"/></g>
<g><path style="opacity:0.999" fill="#8056f6" d="M 391.5,1477.5 C 391.5,1499.83 391.5,1522.17 391.5,1544.5C 316.377,1487.88 241.377,1431.05 166.5,1374C 165.255,1373.21 163.922,1372.71 162.5,1372.5C 158.069,1347.91 154.069,1323.25 150.5,1298.5C 150.351,1297.45 150.517,1296.45 151,1295.5C 231.043,1356.38 311.21,1417.05 391.5,1477.5 Z"/></g>
<g><path style="opacity:0.999" fill="#8654f6" d="M 1896.5,1307.5 C 1905.42,1323.67 1914.08,1340 1922.5,1356.5C 1774.59,1547.99 1626.92,1739.65 1479.5,1931.5C 1439.48,1955.19 1399.48,1978.86 1359.5,2002.5C 1448.25,1886.68 1537.25,1771.02 1626.5,1655.5C 1636.17,1655.5 1645.83,1655.5 1655.5,1655.5C 1655.5,1643.17 1655.5,1630.83 1655.5,1618.5C 1735.59,1514.65 1815.92,1410.99 1896.5,1307.5 Z"/></g>
<g><path style="opacity:0.998" fill="#8056f6" d="M 1922.5,1356.5 C 1932.4,1373.97 1942.07,1391.64 1951.5,1409.5C 1948.59,1411.24 1946.09,1413.57 1944,1416.5C 1832.05,1562.12 1719.72,1707.45 1607,1852.5C 1606.31,1853.44 1606.47,1854.1 1607.5,1854.5C 1564.87,1880.15 1522.2,1905.82 1479.5,1931.5C 1626.92,1739.65 1774.59,1547.99 1922.5,1356.5 Z"/></g>
<g><path style="opacity:0.997" fill="#7a58f7" d="M 162.5,1372.5 C 163.922,1372.71 165.255,1373.21 166.5,1374C 241.377,1431.05 316.377,1487.88 391.5,1544.5C 391.5,1551.5 391.5,1558.5 391.5,1565.5C 391.5,1565.83 391.5,1566.17 391.5,1566.5C 368.833,1566.5 346.167,1566.5 323.5,1566.5C 275.078,1528.45 226.078,1491.12 176.5,1454.5C 171.422,1427.37 166.755,1400.03 162.5,1372.5 Z"/></g>
<g><path style="opacity:0.998" fill="#7a58f7" d="M 1951.5,1409.5 C 1960.91,1427.99 1970.58,1446.32 1980.5,1464.5C 1900.35,1567.46 1820.69,1670.8 1741.5,1774.5C 1697.12,1801.53 1652.45,1828.2 1607.5,1854.5C 1606.47,1854.1 1606.31,1853.44 1607,1852.5C 1719.72,1707.45 1832.05,1562.12 1944,1416.5C 1946.09,1413.57 1948.59,1411.24 1951.5,1409.5 Z"/></g>
<g><path style="opacity:1" fill="#fefefe" d="M 511.5,1418.5 C 669.5,1418.5 827.5,1418.5 985.5,1418.5C 985.5,1444.83 985.5,1471.17 985.5,1497.5C 827.5,1497.5 669.5,1497.5 511.5,1497.5C 511.5,1471.17 511.5,1444.83 511.5,1418.5 Z"/></g>
<g><path style="opacity:0.992" fill="#7559f8" d="M 176.5,1454.5 C 226.078,1491.12 275.078,1528.45 323.5,1566.5C 280.895,1567.42 238.228,1567.92 195.5,1568C 188.469,1530.31 182.136,1492.48 176.5,1454.5 Z"/></g>
<g><path style="opacity:0.995" fill="#7559f8" d="M 1980.5,1464.5 C 2002.85,1505.87 2025.18,1547.2 2047.5,1588.5C 2047.5,1589.83 2047.5,1591.17 2047.5,1592.5C 1945.53,1653.16 1843.53,1713.82 1741.5,1774.5C 1820.69,1670.8 1900.35,1567.46 1980.5,1464.5 Z"/></g>
<g><path style="opacity:0.999" fill="#b245f1" d="M 567.5,1655.5 C 787.167,1655.5 1006.83,1655.5 1226.5,1655.5C 1154.93,1749.24 1082.76,1842.58 1010,1935.5C 1006.59,1940.07 1003.42,1944.73 1000.5,1949.5C 864.638,1902.1 728.638,1855.1 592.5,1808.5C 584.275,1757.48 575.941,1706.48 567.5,1655.5 Z"/></g>
<g><path style="opacity:0.999" fill="#ab47f2" d="M 1226.5,1655.5 C 1248.17,1655.5 1269.83,1655.5 1291.5,1655.5C 1211.09,1759.23 1131.09,1863.23 1051.5,1967.5C 1034.5,1961.5 1017.5,1955.5 1000.5,1949.5C 1003.42,1944.73 1006.59,1940.07 1010,1935.5C 1082.76,1842.58 1154.93,1749.24 1226.5,1655.5 Z"/></g>
<g><path style="opacity:0.999" fill="#a549f2" d="M 1291.5,1655.5 C 1311.17,1655.5 1330.83,1655.5 1350.5,1655.5C 1266.17,1764.83 1181.83,1874.17 1097.5,1983.5C 1082.25,1977.97 1066.91,1972.64 1051.5,1967.5C 1131.09,1863.23 1211.09,1759.23 1291.5,1655.5 Z"/></g>
<g><path style="opacity:0.999" fill="#9f4bf3" d="M 1350.5,1655.5 C 1374.17,1655.5 1397.83,1655.5 1421.5,1655.5C 1332.17,1771.17 1242.83,1886.83 1153.5,2002.5C 1134.83,1996.17 1116.17,1989.83 1097.5,1983.5C 1181.83,1874.17 1266.17,1764.83 1350.5,1655.5 Z"/></g>
<g><path style="opacity:1" fill="#984df4" d="M 1421.5,1655.5 C 1446.5,1655.5 1471.5,1655.5 1496.5,1655.5C 1402.79,1778.06 1308.46,1900.22 1213.5,2022C 1214.06,2022.38 1214.39,2022.88 1214.5,2023.5C 1193.95,2017.09 1173.62,2010.09 1153.5,2002.5C 1242.83,1886.83 1332.17,1771.17 1421.5,1655.5 Z"/></g>
<g><path style="opacity:1" fill="#9250f4" d="M 1496.5,1655.5 C 1521.17,1655.5 1545.83,1655.5 1570.5,1655.5C 1471.57,1784.43 1372.24,1913.1 1272.5,2041.5C 1271.68,2042.39 1270.68,2042.72 1269.5,2042.5C 1250.88,2036.74 1232.55,2030.41 1214.5,2023.5C 1214.39,2022.88 1214.06,2022.38 1213.5,2022C 1308.46,1900.22 1402.79,1778.06 1496.5,1655.5 Z"/></g>
<g><path style="opacity:0.999" fill="#8c52f5" d="M 1570.5,1655.5 C 1589.17,1655.5 1607.83,1655.5 1626.5,1655.5C 1537.25,1771.02 1448.25,1886.68 1359.5,2002.5C 1334.83,2017.5 1310.17,2032.5 1285.5,2047.5C 1283.83,2047.5 1282.17,2047.5 1280.5,2047.5C 1276.75,2046.03 1273.08,2044.36 1269.5,2042.5C 1270.68,2042.72 1271.68,2042.39 1272.5,2041.5C 1372.24,1913.1 1471.57,1784.43 1570.5,1655.5 Z"/></g>
</svg>
