<?xml version="1.0" encoding="utf-8"?>
<!-- Generator: Adobe Illustrator 27.3.1, SVG Export Plug-In . SVG Version: 6.00 Build 0)  -->
<svg version="1.1" id="Camada_1" xmlns="http://www.w3.org/2000/svg" xmlns:xlink="http://www.w3.org/1999/xlink" x="0px" y="0px"
	 viewBox="0 0 1763.7 1209" style="enable-background:new 0 0 1763.7 1209;" xml:space="preserve">
<style type="text/css">
	.st0{opacity:0.999;fill-rule:evenodd;clip-rule:evenodd;fill:#0277BD;enable-background:new    ;}
	.st1{fill-rule:evenodd;clip-rule:evenodd;fill:#F9F9F9;}
</style>
<g>
	<path class="st0" d="M1763.2,49.5c0,10,0,20,0,30c-2.3,15.3-5.2,30.6-8.5,46c-69.8,319.2-140.4,638.2-212,957
		c-5.4,22.6-13.4,44.3-24,65c-15,25-36.9,40.8-65.5,47.5c-20.8,4.4-41.8,6.7-63,7c-373,0.7-746,0.7-1119,0c-21.8,0.5-43.5-1.2-65-5
		c-22.5-4.1-36.9-16.9-43-38.5c0-12.7,0-25.3,0-38c2.7-15.6,5.9-31.3,9.5-47c73.8-319.5,146.8-639.2,219-959
		c6.3-26.2,17.6-49.9,34-71C450.1,18.6,480,5.4,515.2,4c178.2,0.1,356.3,0.6,534.5,1.5c211.5-1,423-1.2,634.5-0.5
		c19-0.1,37.3,3.2,55,10C1752.9,22.6,1760.9,34.1,1763.2,49.5z"/>
</g>
<g>
	<path class="st1" d="M760.2,136.5c22.4-0.3,42.1,6.8,59,21.5c6.5,6.5,13,13,19.5,19.5c111.6,125.2,224.2,249.6,338,373
		c7.8,9.2,13.8,19.6,18,31c4.1,18.1,0.1,34.1-12,48c-6.2,6.5-12.7,12.7-19.5,18.5c-185,135.2-369.7,270.8-554,407
		c-11.8,7.2-24.5,12.2-38,15c-18.8,1.8-34.8-4.1-48-17.5c-13.3-12.8-22.1-28.1-26.5-46c-0.8-16.6,4.5-30.9,16-43
		c9.2-9.2,19.1-17.7,29.5-25.5C695,826.8,847,714.5,998.2,601c-95-109-191.5-216.9-289.5-323.5c-11.9-12.9-20.9-27.5-27-44
		c-4.8-16.6-2.8-32.2,6-47C705.3,160.1,729.4,143.4,760.2,136.5z"/>
</g>
<g>
	<path class="st1" d="M878.2,903.5c110.7-0.2,221.3,0,332,0.5c22,2.6,37.5,14.1,46.5,34.5c10.7,27.1,8,52.8-8,77
		c-8.8,10.8-19.9,17.6-33.5,20.5c-112.7,0.7-225.3,0.7-338,0c-19.9-4.6-33.8-16.4-41.5-35.5c-9-25-7-49,6-72
		C850.8,915.5,863,907.2,878.2,903.5z"/>
</g>
</svg>
