<?xml version="1.0" encoding="UTF-8"?>
<!DOCTYPE svg PUBLIC "-//W3C//DTD SVG 1.1//EN" "http://www.w3.org/Graphics/SVG/1.1/DTD/svg11.dtd">
<svg xmlns="http://www.w3.org/2000/svg" version="1.1" width="1600px" height="1209px" style="shape-rendering:geometricPrecision; text-rendering:geometricPrecision; image-rendering:optimizeQuality; fill-rule:evenodd; clip-rule:evenodd" xmlns:xlink="http://www.w3.org/1999/xlink">
<g><path style="opacity:0.999" fill="#0277bd" d="M 1599.5,49.5 C 1599.5,59.5 1599.5,69.5 1599.5,79.5C 1597.15,94.7771 1594.31,110.11 1591,125.5C 1521.23,444.699 1450.56,763.699 1379,1082.5C 1373.57,1105.13 1365.57,1126.8 1355,1147.5C 1339.96,1172.51 1318.13,1188.35 1289.5,1195C 1268.73,1199.37 1247.73,1201.71 1226.5,1202C 853.5,1202.67 480.5,1202.67 107.5,1202C 85.6534,1202.46 63.9867,1200.79 42.5,1197C 19.9655,1192.95 5.6322,1180.12 -0.5,1158.5C -0.5,1145.83 -0.5,1133.17 -0.5,1120.5C 2.19122,1104.88 5.35788,1089.21 9,1073.5C 82.7887,754.012 155.789,434.345 228,114.5C 234.271,88.2946 245.605,64.628 262,43.5C 286.432,18.5608 316.266,5.39417 351.5,4C 529.667,4.06794 707.833,4.56794 886,5.5C 1097.5,4.46178 1309,4.29511 1520.5,5C 1539.49,4.90207 1557.82,8.2354 1575.5,15C 1589.23,22.5525 1597.23,34.0525 1599.5,49.5 Z"/></g>
<g><path style="opacity:1" fill="#f9f9f9" d="M 596.5,136.5 C 618.886,136.181 638.553,143.347 655.5,158C 662,164.5 668.5,171 675,177.5C 786.558,302.73 899.225,427.064 1013,550.5C 1020.78,559.719 1026.78,570.052 1031,581.5C 1035.12,599.573 1031.12,615.573 1019,629.5C 1012.8,636.032 1006.3,642.199 999.5,648C 814.478,783.178 629.811,918.845 445.5,1055C 433.712,1062.15 421.045,1067.15 407.5,1070C 388.661,1071.78 372.661,1065.94 359.5,1052.5C 346.223,1039.72 337.39,1024.39 333,1006.5C 332.202,989.895 337.535,975.562 349,963.5C 358.243,954.253 368.076,945.753 378.5,938C 531.345,826.824 683.345,714.491 834.5,601C 739.483,491.975 642.983,384.141 545,277.5C 533.129,264.622 524.129,249.955 518,233.5C 513.158,216.926 515.158,201.259 524,186.5C 541.585,160.05 565.751,143.383 596.5,136.5 Z"/></g>
<g><path style="opacity:1" fill="#f9f9f9" d="M 714.5,903.5 C 825.167,903.333 935.834,903.5 1046.5,904C 1068.52,906.604 1084.02,918.104 1093,938.5C 1103.7,965.623 1101.03,991.29 1085,1015.5C 1076.23,1026.3 1065.06,1033.13 1051.5,1036C 938.833,1036.67 826.167,1036.67 713.5,1036C 693.561,1031.4 679.728,1019.57 672,1000.5C 662.952,975.518 664.952,951.518 678,928.5C 687.105,915.54 699.271,907.207 714.5,903.5 Z"/></g>
</svg>
