<?xml version="1.0" encoding="UTF-8"?>
<!DOCTYPE svg PUBLIC "-//W3C//DTD SVG 1.1//EN" "http://www.w3.org/Graphics/SVG/1.1/DTD/svg11.dtd">
<svg xmlns="http://www.w3.org/2000/svg" version="1.1" width="113px" height="110px" style="shape-rendering:geometricPrecision; text-rendering:geometricPrecision; image-rendering:optimizeQuality; fill-rule:evenodd; clip-rule:evenodd" xmlns:xlink="http://www.w3.org/1999/xlink">
<g><path style="opacity:0.538" fill="#2f7ffe" d="M 43.5,-0.5 C 44.5,-0.5 45.5,-0.5 46.5,-0.5C 46.735,3.57672 47.4017,7.57672 48.5,11.5C 47.3112,12.4287 45.9778,12.762 44.5,12.5C 43.4341,13.6921 42.6008,13.3588 42,11.5C 41.0051,7.85494 40.1717,4.18827 39.5,0.5C 41.099,0.767809 42.4324,0.434475 43.5,-0.5 Z"/></g>
<g><path style="opacity:0.681" fill="#3180fe" d="M 50.5,-0.5 C 52.8333,-0.5 55.1667,-0.5 57.5,-0.5C 57.5,3.5 57.5,7.5 57.5,11.5C 55.5,11.5 53.5,11.5 51.5,11.5C 50.9791,7.51914 50.6458,3.51914 50.5,-0.5 Z"/></g>
<g><path style="opacity:1" fill="#3285fe" d="M 44.5,12.5 C 42.7976,9.23252 41.4643,5.73252 40.5,2C 42.1012,1.72662 43.6012,1.22662 45,0.5C 45.4461,3.34304 45.9461,6.17637 46.5,9C 46.1382,10.4343 45.4715,11.6009 44.5,12.5 Z"/></g>
<g><path style="opacity:1" fill="#3182fe" d="M 62.5,-0.5 C 63.1667,-0.5 63.8333,-0.5 64.5,-0.5C 65.5676,0.434475 66.901,0.767809 68.5,0.5C 67.9933,4.8595 67.3266,9.19284 66.5,13.5C 64.5,13.1667 62.5,12.8333 60.5,12.5C 60.7988,8.07246 61.4654,3.73912 62.5,-0.5 Z"/></g>
<g><path style="opacity:1" fill="#3282fe" d="M 33.5,2.5 C 34.7498,2.57735 35.5831,3.24402 36,4.5C 37.2778,8.16534 38.4445,11.832 39.5,15.5C 37.4012,16.2309 35.4012,16.2309 33.5,15.5C 31.8333,12.1667 30.1667,8.83333 28.5,5.5C 30.3596,4.6751 32.0262,3.6751 33.5,2.5 Z"/></g>
<g><path style="opacity:1" fill="#3182fe" d="M 73.5,2.5 C 75.9661,2.89867 77.9661,4.06533 79.5,6C 78.097,9.47276 76.4303,12.8061 74.5,16C 72.8925,15.9813 71.2259,15.8146 69.5,15.5C 70.0321,10.9048 71.3654,6.5715 73.5,2.5 Z"/></g>
<g><path style="opacity:0.629" fill="#3183fe" d="M 22.5,8.5 C 23.8221,8.33003 24.9887,8.66337 26,9.5C 27.8333,12.5 29.6667,15.5 31.5,18.5C 30.1667,19.5 28.8333,20.5 27.5,21.5C 24.4824,18.6331 21.8157,15.4664 19.5,12C 20.5442,10.8261 21.5442,9.65944 22.5,8.5 Z"/></g>
<g><path style="opacity:1" fill="#3280fe" d="M 83.5,7.5 C 85.4714,8.82312 87.4714,10.1565 89.5,11.5C 87.2133,15.1219 84.5466,18.4552 81.5,21.5C 79.9466,20.561 78.6133,19.3943 77.5,18C 79.3785,14.4072 81.3785,10.9072 83.5,7.5 Z"/></g>
<g><path style="opacity:1" fill="#3383fe" d="M 14.5,15.5 C 18.0839,17.7394 21.4172,20.4061 24.5,23.5C 22.4805,28.0254 19.8138,28.5254 16.5,25C 14.8116,23.3116 13.1449,21.6449 11.5,20C 12.3146,18.3566 13.3146,16.8566 14.5,15.5 Z"/></g>
<g><path style="opacity:0.603" fill="#3180fe" d="M 61.5,15.5 C 56.6835,16.3261 51.6835,16.8261 46.5,17C 45.1667,17.3333 43.8333,17.6667 42.5,18C 43.1079,18.8699 43.9412,19.3699 45,19.5C 51.1794,18.1859 57.3461,18.1859 63.5,19.5C 64.3081,19.1924 64.9747,18.6924 65.5,18C 63.8807,17.7645 62.8807,16.9311 62.5,15.5C 63.9952,15.9887 65.3285,16.6554 66.5,17.5C 66.1667,18.8333 65.8333,20.1667 65.5,21.5C 56.4217,18.7828 47.4217,19.1161 38.5,22.5C 43.6274,19.2557 42.9607,18.2557 36.5,19.5C 44.3428,15.5688 52.6761,14.2355 61.5,15.5 Z"/></g>
<g><path style="opacity:1" fill="#3388ff" d="M 61.5,15.5 C 61.8333,15.5 62.1667,15.5 62.5,15.5C 62.8807,16.9311 63.8807,17.7645 65.5,18C 64.9747,18.6924 64.3081,19.1924 63.5,19.5C 57.3461,18.1859 51.1794,18.1859 45,19.5C 43.9412,19.3699 43.1079,18.8699 42.5,18C 43.8333,17.6667 45.1667,17.3333 46.5,17C 51.6835,16.8261 56.6835,16.3261 61.5,15.5 Z"/></g>
<g><path style="opacity:0.816" fill="#3283fe" d="M 91.5,15.5 C 94.2496,15.618 96.2496,16.9514 97.5,19.5C 95.0658,22.2226 92.3991,24.7226 89.5,27C 86,27.5 84.5,26 85,22.5C 87.3722,20.2968 89.5389,17.9635 91.5,15.5 Z"/></g>
<g><path style="opacity:0.62" fill="#3182fe" d="M 66.5,17.5 C 71.0864,18.4598 75.0864,20.4598 78.5,23.5C 77.325,23.281 76.325,23.6143 75.5,24.5C 76.1272,25.4168 76.4606,26.4168 76.5,27.5C 73.2867,24.7256 69.62,22.7256 65.5,21.5C 65.8333,20.1667 66.1667,18.8333 66.5,17.5 Z"/></g>
<g><path style="opacity:0.971" fill="#3183fe" d="M 38.5,22.5 C 35.8717,24.4884 33.205,26.4884 30.5,28.5C 30.631,27.7611 30.4643,27.0944 30,26.5C 27.9817,27.2228 26.1484,28.2228 24.5,29.5C 24.8588,27.629 25.8588,26.129 27.5,25C 30.2223,22.6422 33.2223,20.8089 36.5,19.5C 42.9607,18.2557 43.6274,19.2557 38.5,22.5 Z"/></g>
<g><path style="opacity:0.622" fill="#3182fe" d="M 71.5,26.5 C 70.7611,26.369 70.0944,26.5357 69.5,27C 70.5981,27.7697 70.5981,28.603 69.5,29.5C 60.5863,24.8864 51.5863,24.553 42.5,28.5C 42.5774,27.2502 43.244,26.4169 44.5,26C 43.6195,25.2917 42.9528,24.4584 42.5,23.5C 52.7159,20.1078 62.3825,21.1078 71.5,26.5 Z"/></g>
<g><path style="opacity:1" fill="#3283fe" d="M 98.5,24.5 C 101.246,24.9276 102.913,26.5943 103.5,29.5C 99.9934,31.754 96.3267,33.754 92.5,35.5C 90.8608,34.084 90.0275,32.4174 90,30.5C 92.9877,28.6009 95.8211,26.6009 98.5,24.5 Z"/></g>
<g><path style="opacity:0.947" fill="#3283fe" d="M 7.5,24.5 C 11.471,25.5719 14.971,27.5719 18,30.5C 18.2649,32.1626 17.7649,33.6626 16.5,35C 12.2247,34.0333 8.22469,32.1999 4.5,29.5C 5.76294,27.9713 6.76294,26.3046 7.5,24.5 Z"/></g>
<g><path style="opacity:1" fill="#3382fe" d="M 67.5,31.5 C 66.1779,31.33 65.0113,31.6634 64,32.5C 63.6667,31.8333 63.3333,31.1667 63,30.5C 62.1841,31.8228 61.0174,32.4894 59.5,32.5C 54.0089,32.1497 48.6755,32.8164 43.5,34.5C 44.4054,33.2976 44.4054,31.9643 43.5,30.5C 51.6311,26.4666 59.6311,26.7999 67.5,31.5 Z"/></g>
<g><path style="opacity:1" fill="#3183fe" d="M 30.5,28.5 C 19.6433,39.9369 16.6433,53.2702 21.5,68.5C 20.8333,67.8333 20.1667,67.1667 19.5,66.5C 17.8766,58.0614 18.21,49.728 20.5,41.5C 19.8075,40.4822 19.1408,39.4822 18.5,38.5C 19.7232,34.9505 21.7232,31.9505 24.5,29.5C 26.1484,28.2228 27.9817,27.2228 30,26.5C 30.4643,27.0944 30.631,27.7611 30.5,28.5 Z"/></g>
<g><path style="opacity:0.659" fill="#3284fe" d="M 42.5,23.5 C 42.9528,24.4584 43.6195,25.2917 44.5,26C 43.244,26.4169 42.5774,27.2502 42.5,28.5C 34.2812,32.3869 28.9478,38.7202 26.5,47.5C 25.5,47.5 24.5,47.5 23.5,47.5C 24.0991,44.0369 25.0991,40.7036 26.5,37.5C 30.1303,30.9986 35.4637,26.3319 42.5,23.5 Z"/></g>
<g><path style="opacity:1" fill="#3284fe" d="M 71.5,26.5 C 77.3071,29.6388 81.3071,34.3055 83.5,40.5C 83.5386,41.7562 83.0386,42.7562 82,43.5C 81.5831,42.244 80.7498,41.5774 79.5,41.5C 77.2371,36.5736 73.9037,32.5736 69.5,29.5C 70.5981,28.603 70.5981,27.7697 69.5,27C 70.0944,26.5357 70.7611,26.369 71.5,26.5 Z"/></g>
<g><path style="opacity:0.969" fill="#3285fe" d="M 78.5,23.5 C 85.2601,28.5927 89.5934,35.2593 91.5,43.5C 93.1147,50.615 92.7813,57.615 90.5,64.5C 90.4258,59.2595 90.2591,53.9262 90,48.5C 89.4947,45.135 88.328,42.135 86.5,39.5C 83.5434,35.2079 80.2101,31.2079 76.5,27.5C 76.4606,26.4168 76.1272,25.4168 75.5,24.5C 76.325,23.6143 77.325,23.281 78.5,23.5 Z"/></g>
<g><path style="opacity:0.896" fill="#3486fe" d="M 67.5,31.5 C 70.1092,32.4431 72.1092,34.1097 73.5,36.5C 73.4142,37.4959 73.7476,38.3292 74.5,39C 73.4982,40.1563 72.4982,40.6563 71.5,40.5C 68.1917,36.8424 64.1917,34.1757 59.5,32.5C 61.0174,32.4894 62.1841,31.8228 63,30.5C 63.3333,31.1667 63.6667,31.8333 64,32.5C 65.0113,31.6634 66.1779,31.33 67.5,31.5 Z"/></g>
<g><path style="opacity:0.414" fill="#2f80ff" d="M 53.5,34.5 C 52.1667,47.8333 52.1667,61.1667 53.5,74.5C 52.1699,68.2017 51.5032,61.5351 51.5,54.5C 51.5032,47.4649 52.1699,40.7983 53.5,34.5 Z"/></g>
<g><path style="opacity:0.998" fill="#3285fe" d="M 53.5,34.5 C 54.1667,34.5 54.8333,34.5 55.5,34.5C 55.5,47.8333 55.5,61.1667 55.5,74.5C 54.8333,74.5 54.1667,74.5 53.5,74.5C 52.1667,61.1667 52.1667,47.8333 53.5,34.5 Z"/></g>
<g><path style="opacity:0.86" fill="#2d7afe" d="M 55.5,34.5 C 56.1174,34.6107 56.6174,34.944 57,35.5C 57.6667,48.1667 57.6667,60.8333 57,73.5C 56.6174,74.056 56.1174,74.3893 55.5,74.5C 55.5,61.1667 55.5,47.8333 55.5,34.5 Z"/></g>
<g><path style="opacity:1" fill="#3281fe" d="M 2.5,34.5 C 6.168,35.5555 9.83466,36.7222 13.5,38C 14.9986,40.8269 14.1653,42.6603 11,43.5C 7.12036,42.8359 3.62036,41.5026 0.5,39.5C 1.17444,37.8045 1.8411,36.1379 2.5,34.5 Z"/></g>
<g><path style="opacity:0.785" fill="#327efe" d="M 63.5,37.5 C 61.5216,48.7854 60.8549,60.4521 61.5,72.5C 60.7611,72.631 60.0944,72.4643 59.5,72C 60.6365,59.8305 60.8031,47.6638 60,35.5C 61.3024,36.0848 62.469,36.7515 63.5,37.5 Z"/></g>
<g><path style="opacity:1" fill="#3282fe" d="M 102.5,34.5 C 103.833,34.5 105.167,34.5 106.5,34.5C 106.993,36.8056 107.326,39.139 107.5,41.5C 104.115,41.8457 100.782,42.5123 97.5,43.5C 95.2933,43.119 93.96,41.7857 93.5,39.5C 96.4791,37.6333 99.4791,35.9667 102.5,34.5 Z"/></g>
<g><path style="opacity:0.83" fill="#3183fe" d="M 47.5,35.5 C 48.4952,47.6554 48.8286,59.9887 48.5,72.5C 46.4176,72.528 44.5843,71.8613 43,70.5C 42.3333,59.8333 42.3333,49.1667 43,38.5C 44.6516,37.6006 46.1516,36.6006 47.5,35.5 Z"/></g>
<g><path style="opacity:0.997" fill="#3285fe" d="M 63.5,37.5 C 64.8288,42.7918 65.4955,48.4585 65.5,54.5C 65.1667,60.1667 64.8333,65.8333 64.5,71.5C 63.5832,72.1272 62.5832,72.4606 61.5,72.5C 60.8549,60.4521 61.5216,48.7854 63.5,37.5 Z"/></g>
<g><path style="opacity:0.988" fill="#3284fe" d="M 43.5,30.5 C 44.4054,31.9643 44.4054,33.2976 43.5,34.5C 39.8169,37.1849 36.8169,40.5182 34.5,44.5C 31.9413,47.3331 30.608,46.6664 30.5,42.5C 32.9488,36.4448 37.2821,32.4448 43.5,30.5 Z"/></g>
<g><path style="opacity:1" fill="#3285fe" d="M 73.5,36.5 C 74.9063,36.9731 75.573,37.9731 75.5,39.5C 77.9462,44.0081 79.2795,48.8414 79.5,54C 79.1667,55.8333 78.8333,57.6667 78.5,59.5C 78.1038,55.7366 77.1038,52.4032 75.5,49.5C 74.9769,46.122 73.6435,43.122 71.5,40.5C 72.4982,40.6563 73.4982,40.1563 74.5,39C 73.7476,38.3292 73.4142,37.4959 73.5,36.5 Z"/></g>
<g><path style="opacity:0.845" fill="#317efe" d="M 37.5,63.5 C 38.8333,57.5 38.8333,51.5 37.5,45.5C 37.4148,44.0047 38.0815,43.0047 39.5,42.5C 40.8333,50.5 40.8333,58.5 39.5,66.5C 38.0815,65.9953 37.4148,64.9953 37.5,63.5 Z"/></g>
<g><path style="opacity:0.65" fill="#3382fe" d="M 30.5,42.5 C 30.608,46.6664 31.9413,47.3331 34.5,44.5C 31.6504,52.2812 31.9838,59.9479 35.5,67.5C 33.8639,66.2511 32.6972,64.5844 32,62.5C 30.3721,63.9617 30.2054,65.6283 31.5,67.5C 30.0337,66.653 29.2004,65.3197 29,63.5C 26.7348,56.1819 27.2348,49.1819 30.5,42.5 Z"/></g>
<g><path style="opacity:1" fill="#3387fe" d="M 70.5,44.5 C 70.5,51.1667 70.5,57.8333 70.5,64.5C 70.6309,65.3764 70.2975,66.0431 69.5,66.5C 68.1667,58.5 68.1667,50.5 69.5,42.5C 70.2975,42.9569 70.6309,43.6236 70.5,44.5 Z"/></g>
<g><path style="opacity:0.702" fill="#3280fe" d="M 83.5,40.5 C 88.8333,49.8333 88.8333,59.1667 83.5,68.5C 83.5386,67.2438 83.0386,66.2438 82,65.5C 81.5017,67.5444 80.335,68.8777 78.5,69.5C 81.072,65.2155 82.4054,60.5488 82.5,55.5C 83.7757,58.0303 83.7757,60.6969 82.5,63.5C 82.8076,64.3081 83.3076,64.9747 84,65.5C 86,58.1667 86,50.8333 84,43.5C 83.3076,44.0253 82.8076,44.6919 82.5,45.5C 83.7757,48.3031 83.7757,50.9697 82.5,53.5C 82.4337,49.2347 81.4337,45.2347 79.5,41.5C 80.7498,41.5774 81.5831,42.244 82,43.5C 83.0386,42.7562 83.5386,41.7562 83.5,40.5 Z"/></g>
<g><path style="opacity:0.671" fill="#327efe" d="M 86.5,39.5 C 88.328,42.135 89.4947,45.135 90,48.5C 90.2591,53.9262 90.4258,59.2595 90.5,64.5C 92.7813,57.615 93.1147,50.615 91.5,43.5C 94.4167,52.8574 93.9167,62.1907 90,71.5C 89.6232,72.9423 88.7899,73.9423 87.5,74.5C 88.3497,72.5056 88.8497,70.5056 89,68.5C 88.6667,68.1667 88.3333,67.8333 88,67.5C 87.5017,69.5444 86.335,70.8777 84.5,71.5C 90.217,61.1804 90.8837,50.5137 86.5,39.5 Z"/></g>
<g><path style="opacity:0.694" fill="#3080fe" d="M 17.5,41.5 C 16.4833,48.8052 16.3167,56.1385 17,63.5C 17.2355,65.1193 18.0689,66.1193 19.5,66.5C 19.1961,67.1499 18.8627,67.8165 18.5,68.5C 19.7878,70.7388 20.7878,73.0721 21.5,75.5C 19.2542,73.3511 17.7542,70.6844 17,67.5C 13.5388,58.6276 13.7054,49.9609 17.5,41.5 Z"/></g>
<g><path style="opacity:1" fill="#3386ff" d="M 82.5,55.5 C 82.5,54.8333 82.5,54.1667 82.5,53.5C 83.7757,50.9697 83.7757,48.3031 82.5,45.5C 82.8076,44.6919 83.3076,44.0253 84,43.5C 86,50.8333 86,58.1667 84,65.5C 83.3076,64.9747 82.8076,64.3081 82.5,63.5C 83.7757,60.6969 83.7757,58.0303 82.5,55.5 Z"/></g>
<g><path style="opacity:0.55" fill="#3183fe" d="M -0.5,45.5 C 3.53404,45.6721 7.53404,46.1721 11.5,47C 12.7468,48.4579 12.7468,49.9579 11.5,51.5C 7.55461,52.4909 3.55461,52.8242 -0.5,52.5C -0.5,50.1667 -0.5,47.8333 -0.5,45.5 Z"/></g>
<g><path style="opacity:0.682" fill="#3183fe" d="M 103.5,45.5 C 108.906,44.7353 110.906,47.0687 109.5,52.5C 105.167,52.5 100.833,52.5 96.5,52.5C 96.5,50.5 96.5,48.5 96.5,46.5C 99.0593,46.8016 101.393,46.4682 103.5,45.5 Z"/></g>
<g><path style="opacity:0.484" fill="#3183fe" d="M 37.5,45.5 C 38.8333,51.5 38.8333,57.5 37.5,63.5C 33.5,57.5 33.5,51.5 37.5,45.5 Z"/></g>
<g><path style="opacity:0.444" fill="#3082fe" d="M 70.5,44.5 C 71.9663,45.347 72.7996,46.6803 73,48.5C 73.6667,52.5 73.6667,56.5 73,60.5C 72.7996,62.3197 71.9663,63.653 70.5,64.5C 70.5,57.8333 70.5,51.1667 70.5,44.5 Z"/></g>
<g><path style="opacity:1" fill="#3182fe" d="M -0.5,56.5 C 3.55461,56.1758 7.55461,56.5091 11.5,57.5C 13.087,59.4461 12.7536,60.9461 10.5,62C 6.85457,62.7189 3.18791,63.2189 -0.5,63.5C -0.5,61.1667 -0.5,58.8333 -0.5,56.5 Z"/></g>
<g><path style="opacity:1" fill="#3180fe" d="M 96.5,56.5 C 100.833,56.5 105.167,56.5 109.5,56.5C 109.5,58.8333 109.5,61.1667 109.5,63.5C 105.176,63.0728 100.842,62.7395 96.5,62.5C 96.5,60.5 96.5,58.5 96.5,56.5 Z"/></g>
<g><path style="opacity:0.51" fill="#3080fe" d="M 75.5,39.5 C 77.7458,41.6489 79.2458,44.3156 80,47.5C 80.7335,52.8851 80.5668,58.2185 79.5,63.5C 78.6851,62.5707 77.8518,61.5707 77,60.5C 76.5762,63.0254 75.4095,65.0254 73.5,66.5C 76.2266,61.0239 76.8932,55.3572 75.5,49.5C 77.1038,52.4032 78.1038,55.7366 78.5,59.5C 78.8333,57.6667 79.1667,55.8333 79.5,54C 79.2795,48.8414 77.9462,44.0081 75.5,39.5 Z"/></g>
<g><path style="opacity:1" fill="#3387fe" d="M 18.5,38.5 C 19.1408,39.4822 19.8075,40.4822 20.5,41.5C 18.21,49.728 17.8766,58.0614 19.5,66.5C 18.0689,66.1193 17.2355,65.1193 17,63.5C 16.3167,56.1385 16.4833,48.8052 17.5,41.5C 17.2627,40.209 17.596,39.209 18.5,38.5 Z"/></g>
<g><path style="opacity:0.693" fill="#3182fe" d="M 26.5,37.5 C 25.0991,40.7036 24.0991,44.0369 23.5,47.5C 24.5,47.5 25.5,47.5 26.5,47.5C 25.1719,53.8969 25.5053,60.2303 27.5,66.5C 26.5492,63.9548 25.5492,63.9548 24.5,66.5C 25.4565,68.0754 26.1231,69.742 26.5,71.5C 22.6514,66.6082 20.9847,60.9416 21.5,54.5C 20.9847,48.0584 22.6514,42.3918 26.5,37.5 Z"/></g>
<g><path style="opacity:1" fill="#3182fe" d="M 8.5,65.5 C 12.6914,64.8686 14.5248,66.5352 14,70.5C 10.2754,72.2993 6.44209,73.466 2.5,74C 1.36213,72.2657 0.862127,70.4324 1,68.5C 3.67194,67.718 6.17194,66.718 8.5,65.5 Z"/></g>
<g><path style="opacity:0.966" fill="#3285fe" d="M 35.5,67.5 C 37.6298,69.1271 39.6298,70.9604 41.5,73C 43.9252,74.2126 46.2585,75.3793 48.5,76.5C 46.8695,78.184 45.2028,78.8507 43.5,78.5C 37.7746,76.6497 33.7746,72.983 31.5,67.5C 30.2054,65.6283 30.3721,63.9617 32,62.5C 32.6972,64.5844 33.8639,66.2511 35.5,67.5 Z"/></g>
<g><path style="opacity:0.58" fill="#3382fe" d="M 95.5,65.5 C 99.5,66.1667 103.5,66.8333 107.5,67.5C 107.326,69.861 106.993,72.1944 106.5,74.5C 101.777,73.815 97.4434,72.1483 93.5,69.5C 94.1799,68.1401 94.8466,66.8068 95.5,65.5 Z"/></g>
<g><path style="opacity:0.976" fill="#3284fe" d="M 83.5,68.5 C 82.1486,72.5416 79.8152,75.8749 76.5,78.5C 75.2418,79.0164 74.2418,78.3497 73.5,76.5C 75.4121,74.3428 77.0787,72.0094 78.5,69.5C 80.335,68.8777 81.5017,67.5444 82,65.5C 83.0386,66.2438 83.5386,67.2438 83.5,68.5 Z"/></g>
<g><path style="opacity:1" fill="#3284fe" d="M 27.5,66.5 C 29.3998,68.6195 31.0664,70.9528 32.5,73.5C 32.178,75.7224 32.8446,77.5557 34.5,79C 34.2716,79.3988 33.9382,79.5654 33.5,79.5C 30.4275,77.4309 28.0941,74.7642 26.5,71.5C 26.1231,69.742 25.4565,68.0754 24.5,66.5C 25.5492,63.9548 26.5492,63.9548 27.5,66.5 Z"/></g>
<g><path style="opacity:0.896" fill="#3285fe" d="M 79.5,63.5 C 77.4614,68.2542 74.4614,72.2542 70.5,75.5C 68.6203,75.7709 67.287,75.1042 66.5,73.5C 69.1667,71.5 71.5,69.1667 73.5,66.5C 75.4095,65.0254 76.5762,63.0254 77,60.5C 77.8518,61.5707 78.6851,62.5707 79.5,63.5 Z"/></g>
<g><path style="opacity:1" fill="#3385fe" d="M 87.5,74.5 C 85.9668,78.704 83.3002,82.0374 79.5,84.5C 78.7611,84.631 78.0944,84.4643 77.5,84C 78.5981,83.2303 78.5981,82.397 77.5,81.5C 79.8333,78.1667 82.1667,74.8333 84.5,71.5C 86.335,70.8777 87.5017,69.5444 88,67.5C 88.3333,67.8333 88.6667,68.1667 89,68.5C 88.8497,70.5056 88.3497,72.5056 87.5,74.5 Z"/></g>
<g><path style="opacity:1" fill="#3284fe" d="M 19.5,66.5 C 20.1667,67.1667 20.8333,67.8333 21.5,68.5C 25.413,75.0824 30.413,80.7491 36.5,85.5C 36.0269,86.9063 35.0269,87.573 33.5,87.5C 27.8333,85.1667 23.8333,81.1667 21.5,75.5C 20.7878,73.0721 19.7878,70.7388 18.5,68.5C 18.8627,67.8165 19.1961,67.1499 19.5,66.5 Z"/></g>
<g><path style="opacity:1" fill="#3282fe" d="M 14.5,73.5 C 17.6537,74.4739 18.6537,76.4739 17.5,79.5C 14.439,81.8688 11.1057,83.3688 7.5,84C 6.62404,82.414 5.62404,80.914 4.5,79.5C 7.89678,77.4741 11.2301,75.4741 14.5,73.5 Z"/></g>
<g><path style="opacity:0.483" fill="#3182fe" d="M 66.5,73.5 C 67.287,75.1042 68.6203,75.7709 70.5,75.5C 62.0663,82.0131 53.0663,83.0131 43.5,78.5C 45.2028,78.8507 46.8695,78.184 48.5,76.5C 54.7999,77.0515 60.7999,76.0515 66.5,73.5 Z"/></g>
<g><path style="opacity:1" fill="#3283fe" d="M 91.5,73.5 C 95.7568,74.9617 99.7568,76.9617 103.5,79.5C 102.833,80.8333 102.167,82.1667 101.5,83.5C 100.635,84.5827 99.635,84.7494 98.5,84C 95.1085,82.311 92.1085,80.1443 89.5,77.5C 90.6302,76.3777 91.2969,75.0443 91.5,73.5 Z"/></g>
<g><path style="opacity:1" fill="#3483fe" d="M 19.5,81.5 C 21.7288,82.0553 23.3954,83.3886 24.5,85.5C 21.5,88.1667 18.5,90.8333 15.5,93.5C 13.6251,92.4597 12.2918,90.9597 11.5,89C 14.0414,86.2896 16.708,83.7896 19.5,81.5 Z"/></g>
<g><path style="opacity:1" fill="#3284fe" d="M 32.5,73.5 C 35.8116,77.1588 39.8116,79.8255 44.5,81.5C 44.5674,82.9587 44.2341,84.2921 43.5,85.5C 39.4945,84.5023 36.1612,82.5023 33.5,79.5C 33.9382,79.5654 34.2716,79.3988 34.5,79C 32.8446,77.5557 32.178,75.7224 32.5,73.5 Z"/></g>
<g><path style="opacity:0.956" fill="#3182fe" d="M 77.5,81.5 C 78.5981,82.397 78.5981,83.2303 77.5,84C 78.0944,84.4643 78.7611,84.631 79.5,84.5C 69.2288,93.2428 57.5621,95.9095 44.5,92.5C 44.8417,91.6618 45.5084,91.3284 46.5,91.5C 46.1193,90.0689 45.1193,89.2355 43.5,89C 43.7284,88.6012 44.0618,88.4346 44.5,88.5C 56.607,91.0543 67.607,88.721 77.5,81.5 Z"/></g>
<g><path style="opacity:1" fill="#3281fe" d="M 86.5,81.5 C 90.3437,83.1518 93.8437,85.4851 97,88.5C 96.758,90.1381 95.9247,91.6381 94.5,93C 93.5,93.6667 92.5,93.6667 91.5,93C 89.3333,90.8333 87.1667,88.6667 85,86.5C 84.3872,84.5048 84.8872,82.8381 86.5,81.5 Z"/></g>
<g><path style="opacity:0.862" fill="#3384fe" d="M 36.5,85.5 C 39.3973,86.129 42.064,87.129 44.5,88.5C 44.0618,88.4346 43.7284,88.6012 43.5,89C 45.1193,89.2355 46.1193,90.0689 46.5,91.5C 45.5084,91.3284 44.8417,91.6618 44.5,92.5C 40.3114,91.7795 36.6448,90.1128 33.5,87.5C 35.0269,87.573 36.0269,86.9063 36.5,85.5 Z"/></g>
<g><path style="opacity:0.436" fill="#3182fe" d="M 73.5,76.5 C 74.2418,78.3497 75.2418,79.0164 76.5,78.5C 66.8686,87.3248 55.8686,89.6581 43.5,85.5C 44.2341,84.2921 44.5674,82.9587 44.5,81.5C 54.9858,84.4747 64.6525,82.808 73.5,76.5 Z"/></g>
<g><path style="opacity:1" fill="#3388ff" d="M 46.5,91.5 C 53.2096,90.971 59.8762,89.971 66.5,88.5C 67.3081,88.8076 67.9747,89.3076 68.5,90C 61.1561,92.5229 53.8227,93.0229 46.5,91.5 Z"/></g>
<g><path style="opacity:0.981" fill="#3282fe" d="M 80.5,87.5 C 83.7827,89.9528 86.6161,92.9528 89,96.5C 89.6877,97.3317 89.521,97.9984 88.5,98.5C 86.5878,100.156 84.5878,100.489 82.5,99.5C 80.7005,96.7328 79.0338,93.8994 77.5,91C 78.5442,89.8261 79.5442,88.6594 80.5,87.5 Z"/></g>
<g><path style="opacity:0.987" fill="#3183fe" d="M 26.5,87.5 C 28.3936,88.0476 30.0603,89.0476 31.5,90.5C 29.7008,94.465 27.2008,97.7983 24,100.5C 22.2054,99.7046 20.7054,98.5379 19.5,97C 21.9592,93.91 24.2925,90.7434 26.5,87.5 Z"/></g>
<g><path style="opacity:1" fill="#3282fe" d="M 33.5,92.5 C 35.5,92.8333 37.5,93.1667 39.5,93.5C 38.4226,98.0664 36.7559,102.4 34.5,106.5C 32.4899,105.498 30.4899,104.498 28.5,103.5C 30.4526,99.9307 32.1192,96.264 33.5,92.5 Z"/></g>
<g><path style="opacity:1" fill="#3182fe" d="M 72.5,92.5 C 73.4959,92.4142 74.3292,92.7476 75,93.5C 76.6365,96.6061 78.1365,99.7728 79.5,103C 78.0456,104.713 76.2123,105.88 74,106.5C 71.4087,102.56 69.9087,98.2265 69.5,93.5C 70.791,93.7373 71.791,93.404 72.5,92.5 Z"/></g>
<g><path style="opacity:0.514" fill="#3283fe" d="M 64.5,109.5 C 63.8333,109.5 63.1667,109.5 62.5,109.5C 61.4654,105.261 60.7988,100.928 60.5,96.5C 62.5,96.1667 64.5,95.8333 66.5,95.5C 67.3266,99.8072 67.9933,104.14 68.5,108.5C 66.901,108.232 65.5676,108.566 64.5,109.5 Z"/></g>
<g><path style="opacity:1" fill="#3284fe" d="M 44.5,95.5 C 47.0274,98.0329 47.0274,100.533 44.5,103C 45.3802,104.356 45.7135,105.856 45.5,107.5C 43.8008,107.66 42.1341,107.494 40.5,107C 41.8664,104.003 42.533,100.836 42.5,97.5C 42.5,96.1667 43.1667,95.5 44.5,95.5 Z"/></g>
<g><path style="opacity:1" fill="#3180fe" d="M 57.5,109.5 C 55.1667,109.5 52.8333,109.5 50.5,109.5C 50.5775,105.123 51.0775,100.79 52,96.5C 53.7506,97.1737 55.4173,97.507 57,97.5C 57.4988,101.486 57.6655,105.486 57.5,109.5 Z"/></g>
<g><path style="opacity:0.524" fill="#307efe" d="M 44.5,95.5 C 45.9008,95.9709 47.2342,96.6376 48.5,97.5C 47.4017,101.423 46.735,105.423 46.5,109.5C 45.5,109.5 44.5,109.5 43.5,109.5C 42.4324,108.566 41.099,108.232 39.5,108.5C 40.0552,104.603 41.0552,100.937 42.5,97.5C 42.533,100.836 41.8664,104.003 40.5,107C 42.1341,107.494 43.8008,107.66 45.5,107.5C 45.7135,105.856 45.3802,104.356 44.5,103C 47.0274,100.533 47.0274,98.0329 44.5,95.5 Z"/></g>
</svg>
