<?xml version="1.0" encoding="UTF-8"?>
<!DOCTYPE svg PUBLIC "-//W3C//DTD SVG 1.1//EN" "http://www.w3.org/Graphics/SVG/1.1/DTD/svg11.dtd">
<svg xmlns="http://www.w3.org/2000/svg" version="1.1" width="1200px" height="1200px" style="shape-rendering:geometricPrecision; text-rendering:geometricPrecision; image-rendering:optimizeQuality; fill-rule:evenodd; clip-rule:evenodd" xmlns:xlink="http://www.w3.org/1999/xlink">
<g><path style="opacity:0.999" fill="#24d38f" d="M 509.5,-0.5 C 511.167,-0.5 512.833,-0.5 514.5,-0.5C 519.833,3.5 525.167,7.5 530.5,11.5C 529.475,11.8966 529.308,12.5632 530,13.5C 575.333,74.8333 620.667,136.167 666,197.5C 666.671,198.252 667.504,198.586 668.5,198.5C 657.694,208.468 646.694,218.301 635.5,228C 693.166,228.5 750.832,228.667 808.5,228.5C 847.833,228.5 887.167,228.5 926.5,228.5C 694.334,229.5 462.001,229.833 229.5,229.5C 282.664,228.501 335.997,228.168 389.5,228.5C 460.167,228.667 530.834,228.5 601.5,228C 551.668,160.008 501.668,92.1743 451.5,24.5C 470.833,16.1667 490.167,7.83333 509.5,-0.5 Z"/></g>
<g><path style="opacity:0.999" fill="#20d68b" d="M 451.5,24.5 C 501.668,92.1743 551.668,160.008 601.5,228C 530.834,228.5 460.167,228.667 389.5,228.5C 355.781,183.448 322.447,138.114 289.5,92.5C 343.202,69.3213 397.202,46.6546 451.5,24.5 Z"/></g>
<g><path style="opacity:0.991" fill="#a6e36d" d="M 891.5,-0.5 C 892.167,-0.5 892.833,-0.5 893.5,-0.5C 900.26,46.8227 906.927,94.156 913.5,141.5C 913.304,143.646 912.304,143.812 910.5,142C 878.289,117.616 845.956,93.4498 813.5,69.5C 839.202,45.7963 865.202,22.4629 891.5,-0.5 Z"/></g>
<g><path style="opacity:0.994" fill="#1ed397" d="M 530.5,11.5 C 597.48,54.6588 664.147,98.3255 730.5,142.5C 725.854,147.812 720.854,152.812 715.5,157.5C 699.537,170.794 683.871,184.46 668.5,198.5C 667.504,198.586 666.671,198.252 666,197.5C 620.667,136.167 575.333,74.8333 530,13.5C 529.308,12.5632 529.475,11.8966 530.5,11.5 Z"/></g>
<g><path style="opacity:0.996" fill="#9fe36e" d="M 813.5,69.5 C 845.956,93.4498 878.289,117.616 910.5,142C 912.304,143.812 913.304,143.646 913.5,141.5C 918.189,169.98 922.522,198.647 926.5,227.5C 873.87,189.507 821.537,151.007 769.5,112C 768.748,111.329 768.414,110.496 768.5,109.5C 782.895,95.4719 797.895,82.1386 813.5,69.5 Z"/></g>
<g><path style="opacity:0.998" fill="#21d688" d="M 289.5,92.5 C 322.447,138.114 355.781,183.448 389.5,228.5C 335.997,228.168 282.664,228.501 229.5,229.5C 229.5,476.167 229.5,722.833 229.5,969.5C 228.513,964.695 228.179,959.695 228.5,954.5C 228.5,939.833 228.5,925.167 228.5,910.5C 228.5,894.5 228.5,878.5 228.5,862.5C 228.5,848.167 228.5,833.833 228.5,819.5C 228.5,806.5 228.5,793.5 228.5,780.5C 228.5,768.5 228.5,756.5 228.5,744.5C 228.5,728.5 228.5,712.5 228.5,696.5C 228.5,685.5 228.5,674.5 228.5,663.5C 228.667,648.496 228.5,633.496 228,618.5C 219.918,630.4 212.084,642.4 204.5,654.5C 197.685,663.45 191.351,672.783 185.5,682.5C 176.598,695.291 167.932,708.291 159.5,721.5C 152.449,731.223 145.782,741.223 139.5,751.5C 131.425,761.976 124.092,772.976 117.5,784.5C 112.255,791.324 107.255,798.324 102.5,805.5C 76.5334,771.591 51.0334,737.258 26,702.5C 25.2303,701.402 24.397,701.402 23.5,702.5C 39.6692,529.141 56.1692,355.807 73,182.5C 145.012,152.076 217.178,122.076 289.5,92.5 Z"/></g>
<g><path style="opacity:0.999" fill="#99e270" d="M 768.5,109.5 C 768.414,110.496 768.748,111.329 769.5,112C 821.537,151.007 873.87,189.507 926.5,227.5C 926.5,227.833 926.5,228.167 926.5,228.5C 887.167,228.5 847.833,228.5 808.5,228.5C 778.35,205.863 748.016,183.363 717.5,161C 716.177,160.184 715.511,159.017 715.5,157.5C 720.854,152.812 725.854,147.812 730.5,142.5C 743.167,131.5 755.833,120.5 768.5,109.5 Z"/></g>
<g><path style="opacity:1" fill="#92e171" d="M 715.5,157.5 C 715.511,159.017 716.177,160.184 717.5,161C 748.016,183.363 778.35,205.863 808.5,228.5C 750.832,228.667 693.166,228.5 635.5,228C 646.694,218.301 657.694,208.468 668.5,198.5C 683.871,184.46 699.537,170.794 715.5,157.5 Z"/></g>
<g><path style="opacity:1" fill="#000000" d="M 926.5,228.5 C 941.167,228.5 955.833,228.5 970.5,228.5C 970.5,250.833 970.5,273.167 970.5,295.5C 969.501,375.998 969.167,456.665 969.5,537.5C 969.5,681.5 969.5,825.5 969.5,969.5C 767.833,969.5 566.167,969.5 364.5,969.5C 319.5,969.5 274.5,969.5 229.5,969.5C 229.5,722.833 229.5,476.167 229.5,229.5C 462.001,229.833 694.334,229.5 926.5,228.5 Z"/></g>
<g><path style="opacity:0.999" fill="#0dc4d7" d="M 970.5,295.5 C 977.859,301.862 985.192,308.196 992.5,314.5C 991.167,385.833 991.167,457.167 992.5,528.5C 985.146,532.067 977.479,535.067 969.5,537.5C 969.167,456.665 969.501,375.998 970.5,295.5 Z"/></g>
<g><path style="opacity:0.998" fill="#0cc6de" d="M 992.5,314.5 C 1003.58,323.035 1014.24,332.035 1024.5,341.5C 1023.17,399.833 1023.17,458.167 1024.5,516.5C 1014.13,521.071 1003.46,525.071 992.5,528.5C 991.167,457.167 991.167,385.833 992.5,314.5 Z"/></g>
<g><path style="opacity:1" fill="#fdfdfd" d="M 713.5,321.5 C 751.443,318.873 786.776,327.039 819.5,346C 830.05,352.604 839.383,360.604 847.5,370C 833.721,386.783 819.554,403.283 805,419.5C 773.741,388.477 736.907,378.977 694.5,391C 662.532,405.727 643.699,430.56 638,465.5C 634.862,494.621 641.862,520.954 659,544.5C 685.202,572.554 717.035,581.72 754.5,572C 774.569,565.254 792.069,554.421 807,539.5C 821.347,553.681 835.514,568.014 849.5,582.5C 819.724,616.719 782.058,634.886 736.5,637C 669.296,640.988 618.796,614.155 585,556.5C 565.88,516.23 562.213,474.563 574,431.5C 597.721,365.946 644.221,329.28 713.5,321.5 Z"/></g>
<g><path style="opacity:1" fill="#aeaeae" d="M 429.5,327.5 C 385.833,327.5 342.167,327.5 298.5,327.5C 298.5,429.5 298.5,531.5 298.5,633.5C 297.501,531.335 297.167,429.001 297.5,326.5C 341.67,326.168 385.67,326.501 429.5,327.5 Z"/></g>
<g><path style="opacity:1" fill="#fefefe" d="M 429.5,327.5 C 464.827,327.586 494.327,340.586 518,366.5C 537.857,394.949 544.191,426.283 537,460.5C 528.723,494.782 508.223,518.615 475.5,532C 458.817,538.77 441.484,542.27 423.5,542.5C 403.833,542.5 384.167,542.5 364.5,542.5C 364.5,572.833 364.5,603.167 364.5,633.5C 342.5,633.5 320.5,633.5 298.5,633.5C 298.5,531.5 298.5,429.5 298.5,327.5C 342.167,327.5 385.833,327.5 429.5,327.5 Z"/></g>
<g><path style="opacity:0.997" fill="#0cc5e3" d="M 1024.5,341.5 C 1040.48,354.153 1056.15,367.153 1071.5,380.5C 1070.5,446.998 1070.17,513.665 1070.5,580.5C 1063.72,556.705 1057.22,532.705 1051,508.5C 1050.44,507.978 1049.77,507.645 1049,507.5C 1040.93,510.802 1032.76,513.802 1024.5,516.5C 1023.17,458.167 1023.17,399.833 1024.5,341.5 Z"/></g>
<g><path style="opacity:0.997" fill="#0ac4ea" d="M 1071.5,380.5 C 1085.15,391.488 1098.49,402.821 1111.5,414.5C 1111.17,490.668 1111.5,566.668 1112.5,642.5C 1107.34,654.146 1101.68,665.48 1095.5,676.5C 1086.23,644.773 1077.9,612.773 1070.5,580.5C 1070.17,513.665 1070.5,446.998 1071.5,380.5 Z"/></g>
<g><path style="opacity:1" fill="#3a3a3a" d="M 423.5,387.5 C 404.167,387.5 384.833,387.5 365.5,387.5C 365.5,418.5 365.5,449.5 365.5,480.5C 384.167,480.5 402.833,480.5 421.5,480.5C 402.674,481.497 383.674,481.83 364.5,481.5C 364.5,449.833 364.5,418.167 364.5,386.5C 384.34,386.17 404.007,386.503 423.5,387.5 Z"/></g>
<g><path style="opacity:1" fill="#000000" d="M 423.5,387.5 C 458.584,390.425 474.084,409.425 470,444.5C 462.837,468.509 446.67,480.509 421.5,480.5C 402.833,480.5 384.167,480.5 365.5,480.5C 365.5,449.5 365.5,418.5 365.5,387.5C 384.833,387.5 404.167,387.5 423.5,387.5 Z"/></g>
<g><path style="opacity:0.992" fill="#07c3f0" d="M 1111.5,414.5 C 1138.76,436.087 1165.42,458.421 1191.5,481.5C 1165.43,535.316 1139.09,588.983 1112.5,642.5C 1111.5,566.668 1111.17,490.668 1111.5,414.5 Z"/></g>
<g><path style="opacity:0.998" fill="#fbf74a" d="M 1070.5,580.5 C 1077.9,612.773 1086.23,644.773 1095.5,676.5C 1129.87,807.336 1164.54,938.002 1199.5,1068.5C 1199.5,1070.17 1199.5,1071.83 1199.5,1073.5C 1084.83,1112.5 970.167,1151.5 855.5,1190.5C 855.65,1117.16 856.316,1043.83 857.5,970.5C 895.004,970.832 932.337,970.498 969.5,969.5C 969.5,825.5 969.5,681.5 969.5,537.5C 977.479,535.067 985.146,532.067 992.5,528.5C 1003.46,525.071 1014.13,521.071 1024.5,516.5C 1032.76,513.802 1040.93,510.802 1049,507.5C 1049.77,507.645 1050.44,507.978 1051,508.5C 1057.22,532.705 1063.72,556.705 1070.5,580.5 Z"/></g>
<g><path style="opacity:1" fill="#363636" d="M 423.5,542.5 C 404.341,543.497 385.007,543.83 365.5,543.5C 365.831,573.671 365.498,603.671 364.5,633.5C 364.5,603.167 364.5,572.833 364.5,542.5C 384.167,542.5 403.833,542.5 423.5,542.5 Z"/></g>
<g><path style="opacity:1" fill="#a7e36c" d="M 228.5,663.5 C 221.042,661.093 213.542,658.759 206,656.5C 204.97,656.164 204.47,655.497 204.5,654.5C 212.084,642.4 219.918,630.4 228,618.5C 228.5,633.496 228.667,648.496 228.5,663.5 Z"/></g>
<g><path style="opacity:1" fill="#9ae26f" d="M 204.5,654.5 C 204.47,655.497 204.97,656.164 206,656.5C 213.542,658.759 221.042,661.093 228.5,663.5C 228.5,674.5 228.5,685.5 228.5,696.5C 213.812,692.603 199.479,687.937 185.5,682.5C 191.351,672.783 197.685,663.45 204.5,654.5 Z"/></g>
<g><path style="opacity:1" fill="#89e173" d="M 185.5,682.5 C 199.479,687.937 213.812,692.603 228.5,696.5C 228.5,712.5 228.5,728.5 228.5,744.5C 205.22,737.407 182.22,729.74 159.5,721.5C 167.932,708.291 176.598,695.291 185.5,682.5 Z"/></g>
<g><path style="opacity:0.996" fill="#2dd985" d="M 102.5,805.5 C 99.8333,809.833 97.1667,814.167 94.5,818.5C 86.1667,830.5 77.8333,842.5 69.5,854.5C 51.1153,830.783 33.1153,806.783 15.5,782.5C 18.2254,755.855 20.8921,729.188 23.5,702.5C 24.397,701.402 25.2303,701.402 26,702.5C 51.0334,737.258 76.5334,771.591 102.5,805.5 Z"/></g>
<g><path style="opacity:1" fill="#7be076" d="M 159.5,721.5 C 182.22,729.74 205.22,737.407 228.5,744.5C 228.5,756.5 228.5,768.5 228.5,780.5C 198.484,771.586 168.817,761.92 139.5,751.5C 145.782,741.223 152.449,731.223 159.5,721.5 Z"/></g>
<g><path style="opacity:1" fill="#6fde79" d="M 139.5,751.5 C 168.817,761.92 198.484,771.586 228.5,780.5C 228.5,793.5 228.5,806.5 228.5,819.5C 191.308,808.436 154.308,796.769 117.5,784.5C 124.092,772.976 131.425,761.976 139.5,751.5 Z"/></g>
<g><path style="opacity:0.996" fill="#3adb81" d="M 15.5,782.5 C 33.1153,806.783 51.1153,830.783 69.5,854.5C 69.2671,856.062 68.6005,857.395 67.5,858.5C 63.856,863.767 60.1893,869.101 56.5,874.5C 55.9984,875.521 55.3317,875.688 54.5,875C 40.2514,856.266 26.2514,837.432 12.5,818.5C 13.6202,806.511 14.6202,794.511 15.5,782.5 Z"/></g>
<g><path style="opacity:1" fill="#62dd7b" d="M 117.5,784.5 C 154.308,796.769 191.308,808.436 228.5,819.5C 228.5,833.833 228.5,848.167 228.5,862.5C 184.32,848.607 140.154,834.607 96,820.5C 94.9701,820.164 94.4701,819.497 94.5,818.5C 97.1667,814.167 99.8333,809.833 102.5,805.5C 107.255,798.324 112.255,791.324 117.5,784.5 Z"/></g>
<g><path style="opacity:1" fill="#fefffe" d="M 299.5,831.5 C 391.833,831.5 484.167,831.5 576.5,831.5C 576.5,846.5 576.5,861.5 576.5,876.5C 484.167,876.5 391.833,876.5 299.5,876.5C 299.5,861.5 299.5,846.5 299.5,831.5 Z"/></g>
<g><path style="opacity:1" fill="#56db7d" d="M 94.5,818.5 C 94.4701,819.497 94.9701,820.164 96,820.5C 140.154,834.607 184.32,848.607 228.5,862.5C 228.5,878.5 228.5,894.5 228.5,910.5C 176.155,894.107 123.821,877.607 71.5,861C 69.6803,860.8 68.347,859.966 67.5,858.5C 68.6005,857.395 69.2671,856.062 69.5,854.5C 77.8333,842.5 86.1667,830.5 94.5,818.5 Z"/></g>
<g><path style="opacity:1" fill="#4bdb7f" d="M 12.5,818.5 C 26.2514,837.432 40.2514,856.266 54.5,875C 55.3317,875.688 55.9984,875.521 56.5,874.5C 60.1893,869.101 63.856,863.767 67.5,858.5C 68.347,859.966 69.6803,860.8 71.5,861C 123.821,877.607 176.155,894.107 228.5,910.5C 228.5,925.167 228.5,939.833 228.5,954.5C 167.765,935.648 107.099,916.481 46.5,897C 44.7412,896.202 43.0745,896.369 41.5,897.5C 39.8288,900.492 37.8288,903.159 35.5,905.5C 26.1525,892.124 16.8192,878.791 7.5,865.5C 9.3435,849.895 11.0102,834.229 12.5,818.5 Z"/></g>
<g><path style="opacity:0.989" fill="#51de7a" d="M 7.5,865.5 C 16.8192,878.791 26.1525,892.124 35.5,905.5C 29.8594,914.149 24.1928,922.816 18.5,931.5C 12.4127,940.675 6.07935,949.675 -0.5,958.5C -0.5,955.167 -0.5,951.833 -0.5,948.5C 2.75524,921.034 5.42191,893.368 7.5,865.5 Z"/></g>
<g><path style="opacity:1" fill="#aaaaaa" d="M 299.5,831.5 C 391.999,830.501 484.665,830.167 577.5,830.5C 577.5,846.167 577.5,861.833 577.5,877.5C 484.665,877.833 391.999,877.499 299.5,876.5C 391.833,876.5 484.167,876.5 576.5,876.5C 576.5,861.5 576.5,846.5 576.5,831.5C 484.167,831.5 391.833,831.5 299.5,831.5 Z"/></g>
<g><path style="opacity:1" fill="#42d981" d="M 228.5,954.5 C 228.179,959.695 228.513,964.695 229.5,969.5C 274.5,969.5 319.5,969.5 364.5,969.5C 364.5,969.833 364.5,970.167 364.5,970.5C 360.197,992.691 355.53,1014.69 350.5,1036.5C 239.949,1001.09 129.282,966.094 18.5,931.5C 24.1928,922.816 29.8594,914.149 35.5,905.5C 37.8288,903.159 39.8288,900.492 41.5,897.5C 43.0745,896.369 44.7412,896.202 46.5,897C 107.099,916.481 167.765,935.648 228.5,954.5 Z"/></g>
<g><path style="opacity:1" fill="#3bd983" d="M 18.5,931.5 C 129.282,966.094 239.949,1001.09 350.5,1036.5C 348.844,1044.77 347.511,1053.1 346.5,1061.5C 366.259,1066.42 385.925,1071.75 405.5,1077.5C 420.126,1081.71 434.792,1085.71 449.5,1089.5C 464.729,1093.41 479.729,1098.08 494.5,1103.5C 490.5,1107.83 486.5,1112.17 482.5,1116.5C 327.237,1066.47 171.737,1016.8 16,967.5C 15.2352,967.57 14.7352,967.903 14.5,968.5C 9.3682,966.1 4.3682,963.434 -0.5,960.5C -0.5,959.833 -0.5,959.167 -0.5,958.5C 6.07935,949.675 12.4127,940.675 18.5,931.5 Z"/></g>
<g><path style="opacity:0.996" fill="#35d884" d="M 482.5,1116.5 C 472.804,1127.86 463.137,1139.19 453.5,1150.5C 362.709,1121.43 271.876,1092.43 181,1063.5C 180.235,1063.57 179.735,1063.9 179.5,1064.5C 124,1033.25 69.0004,1001.25 14.5,968.5C 14.7352,967.903 15.2352,967.57 16,967.5C 171.737,1016.8 327.237,1066.47 482.5,1116.5 Z"/></g>
<g><path style="opacity:1" fill="#bde765" d="M 364.5,970.5 C 378.5,970.5 392.5,970.5 406.5,970.5C 406.757,1006.18 406.423,1041.84 405.5,1077.5C 385.925,1071.75 366.259,1066.42 346.5,1061.5C 347.511,1053.1 348.844,1044.77 350.5,1036.5C 355.53,1014.69 360.197,992.691 364.5,970.5 Z"/></g>
<g><path style="opacity:1" fill="#c2e35e" d="M 364.5,970.5 C 364.5,970.167 364.5,969.833 364.5,969.5C 566.167,969.5 767.833,969.5 969.5,969.5C 932.337,970.498 895.004,970.832 857.5,970.5C 837.5,970.5 817.5,970.5 797.5,970.5C 777.5,970.5 757.5,970.5 737.5,970.5C 721.167,970.5 704.833,970.5 688.5,970.5C 671.167,970.5 653.833,970.5 636.5,970.5C 621.833,970.5 607.167,970.5 592.5,970.5C 577.5,970.5 562.5,970.5 547.5,970.5C 532.833,970.5 518.167,970.5 503.5,970.5C 486.167,970.5 468.833,970.5 451.5,970.5C 450.846,1010.17 450.179,1049.84 449.5,1089.5C 434.792,1085.71 420.126,1081.71 405.5,1077.5C 406.423,1041.84 406.757,1006.18 406.5,970.5C 392.5,970.5 378.5,970.5 364.5,970.5 Z"/></g>
<g><path style="opacity:1" fill="#caeb5f" d="M 503.5,970.5 C 502.759,1015.16 502.093,1059.83 501.5,1104.5C 499.139,1104.33 496.806,1103.99 494.5,1103.5C 479.729,1098.08 464.729,1093.41 449.5,1089.5C 450.179,1049.84 450.846,1010.17 451.5,970.5C 468.833,970.5 486.167,970.5 503.5,970.5 Z"/></g>
<g><path style="opacity:0.998" fill="#d1ed5c" d="M 503.5,970.5 C 518.167,970.5 532.833,970.5 547.5,970.5C 547.09,1019.5 546.756,1068.5 546.5,1117.5C 531.266,1113.61 516.266,1109.28 501.5,1104.5C 502.093,1059.83 502.759,1015.16 503.5,970.5 Z"/></g>
<g><path style="opacity:0.998" fill="#d7ee5a" d="M 547.5,970.5 C 562.5,970.5 577.5,970.5 592.5,970.5C 592.13,1023.67 591.13,1076.67 589.5,1129.5C 575.036,1125.9 560.703,1121.9 546.5,1117.5C 546.756,1068.5 547.09,1019.5 547.5,970.5 Z"/></g>
<g><path style="opacity:0.999" fill="#ddf057" d="M 592.5,970.5 C 607.167,970.5 621.833,970.5 636.5,970.5C 636.151,1027.83 635.818,1085.17 635.5,1142.5C 619.956,1138.54 604.623,1134.2 589.5,1129.5C 591.13,1076.67 592.13,1023.67 592.5,970.5 Z"/></g>
<g><path style="opacity:0.998" fill="#e4f154" d="M 636.5,970.5 C 653.833,970.5 671.167,970.5 688.5,970.5C 688.032,1032.83 687.699,1095.17 687.5,1157.5C 670.06,1152.81 652.727,1147.81 635.5,1142.5C 635.818,1085.17 636.151,1027.83 636.5,970.5 Z"/></g>
<g><path style="opacity:0.999" fill="#ebf351" d="M 688.5,970.5 C 704.833,970.5 721.167,970.5 737.5,970.5C 736.516,1037.16 735.849,1103.83 735.5,1170.5C 719.42,1166.48 703.42,1162.15 687.5,1157.5C 687.699,1095.17 688.032,1032.83 688.5,970.5 Z"/></g>
<g><path style="opacity:0.999" fill="#f0f54f" d="M 737.5,970.5 C 757.5,970.5 777.5,970.5 797.5,970.5C 796.37,1042.83 795.704,1115.16 795.5,1187.5C 775.223,1182.43 755.223,1176.77 735.5,1170.5C 735.849,1103.83 736.516,1037.16 737.5,970.5 Z"/></g>
<g><path style="opacity:0.998" fill="#f6f64c" d="M 797.5,970.5 C 817.5,970.5 837.5,970.5 857.5,970.5C 856.316,1043.83 855.65,1117.16 855.5,1190.5C 847.862,1193.16 840.195,1195.82 832.5,1198.5C 820.009,1194.97 807.675,1191.3 795.5,1187.5C 795.704,1115.16 796.37,1042.83 797.5,970.5 Z"/></g>
<g><path style="opacity:0.989" fill="#2ed886" d="M 453.5,1150.5 C 439.457,1166.54 425.79,1182.87 412.5,1199.5C 411.167,1199.5 409.833,1199.5 408.5,1199.5C 332.002,1154.75 255.669,1109.75 179.5,1064.5C 179.735,1063.9 180.235,1063.57 181,1063.5C 271.876,1092.43 362.709,1121.43 453.5,1150.5 Z"/></g>
</svg>
