<?xml version="1.0" encoding="utf-8"?>
<!-- Generator: Adobe Illustrator 27.3.1, SVG Export Plug-In . SVG Version: 6.00 Build 0)  -->
<svg version="1.1" id="Layer_1" xmlns="http://www.w3.org/2000/svg" xmlns:xlink="http://www.w3.org/1999/xlink" x="0px" y="0px"
	 viewBox="0 0 540 710.1" style="enable-background:new 0 0 540 710.1;" xml:space="preserve">
<style type="text/css">
	.st0{fill:url(#SVGID_1_);}
	.st1{fill:#E9E8E8;}
	.st2{fill:#76CAE7;}
	.st3{fill:#1C8BB4;}
	.st4{fill:url(#SVGID_00000085951949934337349060000017784115960012081335_);}
</style>
<linearGradient id="SVGID_1_" gradientUnits="userSpaceOnUse" x1="-19.4135" y1="691.6118" x2="375.9065" y2="691.6118" gradientTransform="matrix(1.33 0 0 -1.33 33.52 1322.5575)">
	<stop  offset="0" style="stop-color:#095CA2"/>
	<stop  offset="7.000000e-02" style="stop-color:#0B61AA"/>
	<stop  offset="0.36" style="stop-color:#2170B7"/>
	<stop  offset="0.52" style="stop-color:#2974BA"/>
	<stop  offset="0.64" style="stop-color:#2471B8"/>
	<stop  offset="0.82" style="stop-color:#176AB3"/>
	<stop  offset="1" style="stop-color:#095CA2"/>
</linearGradient>
<path class="st0" d="M271.2,196.3c-145.5,0-263.5-41.1-263.5-95.4v508.2c0,52.2,115.9,94.6,259.8,95.4h3.7
	c145.5,0,263.5-41.1,263.5-95.4V100.9C534.7,154,416.8,196.3,271.2,196.3z"/>
<path class="st1" d="M534.7,100.9c0,53-118,95.4-263.5,95.4S7.7,155.2,7.7,100.9s118-95.4,263.5-95.4S534.7,46.6,534.7,100.9"/>
<path class="st2" d="M473.5,93.1c0,33.7-90.9,60.9-202.3,60.9S68.9,126.8,68.9,93.1s90.9-60.4,202.3-60.4S473.5,59.8,473.5,93.1"/>
<path class="st3" d="M271.2,108.3c-54.3-1.4-108.4,6.5-159.9,23.4c51.6,16.6,105.7,24.1,159.9,22.2c54.3,1.6,108.5-6.5,159.9-23.9
	C379.4,114,325.4,106.6,271.2,108.3z"/>
<radialGradient id="SVGID_00000093894525906640028010000003604507113543762063_" cx="189.1088" cy="677.904" r="218.01" gradientTransform="matrix(1.33 0 0 -1.33 33.52 1322.5575)" gradientUnits="userSpaceOnUse">
	<stop  offset="0" style="stop-color:#F2F2F2"/>
	<stop  offset="0.58" style="stop-color:#EFEEEE"/>
	<stop  offset="1" style="stop-color:#E7E6E6"/>
</radialGradient>
<path style="fill:url(#SVGID_00000093894525906640028010000003604507113543762063_);" d="M431.6,453.7V313.9h-37v169.8h101.1v-30
	H431.6z M138,385c-7.7-3.1-14.7-7.4-21-12.7c-3.4-3.5-5.1-8.3-4.9-13.2c-0.3-4.9,2.1-9.6,6.2-12.3c5.1-3.5,11.1-5.2,17.3-4.9
	c14.6-0.7,29.1,3.5,41.1,11.9v-35.4c-13.1-4.9-27.1-7.1-41.1-6.6c-16.1-0.9-32,4.1-44.8,14c-11.3,8.7-17.7,22.3-17.3,36.6
	c0,21,13.2,37.4,41.1,49.8c9.1,3.9,17.7,8.8,25.5,14.8c3.9,3.3,6.1,8,6.2,13.1c0,5.1-2.5,9.8-6.6,12.7c-5.6,3.3-12,4.9-18.5,4.5
	c-16.5-0.1-32.5-6.3-44.8-17.3v38.2c13.6,7,28.7,10.4,44,9.9c17.2,1,34.3-3.8,48.5-13.6c10.2-9.6,15.2-23.5,13.6-37.4
	c0.2-10.5-3.5-20.8-10.3-28.8C162.5,398.3,150.9,390.3,138,385z M353.4,450.4c18.2-29.2,18.2-66.2,0-95.4
	c-6.4-12.8-16.4-23.6-28.8-30.8c-12.5-7.1-26.7-10.8-41.1-10.7c-15.5-0.3-30.9,3.5-44.4,11.1c-12.7,7.1-23.1,17.6-30,30.4
	c-7.3,14.5-10.9,30.6-10.7,46.9c0.1,14.3,3.4,28.4,9.9,41.1c6.3,12.7,16.1,23.3,28.4,30.4c12.4,7.6,26.6,11.8,41.1,12.3l35.4,41.1
	H363l-50.6-45.2C329.3,476.5,344,465.4,353.4,450.4L353.4,450.4z M312.3,440.1c-7.6,9.4-19.1,14.7-31.2,14.4
	c-12.2,0.4-23.8-5.1-31.2-14.8c-8.7-11.9-12.9-26.4-11.9-41.1c-1-14.7,3.3-29.2,11.9-41.1c7.8-9.7,19.6-15.3,32.1-15.2
	c12.2-0.5,23.8,5.2,30.8,15.2c8.1,12.1,12,26.6,11.1,41.1C325.3,413.3,321.2,428.1,312.3,440.1L312.3,440.1z"/>
</svg>
