<?xml version="1.0" encoding="utf-8"?>
<!-- Generator: Adobe Illustrator 27.3.1, SVG Export Plug-In . SVG Version: 6.00 Build 0)  -->
<svg version="1.1" id="Camada_1" xmlns="http://www.w3.org/2000/svg" xmlns:xlink="http://www.w3.org/1999/xlink" x="0px" y="0px"
	 viewBox="0 0 512 512" style="enable-background:new 0 0 512 512;" xml:space="preserve">
<style type="text/css">
	.st0{fill:#FFFFFF;}
</style>
<rect x="114.1" y="101.7" width="304.1" height="261.9"/>
<g transform="translate(0.000000,512.000000) scale(0.100000,-0.100000)">
	<path class="st0" d="M2310,5109c-502-55-974-249-1355-556c-129-104-340-321-433-445C257,3754,88,3350,24,2915C2,2768-5,2487,9,2340
		c42-433,180-833,405-1174C828,537,1461,134,2205,24c147-22,428-29,575-15c433,42,833,180,1174,405c629,414,1032,1047,1142,1791
		c22,147,29,428,15,575c-51,524-238,988-558,1385c-104,129-321,340-445,433c-354,265-755,432-1193,498
		C2794,5114,2428,5122,2310,5109z M3219,2761c347-607,631-1105,631-1107s-569-4-1265-4s-1265,2-1265,5c0,8,1263,2216,1266,2212
		C2587,3866,2873,3368,3219,2761z"/>
</g>
</svg>
