<?xml version="1.0" encoding="UTF-8"?>
<!DOCTYPE svg PUBLIC "-//W3C//DTD SVG 1.1//EN" "http://www.w3.org/Graphics/SVG/1.1/DTD/svg11.dtd">
<svg xmlns="http://www.w3.org/2000/svg" version="1.1" width="1901px" height="1890px" style="shape-rendering:geometricPrecision; text-rendering:geometricPrecision; image-rendering:optimizeQuality; fill-rule:evenodd; clip-rule:evenodd" xmlns:xlink="http://www.w3.org/1999/xlink">
<g><path style="opacity:1" fill="#7250aa" d="M 1363.5,10.5 C 1342.36,31.8237 1327.19,56.8237 1318,85.5C 1314.96,97.184 1311.96,108.851 1309,120.5C 1307.2,135.361 1305.2,150.027 1303,164.5C 1302.96,176.596 1302.29,188.596 1301,200.5C 1300.5,393.166 1300.33,585.833 1300.5,778.5C 1245.88,830.824 1191.21,883.158 1136.5,935.5C 1131.06,931.234 1125.73,926.734 1120.5,922C 1011.3,816.469 901.803,711.302 792,606.5C 791.517,605.552 791.351,604.552 791.5,603.5C 955.457,412.372 1119.62,221.372 1284,30.5C 1306.78,8.73308 1333.28,2.06641 1363.5,10.5 Z"/></g>
<g><path style="opacity:1" fill="#6e4ea6" d="M 1363.5,10.5 C 1371.2,12.5162 1378.2,15.8495 1384.5,20.5C 1384.6,23.3576 1385.76,25.6909 1388,27.5C 1391.83,31.1569 1395.66,34.8236 1399.5,38.5C 1402.02,43.0272 1404.68,47.5272 1407.5,52C 1388.42,66.3339 1374.25,84.5006 1365,106.5C 1354.44,134.983 1348.1,164.317 1346,194.5C 1345.06,209.821 1344.39,225.154 1344,240.5C 1343.5,406.166 1343.33,571.833 1343.5,737.5C 1329.5,751.504 1315.16,765.171 1300.5,778.5C 1300.33,585.833 1300.5,393.166 1301,200.5C 1302.29,188.596 1302.96,176.596 1303,164.5C 1305.2,150.027 1307.2,135.361 1309,120.5C 1311.96,108.851 1314.96,97.184 1318,85.5C 1327.19,56.8237 1342.36,31.8237 1363.5,10.5 Z"/></g>
<g><path style="opacity:1" fill="#654797" d="M 1384.5,20.5 C 1388.44,22.4462 1392.11,24.7795 1395.5,27.5C 1394.76,27.369 1394.09,27.5357 1393.5,28C 1410.14,43.1228 1418.81,61.9561 1419.5,84.5C 1419.5,278.167 1419.5,471.833 1419.5,665.5C 1404.17,679.833 1388.83,694.167 1373.5,708.5C 1373.33,560.833 1373.5,413.166 1374,265.5C 1373.67,225.784 1378.67,186.784 1389,148.5C 1394.69,131.403 1403.35,116.07 1415,102.5C 1418.25,82.8037 1415.25,64.137 1406,46.5C 1404.05,43.5798 1401.89,40.9131 1399.5,38.5C 1395.66,34.8236 1391.83,31.1569 1388,27.5C 1385.76,25.6909 1384.6,23.3576 1384.5,20.5 Z"/></g>
<g><path style="opacity:1" fill="#6a4ba0" d="M 1399.5,38.5 C 1401.89,40.9131 1404.05,43.5798 1406,46.5C 1415.25,64.137 1418.25,82.8037 1415,102.5C 1403.35,116.07 1394.69,131.403 1389,148.5C 1378.67,186.784 1373.67,225.784 1374,265.5C 1373.5,413.166 1373.33,560.833 1373.5,708.5C 1363.53,718.139 1353.53,727.806 1343.5,737.5C 1343.33,571.833 1343.5,406.166 1344,240.5C 1344.39,225.154 1345.06,209.821 1346,194.5C 1348.1,164.317 1354.44,134.983 1365,106.5C 1374.25,84.5006 1388.42,66.3339 1407.5,52C 1404.68,47.5272 1402.02,43.0272 1399.5,38.5 Z"/></g>
<g><path style="opacity:1" fill="#d09afb" d="M 1395.5,27.5 C 1548.95,129.111 1702.28,230.945 1855.5,333C 1875.22,347.931 1885.88,367.764 1887.5,392.5C 1887.5,491.167 1887.5,589.833 1887.5,688.5C 1731.83,688.5 1576.17,688.5 1420.5,688.5C 1420.83,486.999 1420.5,285.666 1419.5,84.5C 1418.81,61.9561 1410.14,43.1228 1393.5,28C 1394.09,27.5357 1394.76,27.369 1395.5,27.5 Z"/></g>
<g><path style="opacity:1" fill="#ac7ee1" d="M 607.5,444.5 C 607.631,445.239 607.464,445.906 607,446.5C 506.24,537.101 405.073,627.101 303.5,716.5C 253.876,658.372 204.043,600.372 154,542.5C 140.704,527.603 124.204,518.603 104.5,515.5C 97.0113,514.344 89.3446,514.178 81.5,515C 75.3743,515.774 69.7077,517.607 64.5,520.5C 60.452,521.358 56.7853,523.025 53.5,525.5C 53.1667,525.5 52.8333,525.5 52.5,525.5C 154.316,448.53 256.316,371.697 358.5,295C 390.433,274.033 422.1,274.366 453.5,296C 505.032,345.367 556.366,394.867 607.5,444.5 Z"/></g>
<g><path style="opacity:1" fill="#523880" d="M 104.5,515.5 C 101.68,515.248 99.0135,515.748 96.5,517C 112.407,519.301 126.74,525.301 139.5,535C 145.676,540.01 151.343,545.51 156.5,551.5C 215.52,619.352 274.353,687.352 333,755.5C 335.528,758.098 337.028,761.098 337.5,764.5C 337.5,770.5 337.5,776.5 337.5,782.5C 336.698,781.048 336.198,779.382 336,777.5C 279.667,712.167 223.333,646.833 167,581.5C 151.641,565.13 134.808,550.63 116.5,538C 111.39,533.565 107.057,528.565 103.5,523C 98.1084,521.515 92.6084,520.682 87,520.5C 79.335,521.583 71.835,521.583 64.5,520.5C 69.7077,517.607 75.3743,515.774 81.5,515C 89.3446,514.178 97.0113,514.344 104.5,515.5 Z"/></g>
<g><path style="opacity:0.996" fill="#563c86" d="M 64.5,520.5 C 71.835,521.583 79.335,521.583 87,520.5C 92.6084,520.682 98.1084,521.515 103.5,523C 107.057,528.565 111.39,533.565 116.5,538C 134.808,550.63 151.641,565.13 167,581.5C 223.333,646.833 279.667,712.167 336,777.5C 336.198,779.382 336.698,781.048 337.5,782.5C 337.5,793.833 337.5,805.167 337.5,816.5C 336.673,811.349 336.173,806.016 336,800.5C 278,733.167 220,665.833 162,598.5C 153.167,588.333 143.667,578.833 133.5,570C 119.5,560.667 105.5,551.333 91.5,542C 85.9579,537.302 82.2912,531.469 80.5,524.5C 72.8106,524.589 65.4773,526.256 58.5,529.5C 56.4648,528.959 54.4648,528.292 52.5,527.5C 52.8627,526.817 53.1961,526.15 53.5,525.5C 56.7853,523.025 60.452,521.358 64.5,520.5 Z"/></g>
<g><path style="opacity:1" fill="#a97bdf" d="M 607.5,444.5 C 666.163,499.83 724.496,555.496 782.5,611.5C 793.194,622.86 804.194,633.86 815.5,644.5C 707.824,741.509 599.824,838.175 491.5,934.5C 440.155,875.82 389.155,816.82 338.5,757.5C 327.208,743.539 315.541,729.873 303.5,716.5C 405.073,627.101 506.24,537.101 607,446.5C 607.464,445.906 607.631,445.239 607.5,444.5 Z"/></g>
<g><path style="opacity:0.999" fill="#5d408f" d="M 337.5,816.5 C 337.5,909.833 337.5,1003.17 337.5,1096.5C 336.907,1102.09 336.074,1107.76 335,1113.5C 272.207,1186.63 209.04,1259.46 145.5,1332C 140.167,1336.67 134.833,1341.33 129.5,1346C 118.167,1353.33 106.833,1360.67 95.5,1368C 84.2255,1369.37 73.3922,1367.87 63,1363.5C 61.4794,1363.52 59.9794,1363.85 58.5,1364.5C 57.3478,1363.38 56.3478,1363.38 55.5,1364.5C 31.3603,1349.57 17.8603,1327.9 15,1299.5C 14.3333,1062.17 14.3333,824.833 15,587.5C 17.0889,560.304 29.5889,539.637 52.5,525.5C 52.8333,525.5 53.1667,525.5 53.5,525.5C 53.1961,526.15 52.8627,526.817 52.5,527.5C 54.4648,528.292 56.4648,528.959 58.5,529.5C 65.4773,526.256 72.8106,524.589 80.5,524.5C 82.2912,531.469 85.9579,537.302 91.5,542C 105.5,551.333 119.5,560.667 133.5,570C 143.667,578.833 153.167,588.333 162,598.5C 220,665.833 278,733.167 336,800.5C 336.173,806.016 336.673,811.349 337.5,816.5 Z"/></g>
<g><path style="opacity:1" fill="#6a4b9e" d="M 791.5,603.5 C 791.351,604.552 791.517,605.552 792,606.5C 901.803,711.302 1011.3,816.469 1120.5,922C 1125.73,926.734 1131.06,931.234 1136.5,935.5C 1133.76,938.233 1131.43,941.233 1129.5,944.5C 1024.53,844.865 919.864,744.865 815.5,644.5C 804.194,633.86 793.194,622.86 782.5,611.5C 785.479,608.958 788.479,606.291 791.5,603.5 Z"/></g>
<g><path style="opacity:1" fill="#a578dc" d="M 815.5,644.5 C 919.864,744.865 1024.53,844.865 1129.5,944.5C 1159.13,971.8 1188.13,999.8 1216.5,1028.5C 1096.03,1136.8 975.361,1244.97 854.5,1353C 853.181,1353.19 851.847,1353.03 850.5,1352.5C 828.273,1327.06 806.273,1301.39 784.5,1275.5C 689.511,1164.51 594.178,1053.85 498.5,943.5C 495.785,940.786 493.451,937.786 491.5,934.5C 599.824,838.175 707.824,741.509 815.5,644.5 Z"/></g>
<g><path style="opacity:1" fill="#493271" d="M 104.5,515.5 C 124.204,518.603 140.704,527.603 154,542.5C 204.043,600.372 253.876,658.372 303.5,716.5C 315.541,729.873 327.208,743.539 338.5,757.5C 337.532,759.607 337.198,761.941 337.5,764.5C 337.028,761.098 335.528,758.098 333,755.5C 274.353,687.352 215.52,619.352 156.5,551.5C 151.343,545.51 145.676,540.01 139.5,535C 126.74,525.301 112.407,519.301 96.5,517C 99.0135,515.748 101.68,515.248 104.5,515.5 Z"/></g>
<g><path style="opacity:1" fill="#cc96f8" d="M 1420.5,688.5 C 1576.17,688.5 1731.83,688.5 1887.5,688.5C 1887.5,808.833 1887.5,929.167 1887.5,1049.5C 1731.83,1049.5 1576.17,1049.5 1420.5,1049.5C 1420.5,929.167 1420.5,808.833 1420.5,688.5 Z"/></g>
<g><path style="opacity:1" fill="#593f87" d="M 498.5,943.5 C 594.178,1053.85 689.511,1164.51 784.5,1275.5C 782.589,1276.08 780.922,1277.08 779.5,1278.5C 779.649,1277.45 779.483,1276.45 779,1275.5C 688,1169.83 597,1064.17 506,958.5C 505.667,957.167 505.333,955.833 505,954.5C 502.957,952.792 501.29,950.792 500,948.5C 497.88,947.395 495.713,947.395 493.5,948.5C 494.833,946.5 496.5,944.833 498.5,943.5 Z"/></g>
<g><path style="opacity:1" fill="#654798" d="M 779.5,1278.5 C 776.167,1281.5 772.833,1284.5 769.5,1287.5C 769.046,1284.86 767.879,1282.53 766,1280.5C 758.79,1273.64 752.79,1265.97 748,1257.5C 670.667,1167.5 593.333,1077.5 516,987.5C 505.989,978.155 496.656,968.155 488,957.5C 487.329,958.252 486.496,958.586 485.5,958.5C 487.787,954.878 490.453,951.545 493.5,948.5C 495.713,947.395 497.88,947.395 500,948.5C 501.29,950.792 502.957,952.792 505,954.5C 505.333,955.833 505.667,957.167 506,958.5C 597,1064.17 688,1169.83 779,1275.5C 779.483,1276.45 779.649,1277.45 779.5,1278.5 Z"/></g>
<g><path style="opacity:1" fill="#6a4ba0" d="M 769.5,1287.5 C 767.5,1290.17 765.167,1292.5 762.5,1294.5C 670.566,1186.73 578.399,1079.06 486,971.5C 484.316,969.649 482.483,967.982 480.5,966.5C 479.378,967.63 478.044,968.297 476.5,968.5C 479.51,965.126 482.51,961.792 485.5,958.5C 486.496,958.586 487.329,958.252 488,957.5C 496.656,968.155 505.989,978.155 516,987.5C 593.333,1077.5 670.667,1167.5 748,1257.5C 752.79,1265.97 758.79,1273.64 766,1280.5C 767.879,1282.53 769.046,1284.86 769.5,1287.5 Z"/></g>
<g><path style="opacity:1" fill="#7250aa" d="M 762.5,1294.5 C 659.395,1393.1 556.395,1491.94 453.5,1591C 422.105,1612.63 390.439,1612.97 358.5,1592C 257.47,1516.16 156.47,1440.32 55.5,1364.5C 56.3478,1363.38 57.3478,1363.38 58.5,1364.5C 89.8255,1378.13 118.825,1374.29 145.5,1353C 210.043,1278.63 274.376,1204.13 338.5,1129.5C 384.265,1075.64 430.265,1021.97 476.5,968.5C 478.044,968.297 479.378,967.63 480.5,966.5C 482.483,967.982 484.316,969.649 486,971.5C 578.399,1079.06 670.566,1186.73 762.5,1294.5 Z"/></g>
<g><path style="opacity:1" fill="#a276d9" d="M 1216.5,1028.5 C 1229.16,1039.83 1241.5,1051.5 1253.5,1063.5C 1252.46,1066.06 1250.79,1068.22 1248.5,1070C 1129.83,1176 1011.17,1282 892.5,1388C 890.266,1389.75 887.932,1391.25 885.5,1392.5C 873.372,1379.58 861.705,1366.25 850.5,1352.5C 851.847,1353.03 853.181,1353.19 854.5,1353C 975.361,1244.97 1096.03,1136.8 1216.5,1028.5 Z"/></g>
<g><path style="opacity:1" fill="#c994f5" d="M 1419.5,84.5 C 1420.5,285.666 1420.83,486.999 1420.5,688.5C 1420.5,808.833 1420.5,929.167 1420.5,1049.5C 1576.17,1049.5 1731.83,1049.5 1887.5,1049.5C 1887.5,1148.83 1887.5,1248.17 1887.5,1347.5C 1731.83,1347.5 1576.17,1347.5 1420.5,1347.5C 1420.83,1304.33 1420.5,1261.33 1419.5,1218.5C 1419.5,1034.17 1419.5,849.833 1419.5,665.5C 1419.5,471.833 1419.5,278.167 1419.5,84.5 Z"/></g>
<g><path style="opacity:1" fill="#9f74d8" d="M 1253.5,1063.5 C 1274.16,1082.83 1294.5,1102.5 1314.5,1122.5C 1314.81,1125.25 1314.48,1127.91 1313.5,1130.5C 1311.85,1131.65 1310.35,1132.98 1309,1134.5C 1308.67,1197.5 1308.33,1260.5 1308,1323.5C 1305.67,1325.5 1303.33,1327.5 1301,1329.5C 1300.67,1439.5 1300.33,1549.5 1300,1659.5C 1295,1663.83 1290,1668.17 1285,1672.5C 1284.33,1683.83 1284.33,1695.17 1285,1706.5C 1285.42,1707.67 1286.09,1708.67 1287,1709.5C 1287.33,1721.5 1287.67,1733.5 1288,1745.5C 1288.42,1746.67 1289.09,1747.67 1290,1748.5C 1290.33,1754.83 1290.67,1761.17 1291,1767.5C 1291.94,1776.37 1293.77,1785.04 1296.5,1793.5C 1284.47,1804.86 1272.14,1815.86 1259.5,1826.5C 1134.49,1682.15 1009.82,1537.49 885.5,1392.5C 887.932,1391.25 890.266,1389.75 892.5,1388C 1011.17,1282 1129.83,1176 1248.5,1070C 1250.79,1068.22 1252.46,1066.06 1253.5,1063.5 Z"/></g>
<g><path style="opacity:1" fill="#563c85" d="M 337.5,1096.5 C 337.172,1107.68 337.505,1118.68 338.5,1129.5C 274.376,1204.13 210.043,1278.63 145.5,1353C 118.825,1374.29 89.8255,1378.13 58.5,1364.5C 59.9794,1363.85 61.4794,1363.52 63,1363.5C 73.3922,1367.87 84.2255,1369.37 95.5,1368C 106.833,1360.67 118.167,1353.33 129.5,1346C 134.833,1341.33 140.167,1336.67 145.5,1332C 209.04,1259.46 272.207,1186.63 335,1113.5C 336.074,1107.76 336.907,1102.09 337.5,1096.5 Z"/></g>
<g><path style="opacity:1" fill="#996fd1" d="M 1314.5,1122.5 C 1324.49,1131.16 1334.16,1140.16 1343.5,1149.5C 1343.83,1197.17 1343.5,1244.84 1342.5,1292.5C 1341.52,1292.98 1340.69,1293.64 1340,1294.5C 1339.37,1419.84 1339.37,1545.17 1340,1670.5C 1336.72,1672.44 1335.22,1675.27 1335.5,1679C 1337.04,1707.54 1341.21,1735.71 1348,1763.5C 1354.11,1785.72 1363.94,1806.05 1377.5,1824.5C 1372.86,1828.81 1368.19,1833.14 1363.5,1837.5C 1369.84,1846.84 1377.51,1854.84 1386.5,1861.5C 1384.15,1863.21 1383.15,1865.55 1383.5,1868.5C 1351.15,1885.92 1320.15,1883.76 1290.5,1862C 1279.21,1850.89 1268.88,1839.05 1259.5,1826.5C 1272.14,1815.86 1284.47,1804.86 1296.5,1793.5C 1293.77,1785.04 1291.94,1776.37 1291,1767.5C 1290.67,1761.17 1290.33,1754.83 1290,1748.5C 1289.09,1747.67 1288.42,1746.67 1288,1745.5C 1287.67,1733.5 1287.33,1721.5 1287,1709.5C 1286.09,1708.67 1285.42,1707.67 1285,1706.5C 1284.33,1695.17 1284.33,1683.83 1285,1672.5C 1290,1668.17 1295,1663.83 1300,1659.5C 1300.33,1549.5 1300.67,1439.5 1301,1329.5C 1303.33,1327.5 1305.67,1325.5 1308,1323.5C 1308.33,1260.5 1308.67,1197.5 1309,1134.5C 1310.35,1132.98 1311.85,1131.65 1313.5,1130.5C 1314.48,1127.91 1314.81,1125.25 1314.5,1122.5 Z"/></g>
<g><path style="opacity:1" fill="#8a64bd" d="M 1391.5,1195.5 C 1399.86,1203.53 1408.19,1211.53 1416.5,1219.5C 1417.33,1393.13 1417.83,1566.79 1418,1740.5C 1418.17,1762.67 1418.67,1784.67 1419.5,1806.5C 1418.23,1825.49 1411.06,1841.82 1398,1855.5C 1397.47,1856.82 1397.97,1857.48 1399.5,1857.5C 1394.2,1861.15 1388.87,1864.82 1383.5,1868.5C 1383.15,1865.55 1384.15,1863.21 1386.5,1861.5C 1389.13,1859.37 1391.63,1857.04 1394,1854.5C 1394.33,1855.17 1394.67,1855.83 1395,1856.5C 1405.7,1844.8 1412.37,1831.13 1415,1815.5C 1415.5,1811.85 1415.67,1808.18 1415.5,1804.5C 1416.73,1786.65 1416.56,1768.65 1415,1750.5C 1406.56,1734.79 1400.56,1718.12 1397,1700.5C 1393.02,1678 1390.52,1655.34 1389.5,1632.5C 1389.8,1627.43 1390.8,1622.6 1392.5,1618C 1391.51,1477.17 1391.18,1336.34 1391.5,1195.5 Z"/></g>
<g><path style="opacity:1" fill="#946bca" d="M 1343.5,1149.5 C 1352.86,1158.53 1362.19,1167.53 1371.5,1176.5C 1371.18,1329.01 1371.51,1481.51 1372.5,1634C 1372.22,1639.39 1371.22,1644.55 1369.5,1649.5C 1370.21,1681.09 1374.71,1712.09 1383,1742.5C 1389.24,1761.66 1399.08,1778.66 1412.5,1793.5C 1411.02,1794.48 1409.69,1795.65 1408.5,1797C 1411.09,1799.42 1413.42,1801.92 1415.5,1804.5C 1415.67,1808.18 1415.5,1811.85 1415,1815.5C 1412.37,1831.13 1405.7,1844.8 1395,1856.5C 1394.67,1855.83 1394.33,1855.17 1394,1854.5C 1391.63,1857.04 1389.13,1859.37 1386.5,1861.5C 1377.51,1854.84 1369.84,1846.84 1363.5,1837.5C 1368.19,1833.14 1372.86,1828.81 1377.5,1824.5C 1363.94,1806.05 1354.11,1785.72 1348,1763.5C 1341.21,1735.71 1337.04,1707.54 1335.5,1679C 1335.22,1675.27 1336.72,1672.44 1340,1670.5C 1339.37,1545.17 1339.37,1419.84 1340,1294.5C 1340.69,1293.64 1341.52,1292.98 1342.5,1292.5C 1343.5,1244.84 1343.83,1197.17 1343.5,1149.5 Z"/></g>
<g><path style="opacity:1" fill="#c591f2" d="M 1887.5,392.5 C 1888.67,760 1888.83,1127.67 1888,1495.5C 1887.21,1507.71 1883.71,1519.04 1877.5,1529.5C 1725.17,1529.5 1572.83,1529.5 1420.5,1529.5C 1420.5,1468.83 1420.5,1408.17 1420.5,1347.5C 1576.17,1347.5 1731.83,1347.5 1887.5,1347.5C 1887.5,1248.17 1887.5,1148.83 1887.5,1049.5C 1887.5,929.167 1887.5,808.833 1887.5,688.5C 1887.5,589.833 1887.5,491.167 1887.5,392.5 Z"/></g>
<g><path style="opacity:1" fill="#7d5aaa" d="M 1416.5,1219.5 C 1417.5,1220.17 1418.5,1220.83 1419.5,1221.5C 1419.5,1416.5 1419.5,1611.5 1419.5,1806.5C 1418.67,1784.67 1418.17,1762.67 1418,1740.5C 1417.83,1566.79 1417.33,1393.13 1416.5,1219.5 Z"/></g>
<g><path style="opacity:1" fill="#8f67c3" d="M 1371.5,1176.5 C 1378.19,1182.86 1384.86,1189.19 1391.5,1195.5C 1391.18,1336.34 1391.51,1477.17 1392.5,1618C 1390.8,1622.6 1389.8,1627.43 1389.5,1632.5C 1390.52,1655.34 1393.02,1678 1397,1700.5C 1400.56,1718.12 1406.56,1734.79 1415,1750.5C 1416.56,1768.65 1416.73,1786.65 1415.5,1804.5C 1413.42,1801.92 1411.09,1799.42 1408.5,1797C 1409.69,1795.65 1411.02,1794.48 1412.5,1793.5C 1399.08,1778.66 1389.24,1761.66 1383,1742.5C 1374.71,1712.09 1370.21,1681.09 1369.5,1649.5C 1371.22,1644.55 1372.22,1639.39 1372.5,1634C 1371.51,1481.51 1371.18,1329.01 1371.5,1176.5 Z"/></g>
<g><path style="opacity:1" fill="#c390f1" d="M 1419.5,1218.5 C 1420.5,1261.33 1420.83,1304.33 1420.5,1347.5C 1420.5,1408.17 1420.5,1468.83 1420.5,1529.5C 1572.83,1529.5 1725.17,1529.5 1877.5,1529.5C 1871.8,1539.04 1864.47,1547.21 1855.5,1554C 1703.62,1655.39 1551.62,1756.56 1399.5,1857.5C 1397.97,1857.48 1397.47,1856.82 1398,1855.5C 1411.06,1841.82 1418.23,1825.49 1419.5,1806.5C 1419.5,1611.5 1419.5,1416.5 1419.5,1221.5C 1419.5,1220.5 1419.5,1219.5 1419.5,1218.5 Z"/></g>
</svg>
