<?xml version="1.0" encoding="UTF-8"?>
<svg id="katman_1" data-name="katman 1" xmlns="http://www.w3.org/2000/svg" viewBox="0 0 381.25 163.16">
  <defs>
    <style>
      .cls-1 {
        fill: #fbbc04;
      }

      .cls-2 {
        fill: #4285f4;
      }

      .cls-3 {
        fill: #34a853;
      }

      .cls-4 {
        fill: #5f6368;
      }

      .cls-5 {
        fill: #ea4335;
      }
    </style>
  </defs>
  <g>
    <path class="cls-4" d="m64.57,87.47h7.8l-15.6,58.09h-7.64l-12.45-38.34h-.33l-12.61,38.34h-7.64L0,87.47h7.8l12.28,45.64h.33l12.61-37.84h6.97l12.61,37.84h.33l11.62-45.64Zm0,0"/>
    <path class="cls-4" d="m71.54,125.65c0-6.09,1.94-11.12,5.81-15.1s8.8-5.98,14.77-5.98,10.84,1.99,14.61,5.98c3.87,3.98,5.81,9.02,5.81,15.1s-1.94,11.29-5.81,15.27c-3.87,3.98-8.74,5.98-14.61,5.98s-10.79-1.99-14.77-5.98c-3.87-3.98-5.81-9.07-5.81-15.27m7.47,0c0,4.32,1.27,7.8,3.82,10.46,2.55,2.66,5.64,3.98,9.29,3.98s6.75-1.33,9.29-3.98c2.55-2.66,3.76-6.14,3.65-10.46,0-4.2-1.22-7.64-3.65-10.29-2.55-2.66-5.64-3.98-9.29-3.98s-6.75,1.33-9.29,3.98-3.82,6.09-3.82,10.29m46.31,19.92h-7.47v-39.83h7.14v6.64h.33c.77-2.21,2.38-4.04,4.81-5.48s4.76-2.21,6.97-2.32c2.1,0,3.93.33,5.48,1l-2.32,7.3c-.89-.33-2.32-.5-4.32-.5-2.88,0-5.37,1.11-7.47,3.32s-3.15,4.87-3.15,7.97v21.91Zm55.77,0h-9.13l-12.28-18.76-6.14,6.14v12.61h-7.47v-58.09h7.47v35.85l17.26-17.59h9.46v.33l-15.44,15.44,16.27,23.73v.33Zm0,0"/>
    <path class="cls-4" d="m213.45,134.61c0,3.43-1.49,6.36-4.48,8.8s-6.86,3.6-11.62,3.49c-3.98,0-7.47-1.05-10.46-3.15-2.94-1.98-5.2-4.82-6.47-8.13l6.64-2.82c1,2.32,2.38,4.15,4.15,5.48,1.78,1.31,3.93,2,6.14,1.99,2.43,0,4.43-.5,5.98-1.49s2.38-2.21,2.49-3.65c0-2.55-1.94-4.43-5.81-5.64l-6.97-1.66c-7.75-1.99-11.62-5.75-11.62-11.29,0-3.65,1.49-6.58,4.48-8.8,2.99-2.21,6.75-3.32,11.29-3.32,3.54,0,6.75.89,9.63,2.66s4.87,3.98,5.98,6.64l-6.64,2.82c-.75-1.69-2.03-3.09-3.65-3.98-1.79-.94-3.79-1.4-5.81-1.33-1.86-.08-3.71.38-5.31,1.33-1.55,1-2.32,2.21-2.32,3.65,0,2.32,2.16,3.93,6.47,4.81l5.98,1.66c7.97,1.88,11.95,5.86,11.95,11.95m25.89,12.28c-2.88,0-5.53-.61-7.97-1.83s-4.26-2.88-5.48-4.98h-.33l.33,5.48v17.59h-7.47v-57.43h7.14v5.64h.33c1.22-2.1,3.04-3.76,5.48-4.98s5.15-1.83,8.13-1.83c5.2,0,9.63,2.05,13.28,6.14,3.76,4.09,5.64,9.07,5.64,14.94s-1.88,11.01-5.64,15.1c-3.65,4.09-8.08,6.14-13.28,6.14m-1.33-6.81c3.65,0,6.69-1.33,9.13-3.98,2.43-2.66,3.65-6.14,3.65-10.46s-1.22-7.52-3.65-10.29-5.48-4.09-9.13-3.98c-3.65,0-6.69,1.33-9.13,3.98-2.32,2.77-3.49,6.2-3.49,10.29,0,4.32,1.16,7.8,3.49,10.46,2.43,2.66,5.48,3.98,9.13,3.98m40.66-35.52c5.53,0,9.9,1.44,13.11,4.32s4.81,6.92,4.81,12.12v24.56h-7.14v-5.48h-.33c-3.1,4.54-7.25,6.81-12.45,6.81-4.32,0-7.97-1.27-10.95-3.82-2.99-2.55-4.48-5.81-4.48-9.79s1.55-7.36,4.65-9.79c3.1-2.43,7.3-3.65,12.61-3.65,4.43,0,8.08.77,10.95,2.32v-1.66c0-2.66-1.05-4.87-3.15-6.64-1.97-1.74-4.51-2.68-7.14-2.66-4.2,0-7.52,1.77-9.96,5.31l-6.64-4.15c3.65-5.2,9.02-7.8,16.1-7.8m-9.63,28.88c0,1.99.83,3.6,2.49,4.81,1.66,1.22,3.6,1.88,5.81,1.99,3.1,0,5.86-1.16,8.3-3.49,2.43-2.32,3.71-5.03,3.82-8.13-2.32-1.88-5.59-2.82-9.79-2.82-2.99,0-5.53.72-7.64,2.16s-3.1,3.26-2.99,5.48m52.95,13.44c-5.98,0-10.9-1.99-14.77-5.98-3.87-4.09-5.81-9.18-5.81-15.27s1.94-11.12,5.81-15.1,8.8-5.98,14.77-5.98c4.09,0,7.64,1,10.62,2.99s5.26,4.81,6.81,8.46l-6.81,2.82c-2.1-4.98-5.81-7.47-11.12-7.47-3.43,0-6.42,1.38-8.96,4.15-2.43,2.77-3.65,6.14-3.65,10.12s1.22,7.41,3.65,10.29c2.55,2.77,5.53,4.15,8.96,4.15,5.42,0,9.24-2.49,11.45-7.47l6.81,2.82c-1.55,3.65-3.87,6.47-6.97,8.46-3.1,1.99-6.69,2.99-10.79,2.99m40.17,0c-5.86,0-10.68-1.99-14.44-5.98-3.76-3.98-5.64-9.07-5.64-15.27s1.83-11.01,5.48-15.1c3.65-4.09,8.35-6.09,14.11-5.98,5.98,0,10.68,1.88,14.11,5.64,3.43,3.76,5.2,9.13,5.31,16.1v.83h-31.37c.11,3.87,1.38,7.03,3.82,9.46s5.42,3.6,8.96,3.49c4.76,0,8.52-2.38,11.29-7.14l6.64,3.32c-1.72,3.24-4.31,5.94-7.47,7.8-3.1,1.88-6.69,2.82-10.79,2.82m-11.95-26.06h22.91c-.22-2.77-1.33-5.03-3.32-6.81s-4.76-2.66-8.3-2.66c-2.77,0-5.15.83-7.14,2.49s-3.37,3.98-4.15,6.97"/>
  </g>
  <path class="cls-2" d="m84.32,39.17v-9.13h30.21c.35,1.86.51,3.75.5,5.64,0,6.64-1.83,15.1-7.8,20.91-5.81,6.14-13.11,9.29-23.07,9.29-18.09,0-33.36-14.77-33.36-32.86S66.06,0,84.15,0c10.12,0,17.26,3.98,22.74,9.13l-6.47,6.31c-6.89-6.58-17.07-8.36-25.79-4.51-8.72,3.85-14.26,12.57-14.04,22.1,0,13.28,10.46,23.9,23.57,23.9,8.63,0,13.61-3.49,16.76-6.64,2.49-2.49,4.15-6.14,4.81-11.12h-21.41Zm0,0"/>
  <path class="cls-5" d="m161,44.65c0,12.28-9.63,21.25-21.41,21.25s-21.25-8.96-21.25-21.25,9.63-21.25,21.25-21.25,21.41,8.96,21.41,21.25m-9.46,0c0-7.64-5.48-12.78-11.95-12.78s-11.95,5.15-11.95,12.78,5.64,12.95,11.95,12.95,11.95-5.31,11.95-12.95"/>
  <path class="cls-1" d="m207.47,44.65c0,12.28-9.63,21.25-21.41,21.25s-21.25-8.96-21.25-21.25,9.63-21.25,21.25-21.25,21.41,8.96,21.41,21.25m-9.46,0c0-7.64-5.48-12.78-11.95-12.78s-11.95,5.15-11.95,12.78,5.64,12.95,11.95,12.95,11.95-5.31,11.95-12.95"/>
  <path class="cls-2" d="m251.96,24.73v38.18c0,15.6-9.29,22.08-20.25,22.08-10.29,0-16.43-6.97-18.76-12.61l8.13-3.32c1.49,3.49,4.98,7.64,10.62,7.64,7.14,0,11.45-4.48,11.45-12.45v-3.15h-.33c-2.86,3.2-7,4.97-11.29,4.81-10.46,0-20.25-9.29-20.25-21.08s9.79-21.41,20.25-21.41c5.15,0,9.13,2.32,11.29,4.81h.33v-3.49h8.8Zm-8.13,20.08c0-7.47-4.98-12.95-11.45-12.95s-11.78,5.48-11.78,12.95,5.48,12.78,11.78,12.78,11.45-5.48,11.45-12.78"/>
  <rect class="cls-3" x="258.43" y="2.49" width="9.29" height="62.24"/>
  <path class="cls-5" d="m303.74,51.62l7.3,4.98c-2.32,3.32-7.97,9.29-17.76,9.29-12.12,0-21.08-9.29-21.08-21.25,0-12.61,9.13-21.25,20.08-21.25s16.43,8.8,18.09,13.61l1,2.32-28.38,11.78c2.16,4.32,5.48,6.47,10.29,6.47s7.97-2.32,10.46-5.98m-22.24-7.64l18.92-7.8c-1-2.66-4.15-4.48-7.8-4.48-4.81,0-11.45,4.15-11.12,12.28"/>
</svg>